%
M48
M72
T01C0.0197
T02C0.0236
T03C0.0276
T04C0.0315
T05C0.0374
T06C0.0400
T07C0.0433
T08C0.1260
%
T01
X11255Y11726
X11715Y10606
X13185Y10106
X13675Y10746
X14855Y11856
X15225Y12386
X16665Y12861
X17215Y13236
X17865Y12861
X18390Y13211
X18385Y13976
X17795Y14946
X18415Y12381
X17405Y12276
X17385Y10891
X16890Y10186
X16190Y10586
X15340Y10161
X14825Y8366
X13965Y7806
X14765Y7506
X15355Y7306
X14905Y5916
X15005Y4636
X14145Y4636
X17890Y10186
X18440Y10586
X13245Y12896
X8915Y15576
X8335Y16596
X8515Y17046
X8690Y17481
X8840Y18231
X7295Y16286
X7265Y16286
X6245Y15636
X5825Y15286
X3855Y14676
X3845Y13976
T02
X2365Y13686
X1655Y15666
X3015Y16486
X4145Y19106
X4425Y19986
X5695Y17586
X6215Y17586
X9365Y18936
X10215Y20726
X14305Y17596
X12915Y15786
X14805Y14836
X16755Y14806
X16755Y16276
X16755Y17626
X16755Y18986
X16765Y20486
X18545Y20826
X19355Y19266
X19305Y17996
X19065Y17266
X18845Y16806
X18595Y16346
X18825Y14366
X20695Y10576
X20190Y10111
X19590Y9636
X18990Y7486
X17025Y6976
X16845Y8366
X16865Y8996
X13275Y6996
X8375Y7876
X8375Y6096
X6835Y4096
X5385Y7986
X5765Y8766
X5365Y10616
X2705Y7646
X3075Y7116
X1540Y6911
X8095Y11796
X10195Y12546
X9655Y14426
X9245Y14806
X10790Y14861
X14805Y21516
T03
X2110Y10266
X2110Y10166
X1150Y10616
X950Y10616
X2110Y8306
X2110Y8206
X1150Y7856
X950Y7856
T04
X4065Y5936
T05
X2065Y17111
X2065Y18111
X2065Y19111
X1065Y19111
X1065Y18111
X1065Y17111
T06
X1065Y21461
X1065Y22461
X1065Y23461
X2065Y23461
X2065Y22461
X2065Y21461
X3065Y21461
X3065Y22461
X3065Y23461
X4065Y23461
X4065Y22461
X4065Y21461
X5065Y21461
X6065Y21461
X6065Y22461
X5065Y22461
X5065Y23461
X6065Y23461
X11565Y23386
X12565Y23386
X14205Y23411
X15205Y23411
X16205Y23411
X17205Y23411
X18205Y23411
X19205Y23411
X20615Y23461
X20615Y22461
X20615Y21461
X20615Y20461
X20615Y19461
X20615Y18461
X20615Y17461
X20615Y16461
X20615Y15461
X20615Y14461
X20615Y13461
X20615Y12461
X20615Y11461
X21615Y11461
X21615Y12461
X21615Y13461
X21615Y14461
X21615Y15461
X21615Y16461
X21615Y17461
X21615Y18461
X21615Y19461
X21615Y20461
X21615Y21461
X21615Y22461
X21615Y23461
X17540Y3261
X18540Y3161
X16540Y3161
X15540Y3261
X14540Y3161
X13540Y3261
X12540Y3161
X11540Y3261
T07
X10585Y7026
X7165Y12046
X5785Y12046
T08
X8315Y3986
X8315Y23036
M30
