%
M48
M72
T01C0.0197
T02C0.0236
T03C0.0315
T04C0.0374
T05C0.0400
T06C0.0433
T07C0.1260
%
T01
X11343Y11726
X11803Y10606
X13273Y10106
X13763Y10746
X14943Y11856
X15313Y12386
X16753Y12861
X17303Y13236
X17953Y12861
X18478Y13211
X18473Y13976
X17883Y14946
X18503Y12381
X17493Y12276
X17473Y10891
X16978Y10186
X16278Y10586
X15428Y10161
X14913Y8366
X14853Y7506
X15443Y7306
X14053Y7806
X17978Y10186
X18528Y10586
X13333Y12896
X9003Y15576
X8423Y16596
X8602Y17046
X8778Y17481
X8927Y18231
X6333Y15636
X5913Y15286
X3943Y14676
X3933Y13976
T02
X2453Y13686
X1743Y15666
X3103Y16486
X4233Y19106
X4513Y19986
X5783Y17586
X6303Y17586
X7378Y16336
X9333Y14806
X9743Y14426
X10878Y14861
X13003Y15786
X14393Y17596
X16843Y17626
X16843Y16276
X16843Y14806
X14893Y14836
X18683Y16346
X18933Y16806
X19153Y17266
X19393Y17996
X19443Y19266
X18633Y20826
X16843Y18986
X14893Y21516
X10303Y20726
X9453Y18936
X10283Y12546
X8183Y11796
X5453Y10616
X5853Y8766
X5473Y7986
X3163Y7116
X2793Y7646
X1628Y6911
X6923Y4096
X8463Y6096
X8463Y7876
X13363Y6996
X13391Y4636
X14403Y4636
X16828Y4786
X19253Y9386
X19728Y9936
X20253Y10686
X21153Y10936
T03
X4153Y5936
T04
X2153Y17111
X2153Y18111
X2153Y19111
X1153Y19111
X1153Y18111
X1153Y17111
T05
X1153Y21461
X2153Y21461
X3153Y21461
X3153Y22461
X3153Y23461
X2153Y23461
X2153Y22461
X1153Y22461
X1153Y23461
X4153Y23461
X5153Y23461
X5153Y22461
X5153Y21461
X4153Y21461
X4153Y22461
X6153Y22461
X6153Y21461
X6153Y23461
X11653Y23386
X12653Y23386
X14293Y23411
X15293Y23411
X16293Y23411
X17293Y23411
X18293Y23411
X19293Y23411
X20703Y23461
X20703Y22461
X20703Y21461
X20703Y20461
X21703Y20461
X21703Y21461
X21703Y22461
X21703Y23461
X21703Y19461
X21703Y18461
X21703Y17461
X21703Y16461
X21703Y15461
X21703Y14461
X21703Y13461
X21703Y12461
X21703Y11461
X20703Y11461
X20703Y12461
X20703Y13461
X20703Y14461
X20703Y15461
X20703Y16461
X20703Y17461
X20703Y18461
X20703Y19461
T06
X10673Y7026
X7253Y12046
X5873Y12046
T07
X8403Y3986
X8403Y23036
M30
