G75*
G70*
%OFA0B0*%
%FSLAX24Y24*%
%IPPOS*%
%LPD*%
%AMOC8*
5,1,8,0,0,1.08239X$1,22.5*
%
%ADD10C,0.0820*%
%ADD11OC8,0.0690*%
%ADD12C,0.0356*%
%ADD13R,0.0820X0.0820*%
%ADD14OC8,0.0680*%
%ADD15R,0.0540X0.0710*%
%ADD16R,0.0060X0.0720*%
%ADD17C,0.0476*%
%ADD18C,0.0555*%
%ADD19C,0.0730*%
%ADD20C,0.0437*%
%ADD21C,0.1740*%
D10*
X011540Y003261D03*
X012540Y003161D03*
X013540Y003261D03*
X014540Y003161D03*
X015540Y003261D03*
X016540Y003161D03*
X017540Y003261D03*
X017205Y023411D03*
X016205Y023411D03*
X015205Y023411D03*
X014205Y023411D03*
X012565Y023386D03*
X011565Y023386D03*
X018205Y023411D03*
X019205Y023411D03*
D11*
X002065Y019111D03*
X002065Y018111D03*
X002065Y017111D03*
X001065Y017111D03*
X001065Y018111D03*
X001065Y019111D03*
D12*
X001150Y010616D03*
X000950Y010616D03*
X002110Y010266D03*
X002110Y010166D03*
X002110Y008306D03*
X002110Y008206D03*
X001150Y007856D03*
X000950Y007856D03*
D13*
X018540Y003161D03*
D14*
X020615Y011461D03*
X020615Y012461D03*
X020615Y013461D03*
X020615Y014461D03*
X020615Y015461D03*
X020615Y016461D03*
X020615Y017461D03*
X020615Y018461D03*
X020615Y019461D03*
X021615Y019461D03*
X021615Y018461D03*
X021615Y017461D03*
X021615Y016461D03*
X021615Y015461D03*
X021615Y014461D03*
X021615Y013461D03*
X021615Y012461D03*
X021615Y011461D03*
X021615Y020461D03*
X021615Y021461D03*
X021615Y022461D03*
X021615Y023461D03*
X020615Y023461D03*
X020615Y022461D03*
X020615Y021461D03*
X020615Y020461D03*
X006065Y021461D03*
X005065Y021461D03*
X004065Y021461D03*
X004065Y022461D03*
X005065Y022461D03*
X006065Y022461D03*
X006065Y023461D03*
X005065Y023461D03*
X004065Y023461D03*
X003065Y023461D03*
X003065Y022461D03*
X003065Y021461D03*
X002065Y021461D03*
X002065Y022461D03*
X002065Y023461D03*
X001065Y023461D03*
X001065Y022461D03*
X001065Y021461D03*
D15*
X018940Y022371D03*
X019540Y022371D03*
D16*
X019240Y022371D03*
D17*
X018545Y020826D03*
X019355Y019266D03*
X019305Y017996D03*
X019065Y017266D03*
X018845Y016806D03*
X018595Y016346D03*
X016755Y016276D03*
X016755Y017626D03*
X016755Y018986D03*
X016765Y020486D03*
X014805Y021516D03*
X014305Y017596D03*
X012915Y015786D03*
X014805Y014836D03*
X016755Y014806D03*
X018825Y014366D03*
X020695Y010576D03*
X020190Y010111D03*
X019590Y009636D03*
X018990Y007486D03*
X017025Y006976D03*
X016845Y008366D03*
X016865Y008996D03*
X013275Y006996D03*
X008375Y007876D03*
X008375Y006096D03*
X006835Y004096D03*
X005385Y007986D03*
X005765Y008766D03*
X005365Y010616D03*
X002705Y007646D03*
X003075Y007116D03*
X001540Y006911D03*
X002365Y013686D03*
X001655Y015666D03*
X003015Y016486D03*
X004145Y019106D03*
X004425Y019986D03*
X005695Y017586D03*
X006215Y017586D03*
X009365Y018936D03*
X010215Y020726D03*
X010790Y014861D03*
X009655Y014426D03*
X009245Y014806D03*
X010195Y012546D03*
X008095Y011796D03*
D18*
X004065Y005936D03*
D19*
X005785Y012046D03*
X007165Y012046D03*
X010585Y007026D03*
D20*
X013185Y010106D03*
X013675Y010746D03*
X014855Y011856D03*
X015225Y012386D03*
X016665Y012861D03*
X017215Y013236D03*
X017865Y012861D03*
X018390Y013211D03*
X018385Y013976D03*
X017795Y014946D03*
X018415Y012381D03*
X017405Y012276D03*
X017385Y010891D03*
X016890Y010186D03*
X016190Y010586D03*
X015340Y010161D03*
X014825Y008366D03*
X013965Y007806D03*
X014765Y007506D03*
X015355Y007306D03*
X014905Y005916D03*
X015005Y004636D03*
X014145Y004636D03*
X017890Y010186D03*
X018440Y010586D03*
X013245Y012896D03*
X011255Y011726D03*
X011715Y010606D03*
X008915Y015576D03*
X008335Y016596D03*
X008515Y017046D03*
X008690Y017481D03*
X008840Y018231D03*
X007295Y016286D03*
X007265Y016286D03*
X006245Y015636D03*
X005825Y015286D03*
X003855Y014676D03*
X003845Y013976D03*
D21*
X008315Y023036D03*
X008315Y003986D03*
M02*
