G75*
G70*
%OFA0B0*%
%FSLAX24Y24*%
%IPPOS*%
%LPD*%
%AMOC8*
5,1,8,0,0,1.08239X$1,22.5*
%
%ADD10R,0.0198X0.0395*%
%ADD11R,0.0395X0.0198*%
%ADD12R,0.0394X0.0394*%
%ADD13R,0.0552X0.0277*%
%ADD14R,0.0277X0.0552*%
%ADD15R,0.0434X0.0356*%
%ADD16R,0.0356X0.0434*%
%ADD17R,0.0336X0.0190*%
%ADD18R,0.0190X0.0336*%
%ADD19R,0.0789X0.0552*%
%ADD20R,0.0690X0.0316*%
%ADD21C,0.0820*%
%ADD22OC8,0.0690*%
%ADD23R,0.0552X0.0552*%
%ADD24C,0.0347*%
%ADD25R,0.0828X0.1419*%
%ADD26R,0.0474X0.0474*%
%ADD27R,0.0552X0.0474*%
%ADD28R,0.0336X0.0277*%
%ADD29R,0.0474X0.0552*%
%ADD30C,0.0206*%
%ADD31C,0.0474*%
%ADD32R,0.0710X0.1025*%
%ADD33C,0.0095*%
%ADD34R,0.0277X0.0336*%
%ADD35R,0.0493X0.0592*%
%ADD36R,0.0789X0.0631*%
%ADD37C,0.0138*%
%ADD38C,0.0384*%
%ADD39C,0.0024*%
%ADD40C,0.0068*%
%ADD41C,0.0356*%
%ADD42R,0.1064X0.0395*%
%ADD43R,0.0737X0.0395*%
%ADD44R,0.0395X0.0737*%
%ADD45R,0.0820X0.0820*%
%ADD46R,0.0540X0.0710*%
%ADD47R,0.0060X0.0720*%
%ADD48OC8,0.0680*%
%ADD49R,0.0330X0.0580*%
%ADD50R,0.0631X0.0474*%
%ADD51R,0.0513X0.0474*%
%ADD52R,0.0960X0.0560*%
%ADD53R,0.0946X0.1497*%
%ADD54R,0.0474X0.0513*%
%ADD55C,0.0476*%
%ADD56C,0.0555*%
%ADD57C,0.0730*%
%ADD58C,0.0437*%
%ADD59C,0.1740*%
D10*
X012263Y010854D03*
X012460Y010854D03*
X012657Y010854D03*
X012853Y010854D03*
X013050Y010854D03*
X013247Y010854D03*
X013247Y012429D03*
X013050Y012429D03*
X012853Y012429D03*
X012657Y012429D03*
X012460Y012429D03*
X012263Y012429D03*
D11*
X011968Y012133D03*
X011968Y011937D03*
X011968Y011740D03*
X011968Y011543D03*
X011968Y011346D03*
X011968Y011149D03*
X013542Y011149D03*
X013542Y011346D03*
X013542Y011543D03*
X013542Y011740D03*
X013542Y011937D03*
X013542Y012133D03*
D12*
X012755Y011641D03*
D13*
X015337Y009629D03*
X015337Y009314D03*
X015337Y008999D03*
X015337Y008684D03*
X015337Y008369D03*
X015337Y008054D03*
X016203Y008054D03*
X016203Y008369D03*
X016203Y008684D03*
X016203Y008999D03*
X016203Y009314D03*
X016203Y009629D03*
D14*
X015770Y009668D03*
X015770Y008015D03*
D15*
X017380Y007850D03*
X017380Y008362D03*
X017380Y009110D03*
X017380Y009622D03*
X017725Y011300D03*
X017725Y011812D03*
X018415Y011832D03*
X018415Y011320D03*
X015320Y011345D03*
X015320Y011857D03*
X014255Y011352D03*
X014255Y010840D03*
X011250Y010590D03*
X011250Y011102D03*
X011250Y012135D03*
X011250Y012647D03*
X011155Y008352D03*
X011155Y007840D03*
X010585Y007840D03*
X010585Y008352D03*
X006230Y008760D03*
X006230Y009272D03*
D16*
X012254Y010101D03*
X012766Y010101D03*
X012781Y006991D03*
X012269Y006991D03*
X016029Y006961D03*
X016541Y006961D03*
X017564Y020476D03*
X018076Y020476D03*
X018071Y021031D03*
X017559Y021031D03*
D17*
X017069Y011947D03*
X017069Y011750D03*
X017069Y011553D03*
X017069Y011356D03*
X015991Y011356D03*
X015991Y011553D03*
X015991Y011750D03*
X015991Y011947D03*
D18*
X016235Y012191D03*
X016432Y012191D03*
X016628Y012191D03*
X016825Y012191D03*
X016825Y011112D03*
X016628Y011112D03*
X016432Y011112D03*
X016235Y011112D03*
D19*
X021556Y010073D03*
X021556Y007475D03*
D20*
X020680Y007986D03*
X020680Y008380D03*
X020680Y008774D03*
X020680Y009167D03*
X020680Y009561D03*
D21*
X017540Y003261D03*
X016540Y003161D03*
X015540Y003261D03*
X014540Y003161D03*
X013540Y003261D03*
X012540Y003161D03*
X011540Y003261D03*
X011565Y023386D03*
X012565Y023386D03*
X014205Y023411D03*
X015205Y023411D03*
X016205Y023411D03*
X017205Y023411D03*
X018205Y023411D03*
X019205Y023411D03*
D22*
X002065Y019111D03*
X002065Y018111D03*
X002065Y017111D03*
X001065Y017111D03*
X001065Y018111D03*
X001065Y019111D03*
D23*
X008095Y011280D03*
X008735Y011275D03*
X009370Y011270D03*
X010015Y011265D03*
X010015Y010438D03*
X009370Y010443D03*
X008735Y010448D03*
X008095Y010453D03*
D24*
X011634Y014778D02*
X011634Y014944D01*
X011634Y014778D02*
X011546Y014778D01*
X011546Y014944D01*
X011634Y014944D01*
X012334Y014944D02*
X012334Y014778D01*
X012246Y014778D01*
X012246Y014944D01*
X012334Y014944D01*
X010532Y016242D02*
X010532Y016330D01*
X010698Y016330D01*
X010698Y016242D01*
X010532Y016242D01*
X010532Y016942D02*
X010532Y017030D01*
X010698Y017030D01*
X010698Y016942D01*
X010532Y016942D01*
X011634Y017503D02*
X011634Y017669D01*
X011634Y017503D02*
X011546Y017503D01*
X011546Y017669D01*
X011634Y017669D01*
X012334Y017669D02*
X012334Y017503D01*
X012246Y017503D01*
X012246Y017669D01*
X012334Y017669D01*
X009504Y019828D02*
X009504Y019994D01*
X009504Y019828D02*
X009416Y019828D01*
X009416Y019994D01*
X009504Y019994D01*
X008804Y019994D02*
X008804Y019828D01*
X008716Y019828D01*
X008716Y019994D01*
X008804Y019994D01*
X003368Y014720D02*
X003202Y014720D01*
X003368Y014720D02*
X003368Y014632D01*
X003202Y014632D01*
X003202Y014720D01*
X003202Y014020D02*
X003368Y014020D01*
X003368Y013932D01*
X003202Y013932D01*
X003202Y014020D01*
X002404Y014168D02*
X002316Y014168D01*
X002316Y014334D01*
X002404Y014334D01*
X002404Y014168D01*
X001704Y014168D02*
X001616Y014168D01*
X001616Y014334D01*
X001704Y014334D01*
X001704Y014168D01*
X001704Y015154D02*
X001616Y015154D01*
X001704Y015154D02*
X001704Y014988D01*
X001616Y014988D01*
X001616Y015154D01*
X002316Y015154D02*
X002404Y015154D01*
X002404Y014988D01*
X002316Y014988D01*
X002316Y015154D01*
X002404Y015808D02*
X002404Y015974D01*
X002404Y015808D02*
X002316Y015808D01*
X002316Y015974D01*
X002404Y015974D01*
X003104Y015974D02*
X003104Y015808D01*
X003016Y015808D01*
X003016Y015974D01*
X003104Y015974D01*
X005084Y004644D02*
X005084Y004478D01*
X004996Y004478D01*
X004996Y004644D01*
X005084Y004644D01*
X005784Y004644D02*
X005784Y004478D01*
X005696Y004478D01*
X005696Y004644D01*
X005784Y004644D01*
X006757Y003555D02*
X006923Y003555D01*
X006923Y003467D01*
X006757Y003467D01*
X006757Y003555D01*
X006757Y002855D02*
X006923Y002855D01*
X006923Y002767D01*
X006757Y002767D01*
X006757Y002855D01*
D25*
X004358Y012036D03*
X002822Y012036D03*
D26*
X003996Y010611D03*
X004784Y010611D03*
X004784Y007986D03*
X003996Y007986D03*
D27*
X003932Y007261D03*
X004798Y007261D03*
D28*
X004531Y008814D03*
X004531Y009129D03*
X004531Y009444D03*
X004531Y009759D03*
X003999Y009759D03*
X003999Y009444D03*
X003999Y009129D03*
X003999Y008814D03*
D29*
X004435Y013483D03*
X004435Y014349D03*
D30*
X005194Y015237D02*
X005194Y015287D01*
X005194Y015237D02*
X004770Y015237D01*
X004770Y015287D01*
X005194Y015287D01*
X005194Y015552D02*
X005194Y015602D01*
X005194Y015552D02*
X004770Y015552D01*
X004770Y015602D01*
X005194Y015602D01*
X005194Y015866D02*
X005194Y015916D01*
X005194Y015866D02*
X004770Y015866D01*
X004770Y015916D01*
X005194Y015916D01*
X005194Y016181D02*
X005194Y016231D01*
X005194Y016181D02*
X004770Y016181D01*
X004770Y016231D01*
X005194Y016231D01*
X005194Y016496D02*
X005194Y016546D01*
X005194Y016496D02*
X004770Y016496D01*
X004770Y016546D01*
X005194Y016546D01*
X005194Y016811D02*
X005194Y016861D01*
X005194Y016811D02*
X004770Y016811D01*
X004770Y016861D01*
X005194Y016861D01*
X005194Y017126D02*
X005194Y017176D01*
X005194Y017126D02*
X004770Y017126D01*
X004770Y017176D01*
X005194Y017176D01*
X005194Y017441D02*
X005194Y017491D01*
X005194Y017441D02*
X004770Y017441D01*
X004770Y017491D01*
X005194Y017491D01*
X005194Y017756D02*
X005194Y017806D01*
X005194Y017756D02*
X004770Y017756D01*
X004770Y017806D01*
X005194Y017806D01*
X005194Y018071D02*
X005194Y018121D01*
X005194Y018071D02*
X004770Y018071D01*
X004770Y018121D01*
X005194Y018121D01*
X005194Y018386D02*
X005194Y018436D01*
X005194Y018386D02*
X004770Y018386D01*
X004770Y018436D01*
X005194Y018436D01*
X005715Y018908D02*
X005715Y019332D01*
X005715Y018908D02*
X005665Y018908D01*
X005665Y019332D01*
X005715Y019332D01*
X005715Y019113D02*
X005665Y019113D01*
X005665Y019318D02*
X005715Y019318D01*
X006030Y019332D02*
X006030Y018908D01*
X005980Y018908D01*
X005980Y019332D01*
X006030Y019332D01*
X006030Y019113D02*
X005980Y019113D01*
X005980Y019318D02*
X006030Y019318D01*
X006345Y019332D02*
X006345Y018908D01*
X006295Y018908D01*
X006295Y019332D01*
X006345Y019332D01*
X006345Y019113D02*
X006295Y019113D01*
X006295Y019318D02*
X006345Y019318D01*
X006660Y019332D02*
X006660Y018908D01*
X006610Y018908D01*
X006610Y019332D01*
X006660Y019332D01*
X006660Y019113D02*
X006610Y019113D01*
X006610Y019318D02*
X006660Y019318D01*
X006975Y019332D02*
X006975Y018908D01*
X006925Y018908D01*
X006925Y019332D01*
X006975Y019332D01*
X006975Y019113D02*
X006925Y019113D01*
X006925Y019318D02*
X006975Y019318D01*
X007290Y019332D02*
X007290Y018908D01*
X007240Y018908D01*
X007240Y019332D01*
X007290Y019332D01*
X007290Y019113D02*
X007240Y019113D01*
X007240Y019318D02*
X007290Y019318D01*
X007605Y019332D02*
X007605Y018908D01*
X007555Y018908D01*
X007555Y019332D01*
X007605Y019332D01*
X007605Y019113D02*
X007555Y019113D01*
X007555Y019318D02*
X007605Y019318D01*
X007920Y019332D02*
X007920Y018908D01*
X007870Y018908D01*
X007870Y019332D01*
X007920Y019332D01*
X007920Y019113D02*
X007870Y019113D01*
X007870Y019318D02*
X007920Y019318D01*
X008235Y019332D02*
X008235Y018908D01*
X008185Y018908D01*
X008185Y019332D01*
X008235Y019332D01*
X008235Y019113D02*
X008185Y019113D01*
X008185Y019318D02*
X008235Y019318D01*
X008550Y019332D02*
X008550Y018908D01*
X008500Y018908D01*
X008500Y019332D01*
X008550Y019332D01*
X008550Y019113D02*
X008500Y019113D01*
X008500Y019318D02*
X008550Y019318D01*
X008865Y019332D02*
X008865Y018908D01*
X008815Y018908D01*
X008815Y019332D01*
X008865Y019332D01*
X008865Y019113D02*
X008815Y019113D01*
X008815Y019318D02*
X008865Y019318D01*
X009760Y018436D02*
X009760Y018386D01*
X009336Y018386D01*
X009336Y018436D01*
X009760Y018436D01*
X009760Y018121D02*
X009760Y018071D01*
X009336Y018071D01*
X009336Y018121D01*
X009760Y018121D01*
X009760Y017806D02*
X009760Y017756D01*
X009336Y017756D01*
X009336Y017806D01*
X009760Y017806D01*
X009760Y017491D02*
X009760Y017441D01*
X009336Y017441D01*
X009336Y017491D01*
X009760Y017491D01*
X009760Y017176D02*
X009760Y017126D01*
X009336Y017126D01*
X009336Y017176D01*
X009760Y017176D01*
X009760Y016861D02*
X009760Y016811D01*
X009336Y016811D01*
X009336Y016861D01*
X009760Y016861D01*
X009760Y016546D02*
X009760Y016496D01*
X009336Y016496D01*
X009336Y016546D01*
X009760Y016546D01*
X009760Y016231D02*
X009760Y016181D01*
X009336Y016181D01*
X009336Y016231D01*
X009760Y016231D01*
X009760Y015916D02*
X009760Y015866D01*
X009336Y015866D01*
X009336Y015916D01*
X009760Y015916D01*
X009760Y015602D02*
X009760Y015552D01*
X009336Y015552D01*
X009336Y015602D01*
X009760Y015602D01*
X009760Y015287D02*
X009760Y015237D01*
X009336Y015237D01*
X009336Y015287D01*
X009760Y015287D01*
X008865Y014765D02*
X008865Y014341D01*
X008815Y014341D01*
X008815Y014765D01*
X008865Y014765D01*
X008865Y014546D02*
X008815Y014546D01*
X008815Y014751D02*
X008865Y014751D01*
X008550Y014765D02*
X008550Y014341D01*
X008500Y014341D01*
X008500Y014765D01*
X008550Y014765D01*
X008550Y014546D02*
X008500Y014546D01*
X008500Y014751D02*
X008550Y014751D01*
X008235Y014765D02*
X008235Y014341D01*
X008185Y014341D01*
X008185Y014765D01*
X008235Y014765D01*
X008235Y014546D02*
X008185Y014546D01*
X008185Y014751D02*
X008235Y014751D01*
X007920Y014765D02*
X007920Y014341D01*
X007870Y014341D01*
X007870Y014765D01*
X007920Y014765D01*
X007920Y014546D02*
X007870Y014546D01*
X007870Y014751D02*
X007920Y014751D01*
X007605Y014765D02*
X007605Y014341D01*
X007555Y014341D01*
X007555Y014765D01*
X007605Y014765D01*
X007605Y014546D02*
X007555Y014546D01*
X007555Y014751D02*
X007605Y014751D01*
X007290Y014765D02*
X007290Y014341D01*
X007240Y014341D01*
X007240Y014765D01*
X007290Y014765D01*
X007290Y014546D02*
X007240Y014546D01*
X007240Y014751D02*
X007290Y014751D01*
X006975Y014765D02*
X006975Y014341D01*
X006925Y014341D01*
X006925Y014765D01*
X006975Y014765D01*
X006975Y014546D02*
X006925Y014546D01*
X006925Y014751D02*
X006975Y014751D01*
X006660Y014765D02*
X006660Y014341D01*
X006610Y014341D01*
X006610Y014765D01*
X006660Y014765D01*
X006660Y014546D02*
X006610Y014546D01*
X006610Y014751D02*
X006660Y014751D01*
X006345Y014765D02*
X006345Y014341D01*
X006295Y014341D01*
X006295Y014765D01*
X006345Y014765D01*
X006345Y014546D02*
X006295Y014546D01*
X006295Y014751D02*
X006345Y014751D01*
X006030Y014765D02*
X006030Y014341D01*
X005980Y014341D01*
X005980Y014765D01*
X006030Y014765D01*
X006030Y014546D02*
X005980Y014546D01*
X005980Y014751D02*
X006030Y014751D01*
X005715Y014765D02*
X005715Y014341D01*
X005665Y014341D01*
X005665Y014765D01*
X005715Y014765D01*
X005715Y014546D02*
X005665Y014546D01*
X005665Y014751D02*
X005715Y014751D01*
D31*
X007265Y016836D03*
D32*
X005981Y005936D03*
X004799Y005936D03*
D33*
X000731Y003231D02*
X000731Y002615D01*
X000731Y003231D02*
X001267Y003231D01*
X001267Y002615D01*
X000731Y002615D01*
X000731Y002709D02*
X001267Y002709D01*
X001267Y002803D02*
X000731Y002803D01*
X000731Y002897D02*
X001267Y002897D01*
X001267Y002991D02*
X000731Y002991D01*
X000731Y003085D02*
X001267Y003085D01*
X001267Y003179D02*
X000731Y003179D01*
X002503Y003231D02*
X002503Y002615D01*
X002503Y003231D02*
X003039Y003231D01*
X003039Y002615D01*
X002503Y002615D01*
X002503Y002709D02*
X003039Y002709D01*
X003039Y002803D02*
X002503Y002803D01*
X002503Y002897D02*
X003039Y002897D01*
X003039Y002991D02*
X002503Y002991D01*
X002503Y003085D02*
X003039Y003085D01*
X003039Y003179D02*
X002503Y003179D01*
X002503Y005922D02*
X002503Y006538D01*
X003039Y006538D01*
X003039Y005922D01*
X002503Y005922D01*
X002503Y006016D02*
X003039Y006016D01*
X003039Y006110D02*
X002503Y006110D01*
X002503Y006204D02*
X003039Y006204D01*
X003039Y006298D02*
X002503Y006298D01*
X002503Y006392D02*
X003039Y006392D01*
X003039Y006486D02*
X002503Y006486D01*
X001617Y006538D02*
X001617Y005922D01*
X001617Y006538D02*
X002153Y006538D01*
X002153Y005922D01*
X001617Y005922D01*
X001617Y006016D02*
X002153Y006016D01*
X002153Y006110D02*
X001617Y006110D01*
X001617Y006204D02*
X002153Y006204D01*
X002153Y006298D02*
X001617Y006298D01*
X001617Y006392D02*
X002153Y006392D01*
X002153Y006486D02*
X001617Y006486D01*
X000731Y006538D02*
X000731Y005922D01*
X000731Y006538D02*
X001267Y006538D01*
X001267Y005922D01*
X000731Y005922D01*
X000731Y006016D02*
X001267Y006016D01*
X001267Y006110D02*
X000731Y006110D01*
X000731Y006204D02*
X001267Y006204D01*
X001267Y006298D02*
X000731Y006298D01*
X000731Y006392D02*
X001267Y006392D01*
X001267Y006486D02*
X000731Y006486D01*
D34*
X008598Y009281D03*
X008913Y009281D03*
X009227Y009281D03*
X009542Y009281D03*
X009542Y009812D03*
X009227Y009812D03*
X008913Y009812D03*
X008598Y009812D03*
D35*
X011576Y015784D03*
X012304Y015784D03*
X012304Y016689D03*
X011576Y016689D03*
D36*
X004115Y004206D03*
X004115Y002867D03*
D37*
X000774Y007640D02*
X000774Y008232D01*
X001326Y008232D01*
X001326Y007640D01*
X000774Y007640D01*
X000774Y007777D02*
X001326Y007777D01*
X001326Y007914D02*
X000774Y007914D01*
X000774Y008051D02*
X001326Y008051D01*
X001326Y008188D02*
X000774Y008188D01*
X000774Y010240D02*
X000774Y010832D01*
X001326Y010832D01*
X001326Y010240D01*
X000774Y010240D01*
X000774Y010377D02*
X001326Y010377D01*
X001326Y010514D02*
X000774Y010514D01*
X000774Y010651D02*
X001326Y010651D01*
X001326Y010788D02*
X000774Y010788D01*
D38*
X002062Y010364D02*
X002062Y010068D01*
X002062Y010364D02*
X002158Y010364D01*
X002158Y010068D01*
X002062Y010068D01*
X002062Y008404D02*
X002062Y008108D01*
X002062Y008404D02*
X002158Y008404D01*
X002158Y008108D01*
X002062Y008108D01*
D39*
X001817Y008608D02*
X001817Y008824D01*
X002403Y008824D01*
X002403Y008608D01*
X001817Y008608D01*
X001817Y008631D02*
X002403Y008631D01*
X002403Y008654D02*
X001817Y008654D01*
X001817Y008677D02*
X002403Y008677D01*
X002403Y008700D02*
X001817Y008700D01*
X001817Y008723D02*
X002403Y008723D01*
X002403Y008746D02*
X001817Y008746D01*
X001817Y008769D02*
X002403Y008769D01*
X002403Y008792D02*
X001817Y008792D01*
X001817Y008815D02*
X002403Y008815D01*
X001817Y008868D02*
X001817Y009084D01*
X002403Y009084D01*
X002403Y008868D01*
X001817Y008868D01*
X001817Y008891D02*
X002403Y008891D01*
X002403Y008914D02*
X001817Y008914D01*
X001817Y008937D02*
X002403Y008937D01*
X002403Y008960D02*
X001817Y008960D01*
X001817Y008983D02*
X002403Y008983D01*
X002403Y009006D02*
X001817Y009006D01*
X001817Y009029D02*
X002403Y009029D01*
X002403Y009052D02*
X001817Y009052D01*
X001817Y009075D02*
X002403Y009075D01*
X001817Y009128D02*
X001817Y009344D01*
X002403Y009344D01*
X002403Y009128D01*
X001817Y009128D01*
X001817Y009151D02*
X002403Y009151D01*
X002403Y009174D02*
X001817Y009174D01*
X001817Y009197D02*
X002403Y009197D01*
X002403Y009220D02*
X001817Y009220D01*
X001817Y009243D02*
X002403Y009243D01*
X002403Y009266D02*
X001817Y009266D01*
X001817Y009289D02*
X002403Y009289D01*
X002403Y009312D02*
X001817Y009312D01*
X001817Y009335D02*
X002403Y009335D01*
X001817Y009388D02*
X001817Y009604D01*
X002403Y009604D01*
X002403Y009388D01*
X001817Y009388D01*
X001817Y009411D02*
X002403Y009411D01*
X002403Y009434D02*
X001817Y009434D01*
X001817Y009457D02*
X002403Y009457D01*
X002403Y009480D02*
X001817Y009480D01*
X001817Y009503D02*
X002403Y009503D01*
X002403Y009526D02*
X001817Y009526D01*
X001817Y009549D02*
X002403Y009549D01*
X002403Y009572D02*
X001817Y009572D01*
X001817Y009595D02*
X002403Y009595D01*
X001817Y009648D02*
X001817Y009864D01*
X002403Y009864D01*
X002403Y009648D01*
X001817Y009648D01*
X001817Y009671D02*
X002403Y009671D01*
X002403Y009694D02*
X001817Y009694D01*
X001817Y009717D02*
X002403Y009717D01*
X002403Y009740D02*
X001817Y009740D01*
X001817Y009763D02*
X002403Y009763D01*
X002403Y009786D02*
X001817Y009786D01*
X001817Y009809D02*
X002403Y009809D01*
X002403Y009832D02*
X001817Y009832D01*
X001817Y009855D02*
X002403Y009855D01*
D40*
X000744Y009942D02*
X000744Y009330D01*
X000744Y009942D02*
X001356Y009942D01*
X001356Y009330D01*
X000744Y009330D01*
X000744Y009397D02*
X001356Y009397D01*
X001356Y009464D02*
X000744Y009464D01*
X000744Y009531D02*
X001356Y009531D01*
X001356Y009598D02*
X000744Y009598D01*
X000744Y009665D02*
X001356Y009665D01*
X001356Y009732D02*
X000744Y009732D01*
X000744Y009799D02*
X001356Y009799D01*
X001356Y009866D02*
X000744Y009866D01*
X000744Y009933D02*
X001356Y009933D01*
X000744Y009142D02*
X000744Y008530D01*
X000744Y009142D02*
X001356Y009142D01*
X001356Y008530D01*
X000744Y008530D01*
X000744Y008597D02*
X001356Y008597D01*
X001356Y008664D02*
X000744Y008664D01*
X000744Y008731D02*
X001356Y008731D01*
X001356Y008798D02*
X000744Y008798D01*
X000744Y008865D02*
X001356Y008865D01*
X001356Y008932D02*
X000744Y008932D01*
X000744Y008999D02*
X001356Y008999D01*
X001356Y009066D02*
X000744Y009066D01*
X000744Y009133D02*
X001356Y009133D01*
D41*
X002110Y008306D03*
X002110Y008206D03*
X001150Y007856D03*
X000950Y007856D03*
X002110Y010166D03*
X002110Y010266D03*
X001150Y010616D03*
X000950Y010616D03*
D42*
X013415Y005411D03*
X017180Y005411D03*
D43*
X015717Y005411D03*
X011952Y005411D03*
D44*
X012265Y006224D03*
X012765Y006224D03*
X013265Y006224D03*
X013265Y004598D03*
X012765Y004598D03*
X012265Y004598D03*
X016030Y004598D03*
X016530Y004598D03*
X017030Y004598D03*
X017030Y006224D03*
X016530Y006224D03*
X016030Y006224D03*
D45*
X018540Y003161D03*
D46*
X018940Y021461D03*
X019540Y021461D03*
X019540Y022361D03*
X018940Y022361D03*
D47*
X019240Y022361D03*
X019240Y021461D03*
D48*
X020615Y021461D03*
X020615Y020461D03*
X020615Y019461D03*
X020615Y018461D03*
X020615Y017461D03*
X020615Y016461D03*
X020615Y015461D03*
X020615Y014461D03*
X020615Y013461D03*
X020615Y012461D03*
X020615Y011461D03*
X021615Y011461D03*
X021615Y012461D03*
X021615Y013461D03*
X021615Y014461D03*
X021615Y015461D03*
X021615Y016461D03*
X021615Y017461D03*
X021615Y018461D03*
X021615Y019461D03*
X021615Y020461D03*
X021615Y021461D03*
X021615Y022461D03*
X021615Y023461D03*
X020615Y023461D03*
X020615Y022461D03*
X006065Y022461D03*
X006065Y021461D03*
X005065Y021461D03*
X004065Y021461D03*
X004065Y022461D03*
X005065Y022461D03*
X005065Y023461D03*
X004065Y023461D03*
X003065Y023461D03*
X003065Y022461D03*
X003065Y021461D03*
X002065Y021461D03*
X002065Y022461D03*
X002065Y023461D03*
X001065Y023461D03*
X001065Y022461D03*
X001065Y021461D03*
X006065Y023461D03*
D49*
X018640Y008986D03*
X018990Y008986D03*
X019340Y008986D03*
X019340Y008036D03*
X018990Y008036D03*
X018640Y008036D03*
D50*
X016048Y015212D03*
X016048Y015960D03*
X016048Y016537D03*
X016048Y017285D03*
X016048Y017887D03*
X016048Y018635D03*
X016048Y019237D03*
X016048Y019985D03*
X015182Y019611D03*
X015182Y018261D03*
X015182Y016911D03*
X015182Y015586D03*
D51*
X014300Y015586D03*
X013630Y015586D03*
X013630Y016911D03*
X014300Y016911D03*
X014300Y018261D03*
X013630Y018261D03*
X013630Y019611D03*
X014300Y019611D03*
X017005Y019611D03*
X017675Y019611D03*
X017675Y018261D03*
X017005Y018261D03*
X017005Y016911D03*
X017675Y016911D03*
X017675Y015586D03*
X017005Y015586D03*
D52*
X007185Y007916D03*
X007185Y007006D03*
X007185Y006096D03*
D53*
X009625Y007006D03*
D54*
X006075Y002811D03*
X005405Y002811D03*
X005690Y019991D03*
X005020Y019991D03*
D55*
X004425Y019986D03*
X004145Y019106D03*
X005695Y017586D03*
X006215Y017586D03*
X003015Y016486D03*
X001655Y015666D03*
X002365Y013686D03*
X005365Y010616D03*
X005765Y008766D03*
X005385Y007986D03*
X003075Y007116D03*
X002705Y007646D03*
X001540Y006911D03*
X006835Y004096D03*
X008375Y006096D03*
X008375Y007876D03*
X008095Y011796D03*
X010195Y012546D03*
X009655Y014426D03*
X009245Y014806D03*
X010790Y014861D03*
X012915Y015786D03*
X014805Y014836D03*
X016755Y014806D03*
X016755Y016276D03*
X016755Y017626D03*
X016755Y018986D03*
X016765Y020486D03*
X018545Y020826D03*
X019355Y019266D03*
X019305Y017996D03*
X019065Y017266D03*
X018845Y016806D03*
X018595Y016346D03*
X018825Y014366D03*
X020695Y010576D03*
X020190Y010111D03*
X019590Y009636D03*
X018990Y007486D03*
X017025Y006976D03*
X016845Y008366D03*
X016865Y008996D03*
X013275Y006996D03*
X014305Y017596D03*
X014805Y021516D03*
X010215Y020726D03*
X009365Y018936D03*
D56*
X004065Y005936D03*
D57*
X005785Y012046D03*
X007165Y012046D03*
X010585Y007026D03*
D58*
X013185Y010106D03*
X013675Y010746D03*
X014855Y011856D03*
X015225Y012386D03*
X016665Y012861D03*
X017215Y013236D03*
X017865Y012861D03*
X018390Y013211D03*
X018385Y013976D03*
X017795Y014946D03*
X018415Y012381D03*
X017405Y012276D03*
X017385Y010891D03*
X016890Y010186D03*
X016190Y010586D03*
X015340Y010161D03*
X014825Y008366D03*
X013965Y007806D03*
X014765Y007506D03*
X015355Y007306D03*
X014905Y005916D03*
X015005Y004636D03*
X014145Y004636D03*
X017890Y010186D03*
X018440Y010586D03*
X013245Y012896D03*
X011255Y011726D03*
X011715Y010606D03*
X008915Y015576D03*
X008335Y016596D03*
X008515Y017046D03*
X008690Y017481D03*
X008840Y018231D03*
X007295Y016286D03*
X007265Y016286D03*
X006245Y015636D03*
X005825Y015286D03*
X003855Y014676D03*
X003845Y013976D03*
D59*
X008315Y023036D03*
X008315Y003986D03*
M02*
