G75*
G70*
%OFA0B0*%
%FSLAX24Y24*%
%IPPOS*%
%LPD*%
%AMOC8*
5,1,8,0,0,1.08239X$1,22.5*
%
%ADD10C,0.0050*%
%ADD11C,0.0160*%
%ADD12C,0.0070*%
%ADD13C,0.0080*%
%ADD14R,0.0160X0.0280*%
%ADD15C,0.0100*%
%ADD16C,0.0060*%
%ADD17R,0.0079X0.0079*%
%ADD18C,0.0028*%
%ADD19R,0.0276X0.0118*%
%ADD20R,0.0118X0.0276*%
%ADD21R,0.0620X0.0240*%
%ADD22C,0.0020*%
%ADD23C,0.0030*%
%ADD24R,0.0200X0.0200*%
%ADD25R,0.0180X0.0300*%
D10*
X000748Y003404D02*
X000748Y004183D01*
X000826Y004183D01*
X000826Y004970D01*
X000748Y004970D01*
X000748Y005748D01*
X001688Y005748D01*
X001688Y005847D01*
X002082Y005847D01*
X002082Y005748D01*
X003022Y005748D01*
X003022Y004970D01*
X002944Y004970D01*
X002944Y004183D01*
X003022Y004183D01*
X003022Y003404D01*
X000748Y003404D01*
X000748Y004183D02*
X000669Y004183D01*
X000669Y004970D01*
X000748Y004970D01*
X001413Y004576D02*
X001415Y004619D01*
X001421Y004661D01*
X001431Y004703D01*
X001444Y004744D01*
X001461Y004784D01*
X001482Y004821D01*
X001506Y004857D01*
X001533Y004890D01*
X001563Y004921D01*
X001596Y004949D01*
X001631Y004974D01*
X001668Y004995D01*
X001707Y005013D01*
X001747Y005027D01*
X001789Y005038D01*
X001831Y005045D01*
X001874Y005048D01*
X001917Y005047D01*
X001960Y005042D01*
X002002Y005033D01*
X002043Y005021D01*
X002083Y005005D01*
X002121Y004985D01*
X002157Y004962D01*
X002191Y004935D01*
X002223Y004906D01*
X002251Y004874D01*
X002277Y004839D01*
X002299Y004803D01*
X002318Y004764D01*
X002333Y004724D01*
X002345Y004683D01*
X002353Y004640D01*
X002357Y004597D01*
X002357Y004555D01*
X002353Y004512D01*
X002345Y004469D01*
X002333Y004428D01*
X002318Y004388D01*
X002299Y004349D01*
X002277Y004313D01*
X002251Y004278D01*
X002223Y004246D01*
X002191Y004217D01*
X002157Y004190D01*
X002121Y004167D01*
X002083Y004147D01*
X002043Y004131D01*
X002002Y004119D01*
X001960Y004110D01*
X001917Y004105D01*
X001874Y004104D01*
X001831Y004107D01*
X001789Y004114D01*
X001747Y004125D01*
X001707Y004139D01*
X001668Y004157D01*
X001631Y004178D01*
X001596Y004203D01*
X001563Y004231D01*
X001533Y004262D01*
X001506Y004295D01*
X001482Y004331D01*
X001461Y004368D01*
X001444Y004408D01*
X001431Y004449D01*
X001421Y004491D01*
X001415Y004533D01*
X001413Y004576D01*
X001294Y004576D02*
X001296Y004624D01*
X001302Y004672D01*
X001312Y004719D01*
X001325Y004765D01*
X001343Y004810D01*
X001363Y004854D01*
X001388Y004896D01*
X001416Y004935D01*
X001446Y004972D01*
X001480Y005006D01*
X001517Y005038D01*
X001555Y005067D01*
X001596Y005092D01*
X001639Y005114D01*
X001684Y005132D01*
X001730Y005146D01*
X001777Y005157D01*
X001825Y005164D01*
X001873Y005167D01*
X001921Y005166D01*
X001969Y005161D01*
X002017Y005152D01*
X002063Y005140D01*
X002108Y005123D01*
X002152Y005103D01*
X002194Y005080D01*
X002234Y005053D01*
X002272Y005023D01*
X002307Y004990D01*
X002339Y004954D01*
X002369Y004916D01*
X002395Y004875D01*
X002417Y004832D01*
X002437Y004788D01*
X002452Y004743D01*
X002464Y004696D01*
X002472Y004648D01*
X002476Y004600D01*
X002476Y004552D01*
X002472Y004504D01*
X002464Y004456D01*
X002452Y004409D01*
X002437Y004364D01*
X002417Y004320D01*
X002395Y004277D01*
X002369Y004236D01*
X002339Y004198D01*
X002307Y004162D01*
X002272Y004129D01*
X002234Y004099D01*
X002194Y004072D01*
X002152Y004049D01*
X002108Y004029D01*
X002063Y004012D01*
X002017Y004000D01*
X001969Y003991D01*
X001921Y003986D01*
X001873Y003985D01*
X001825Y003988D01*
X001777Y003995D01*
X001730Y004006D01*
X001684Y004020D01*
X001639Y004038D01*
X001596Y004060D01*
X001555Y004085D01*
X001517Y004114D01*
X001480Y004146D01*
X001446Y004180D01*
X001416Y004217D01*
X001388Y004256D01*
X001363Y004298D01*
X001343Y004342D01*
X001325Y004387D01*
X001312Y004433D01*
X001302Y004480D01*
X001296Y004528D01*
X001294Y004576D01*
X003022Y004183D02*
X003101Y004183D01*
X003101Y004970D01*
X003022Y004970D01*
X003436Y003793D02*
X003320Y003676D01*
X003436Y003560D01*
X003670Y003560D01*
X003612Y003425D02*
X003378Y003425D01*
X003320Y003367D01*
X003320Y003191D01*
X003670Y003191D01*
X003670Y003367D01*
X003612Y003425D01*
X003495Y003560D02*
X003495Y003793D01*
X003436Y003793D02*
X003670Y003793D01*
X005400Y003612D02*
X005400Y003261D01*
X005400Y003378D02*
X005575Y003378D01*
X005634Y003437D01*
X005634Y003553D01*
X005575Y003612D01*
X005400Y003612D01*
X005517Y003378D02*
X005634Y003261D01*
X005768Y003261D02*
X005768Y003495D01*
X005885Y003612D01*
X006002Y003495D01*
X006002Y003261D01*
X006002Y003437D02*
X005768Y003437D01*
X006118Y004391D02*
X006060Y004450D01*
X006060Y004683D01*
X006118Y004742D01*
X006235Y004742D01*
X006294Y004683D01*
X006428Y004742D02*
X006603Y004742D01*
X006662Y004683D01*
X006662Y004450D01*
X006603Y004391D01*
X006428Y004391D01*
X006428Y004742D01*
X006294Y004450D02*
X006235Y004391D01*
X006118Y004391D01*
X007270Y003398D02*
X007270Y003223D01*
X007620Y003223D01*
X007620Y003398D01*
X007562Y003457D01*
X007328Y003457D01*
X007270Y003398D01*
X007328Y003088D02*
X007270Y003030D01*
X007270Y002913D01*
X007328Y002855D01*
X007562Y002855D01*
X007620Y002913D01*
X007620Y003030D01*
X007562Y003088D01*
X009820Y002333D02*
X010053Y002100D01*
X009995Y002158D02*
X010170Y002333D01*
X010170Y002100D02*
X009820Y002100D01*
X009878Y001965D02*
X010112Y001732D01*
X010170Y001790D01*
X010170Y001907D01*
X010112Y001965D01*
X009878Y001965D01*
X009820Y001907D01*
X009820Y001790D01*
X009878Y001732D01*
X010112Y001732D01*
X010170Y001597D02*
X010170Y001363D01*
X010170Y001480D02*
X009820Y001480D01*
X009936Y001363D01*
X009995Y001228D02*
X009995Y000995D01*
X009995Y000860D02*
X009995Y000627D01*
X009936Y000627D02*
X009820Y000743D01*
X009936Y000860D01*
X010170Y000860D01*
X010170Y000627D02*
X009936Y000627D01*
X009878Y000492D02*
X009995Y000492D01*
X010053Y000433D01*
X010053Y000258D01*
X010170Y000258D02*
X009820Y000258D01*
X009820Y000433D01*
X009878Y000492D01*
X010053Y000375D02*
X010170Y000492D01*
X013513Y006238D02*
X013515Y006256D01*
X013521Y006272D01*
X013530Y006287D01*
X013543Y006300D01*
X013558Y006309D01*
X013574Y006315D01*
X013592Y006317D01*
X013610Y006315D01*
X013626Y006309D01*
X013641Y006300D01*
X013654Y006287D01*
X013663Y006272D01*
X013669Y006256D01*
X013671Y006238D01*
X013669Y006220D01*
X013663Y006204D01*
X013654Y006189D01*
X013641Y006176D01*
X013626Y006167D01*
X013610Y006161D01*
X013592Y006159D01*
X013574Y006161D01*
X013558Y006167D01*
X013543Y006176D01*
X013530Y006189D01*
X013521Y006204D01*
X013515Y006220D01*
X013513Y006238D01*
X015033Y006850D02*
X015092Y006791D01*
X015209Y006791D01*
X015267Y006850D01*
X015402Y006791D02*
X015577Y006791D01*
X015635Y006850D01*
X015635Y007083D01*
X015577Y007142D01*
X015402Y007142D01*
X015402Y006791D01*
X015267Y007083D02*
X015209Y007142D01*
X015092Y007142D01*
X015033Y007083D01*
X015033Y006850D01*
X013514Y008051D02*
X013280Y008402D01*
X013514Y008402D02*
X013280Y008051D01*
X014017Y008531D02*
X014017Y008707D01*
X014134Y008823D01*
X014134Y008882D01*
X014017Y008707D02*
X013900Y008823D01*
X013900Y008882D01*
X013953Y009941D02*
X013778Y009941D01*
X013778Y010292D01*
X013953Y010292D01*
X014012Y010233D01*
X014012Y010000D01*
X013953Y009941D01*
X013644Y010000D02*
X013585Y009941D01*
X013468Y009941D01*
X013410Y010000D01*
X013410Y010233D01*
X013468Y010292D01*
X013585Y010292D01*
X013644Y010233D01*
X014128Y011791D02*
X014362Y011791D01*
X014420Y011850D01*
X014420Y011967D01*
X014362Y012025D01*
X014420Y012160D02*
X014420Y012393D01*
X014245Y012276D02*
X014245Y012160D01*
X014070Y012160D02*
X014420Y012160D01*
X014128Y012025D02*
X014070Y011967D01*
X014070Y011850D01*
X014128Y011791D01*
X014070Y012160D02*
X014070Y012393D01*
X015198Y010903D02*
X015140Y010845D01*
X015140Y010670D01*
X015490Y010670D01*
X015490Y010845D01*
X015432Y010903D01*
X015198Y010903D01*
X015198Y010535D02*
X015140Y010477D01*
X015140Y010360D01*
X015198Y010301D01*
X015432Y010301D01*
X015490Y010360D01*
X015490Y010477D01*
X015432Y010535D01*
X017520Y012390D02*
X017578Y012331D01*
X017520Y012390D02*
X017520Y012507D01*
X017578Y012565D01*
X017636Y012565D01*
X017870Y012331D01*
X017870Y012565D01*
X017870Y012700D02*
X017636Y012933D01*
X017578Y012933D01*
X017520Y012875D01*
X017520Y012758D01*
X017578Y012700D01*
X017870Y012700D02*
X017870Y012933D01*
X017812Y013068D02*
X017578Y013302D01*
X017812Y013302D01*
X017870Y013243D01*
X017870Y013126D01*
X017812Y013068D01*
X017578Y013068D01*
X017520Y013126D01*
X017520Y013243D01*
X017578Y013302D01*
X017636Y013436D02*
X017636Y013611D01*
X017695Y013670D01*
X017870Y013670D01*
X017870Y013805D02*
X017520Y013805D01*
X017520Y014038D01*
X017695Y013921D02*
X017695Y013805D01*
X017636Y013436D02*
X017870Y013436D01*
X017712Y014781D02*
X017712Y015015D01*
X017595Y015132D01*
X017478Y015015D01*
X017478Y014781D01*
X017344Y014781D02*
X017227Y014898D01*
X017285Y014898D02*
X017110Y014898D01*
X017110Y014781D02*
X017110Y015132D01*
X017285Y015132D01*
X017344Y015073D01*
X017344Y014957D01*
X017285Y014898D01*
X017478Y014957D02*
X017712Y014957D01*
X017722Y016121D02*
X017722Y016355D01*
X017605Y016472D01*
X017488Y016355D01*
X017488Y016121D01*
X017354Y016121D02*
X017237Y016238D01*
X017295Y016238D02*
X017120Y016238D01*
X017120Y016121D02*
X017120Y016472D01*
X017295Y016472D01*
X017354Y016413D01*
X017354Y016297D01*
X017295Y016238D01*
X017488Y016297D02*
X017722Y016297D01*
X017722Y017471D02*
X017722Y017705D01*
X017605Y017822D01*
X017488Y017705D01*
X017488Y017471D01*
X017354Y017471D02*
X017237Y017588D01*
X017295Y017588D02*
X017120Y017588D01*
X017120Y017471D02*
X017120Y017822D01*
X017295Y017822D01*
X017354Y017763D01*
X017354Y017647D01*
X017295Y017588D01*
X017488Y017647D02*
X017722Y017647D01*
X017692Y018821D02*
X017692Y019055D01*
X017575Y019172D01*
X017458Y019055D01*
X017458Y018821D01*
X017324Y018821D02*
X017207Y018938D01*
X017265Y018938D02*
X017090Y018938D01*
X017090Y018821D02*
X017090Y019172D01*
X017265Y019172D01*
X017324Y019113D01*
X017324Y018997D01*
X017265Y018938D01*
X017458Y018997D02*
X017692Y018997D01*
X018510Y020211D02*
X018510Y020562D01*
X018685Y020562D01*
X018744Y020503D01*
X018744Y020387D01*
X018685Y020328D01*
X018510Y020328D01*
X018627Y020328D02*
X018744Y020211D01*
X018878Y020211D02*
X018878Y020445D01*
X018995Y020562D01*
X019112Y020445D01*
X019112Y020211D01*
X019112Y020387D02*
X018878Y020387D01*
X017152Y020851D02*
X017152Y021085D01*
X017035Y021202D01*
X016918Y021085D01*
X016918Y020851D01*
X016784Y020851D02*
X016667Y020968D01*
X016725Y020968D02*
X016550Y020968D01*
X016550Y020851D02*
X016550Y021202D01*
X016725Y021202D01*
X016784Y021143D01*
X016784Y021027D01*
X016725Y020968D01*
X016918Y021027D02*
X017152Y021027D01*
X014312Y020295D02*
X014312Y020061D01*
X014312Y020237D02*
X014078Y020237D01*
X014078Y020295D02*
X014195Y020412D01*
X014312Y020295D01*
X014078Y020295D02*
X014078Y020061D01*
X013944Y020061D02*
X013827Y020178D01*
X013885Y020178D02*
X013710Y020178D01*
X013710Y020061D02*
X013710Y020412D01*
X013885Y020412D01*
X013944Y020353D01*
X013944Y020237D01*
X013885Y020178D01*
X013875Y019082D02*
X013700Y019082D01*
X013700Y018731D01*
X013700Y018848D02*
X013875Y018848D01*
X013934Y018907D01*
X013934Y019023D01*
X013875Y019082D01*
X014068Y018965D02*
X014185Y019082D01*
X014302Y018965D01*
X014302Y018731D01*
X014302Y018907D02*
X014068Y018907D01*
X014068Y018965D02*
X014068Y018731D01*
X013934Y018731D02*
X013817Y018848D01*
X013215Y017762D02*
X012982Y017762D01*
X012982Y017411D01*
X012847Y017470D02*
X012789Y017411D01*
X012672Y017411D01*
X012613Y017470D01*
X012613Y017703D01*
X012672Y017762D01*
X012789Y017762D01*
X012847Y017703D01*
X012982Y017587D02*
X013098Y017587D01*
X012432Y016866D02*
X012432Y015606D01*
X011448Y015606D01*
X011448Y016866D01*
X012432Y016866D01*
X013690Y016442D02*
X013690Y016091D01*
X013690Y016208D02*
X013865Y016208D01*
X013924Y016267D01*
X013924Y016383D01*
X013865Y016442D01*
X013690Y016442D01*
X013807Y016208D02*
X013924Y016091D01*
X014058Y016091D02*
X014058Y016325D01*
X014175Y016442D01*
X014292Y016325D01*
X014292Y016091D01*
X014292Y016267D02*
X014058Y016267D01*
X014185Y015132D02*
X014302Y015015D01*
X014302Y014781D01*
X014302Y014957D02*
X014068Y014957D01*
X014068Y015015D02*
X014185Y015132D01*
X014068Y015015D02*
X014068Y014781D01*
X013934Y014781D02*
X013817Y014898D01*
X013875Y014898D02*
X013700Y014898D01*
X013700Y014781D02*
X013700Y015132D01*
X013875Y015132D01*
X013934Y015073D01*
X013934Y014957D01*
X013875Y014898D01*
X013205Y015022D02*
X012972Y015022D01*
X012972Y014671D01*
X012837Y014730D02*
X012779Y014671D01*
X012662Y014671D01*
X012603Y014730D01*
X012603Y014963D01*
X012662Y015022D01*
X012779Y015022D01*
X012837Y014963D01*
X012972Y014847D02*
X013088Y014847D01*
X010910Y012943D02*
X010560Y012943D01*
X010560Y013177D01*
X010735Y013060D02*
X010735Y012943D01*
X010735Y012808D02*
X010910Y012808D01*
X010735Y012808D02*
X010676Y012750D01*
X010676Y012575D01*
X010910Y012575D01*
X010852Y012440D02*
X010910Y012382D01*
X010910Y012265D01*
X010852Y012206D01*
X010618Y012440D01*
X010852Y012440D01*
X010852Y012206D02*
X010618Y012206D01*
X010560Y012265D01*
X010560Y012382D01*
X010618Y012440D01*
X010910Y012072D02*
X010910Y011838D01*
X010910Y011955D02*
X010560Y011955D01*
X010676Y011838D01*
X010190Y011738D02*
X009840Y011738D01*
X009840Y011621D02*
X009840Y011855D01*
X009840Y011990D02*
X010190Y012223D01*
X010190Y011990D02*
X009840Y012223D01*
X009540Y012243D02*
X009190Y012010D01*
X009248Y011875D02*
X009190Y011817D01*
X009190Y011641D01*
X009540Y011641D01*
X009423Y011641D02*
X009423Y011817D01*
X009365Y011875D01*
X009248Y011875D01*
X009423Y011758D02*
X009540Y011875D01*
X009540Y012010D02*
X009190Y012243D01*
X008900Y012253D02*
X008900Y012020D01*
X008900Y012136D02*
X008550Y012136D01*
X008666Y012020D01*
X008608Y011885D02*
X008550Y011827D01*
X008550Y011651D01*
X008900Y011651D01*
X008900Y011827D01*
X008842Y011885D01*
X008608Y011885D01*
X008608Y012388D02*
X008550Y012446D01*
X008550Y012563D01*
X008608Y012622D01*
X008666Y012622D01*
X008725Y012563D01*
X008783Y012622D01*
X008842Y012622D01*
X008900Y012563D01*
X008900Y012446D01*
X008842Y012388D01*
X008725Y012505D02*
X008725Y012563D01*
X007700Y011402D02*
X007583Y011285D01*
X007583Y011343D02*
X007583Y011168D01*
X007700Y011168D02*
X007350Y011168D01*
X007350Y011343D01*
X007408Y011402D01*
X007525Y011402D01*
X007583Y011343D01*
X007700Y011033D02*
X007350Y011033D01*
X007350Y010800D02*
X007700Y010800D01*
X007583Y010916D01*
X007700Y011033D01*
X007525Y010665D02*
X007408Y010665D01*
X007350Y010607D01*
X007350Y010431D01*
X007700Y010431D01*
X007583Y010431D02*
X007583Y010607D01*
X007525Y010665D01*
X006812Y009313D02*
X006870Y009255D01*
X006870Y009080D01*
X006520Y009080D01*
X006520Y009255D01*
X006578Y009313D01*
X006636Y009313D01*
X006695Y009255D01*
X006695Y009080D01*
X006695Y009255D02*
X006753Y009313D01*
X006812Y009313D01*
X006812Y008945D02*
X006870Y008887D01*
X006870Y008770D01*
X006812Y008711D01*
X006578Y008711D01*
X006520Y008770D01*
X006520Y008887D01*
X006578Y008945D01*
X005200Y008995D02*
X004850Y008995D01*
X004850Y009170D01*
X004908Y009228D01*
X005025Y009228D01*
X005083Y009170D01*
X005083Y008995D01*
X005083Y009112D02*
X005200Y009228D01*
X005142Y009363D02*
X005200Y009421D01*
X005200Y009538D01*
X005142Y009597D01*
X004908Y009597D02*
X004850Y009538D01*
X004850Y009421D01*
X004908Y009363D01*
X005142Y009363D01*
X003685Y010451D02*
X003685Y010685D01*
X003568Y010802D01*
X003452Y010685D01*
X003452Y010451D01*
X003317Y010451D02*
X003083Y010451D01*
X003083Y010510D01*
X003317Y010743D01*
X003317Y010802D01*
X003083Y010802D01*
X003452Y010627D02*
X003685Y010627D01*
X002270Y011368D02*
X001920Y011368D01*
X001920Y011602D01*
X001920Y011736D02*
X002212Y011736D01*
X002270Y011795D01*
X002270Y011912D01*
X002212Y011970D01*
X001920Y011970D01*
X001978Y012105D02*
X002036Y012105D01*
X002095Y012163D01*
X002095Y012280D01*
X002153Y012338D01*
X002212Y012338D01*
X002270Y012280D01*
X002270Y012163D01*
X002212Y012105D01*
X001978Y012105D02*
X001920Y012163D01*
X001920Y012280D01*
X001978Y012338D01*
X001920Y012473D02*
X002270Y012473D01*
X002270Y012707D01*
X002095Y012590D02*
X002095Y012473D01*
X001920Y012473D02*
X001920Y012707D01*
X002095Y011485D02*
X002095Y011368D01*
X003168Y013011D02*
X003110Y013070D01*
X003110Y013187D01*
X003168Y013245D01*
X003168Y013380D02*
X003402Y013380D01*
X003460Y013438D01*
X003460Y013555D01*
X003402Y013613D01*
X003168Y013613D02*
X003110Y013555D01*
X003110Y013438D01*
X003168Y013380D01*
X003402Y013245D02*
X003460Y013187D01*
X003460Y013070D01*
X003402Y013011D01*
X003168Y013011D01*
X004435Y013405D02*
X004435Y014389D01*
X004770Y014116D02*
X004886Y014000D01*
X005120Y014000D01*
X005120Y013865D02*
X005120Y013631D01*
X004770Y013631D01*
X004945Y014000D02*
X004945Y014233D01*
X004886Y014233D02*
X005120Y014233D01*
X004886Y014233D02*
X004770Y014116D01*
X003957Y015721D02*
X003782Y015721D01*
X003782Y016072D01*
X003957Y016072D01*
X004015Y016013D01*
X004015Y015780D01*
X003957Y015721D01*
X003647Y015780D02*
X003589Y015721D01*
X003472Y015721D01*
X003413Y015780D01*
X003413Y016013D01*
X003472Y016072D01*
X003589Y016072D01*
X003647Y016013D01*
X004880Y019161D02*
X004880Y019512D01*
X005055Y019512D01*
X005114Y019453D01*
X005114Y019337D01*
X005055Y019278D01*
X004880Y019278D01*
X004997Y019278D02*
X005114Y019161D01*
X005248Y019161D02*
X005248Y019395D01*
X005365Y019512D01*
X005482Y019395D01*
X005482Y019161D01*
X005482Y019337D02*
X005248Y019337D01*
X009793Y019790D02*
X009852Y019731D01*
X009969Y019731D01*
X010027Y019790D01*
X010162Y019790D02*
X010162Y020023D01*
X010220Y020082D01*
X010337Y020082D01*
X010395Y020023D01*
X010395Y019790D02*
X010337Y019731D01*
X010220Y019731D01*
X010162Y019790D01*
X010027Y020023D02*
X009969Y020082D01*
X009852Y020082D01*
X009793Y020023D01*
X009793Y019790D01*
X010430Y017923D02*
X010780Y017923D01*
X010780Y017690D02*
X010430Y017690D01*
X010546Y017806D01*
X010430Y017923D01*
X010780Y017555D02*
X010780Y017321D01*
X010780Y017438D02*
X010430Y017438D01*
X010546Y017321D01*
X011138Y010073D02*
X011080Y010015D01*
X011080Y009840D01*
X011430Y009840D01*
X011430Y010015D01*
X011372Y010073D01*
X011138Y010073D01*
X011138Y009705D02*
X011080Y009647D01*
X011080Y009530D01*
X011138Y009471D01*
X011372Y009471D01*
X011430Y009530D01*
X011430Y009647D01*
X011372Y009705D01*
X010432Y009653D02*
X010432Y009595D01*
X010373Y009537D01*
X010198Y009537D01*
X010064Y009537D02*
X010005Y009478D01*
X009830Y009478D01*
X009830Y009361D02*
X009830Y009712D01*
X010005Y009712D01*
X010064Y009653D01*
X010064Y009537D01*
X009947Y009478D02*
X010064Y009361D01*
X010198Y009361D02*
X010198Y009712D01*
X010373Y009712D01*
X010432Y009653D01*
X010373Y009537D02*
X010432Y009478D01*
X010432Y009420D01*
X010373Y009361D01*
X010198Y009361D01*
X010183Y008403D02*
X010242Y008403D01*
X010300Y008345D01*
X010300Y008170D01*
X009950Y008170D01*
X009950Y008345D01*
X010008Y008403D01*
X010066Y008403D01*
X010125Y008345D01*
X010125Y008170D01*
X010125Y008345D02*
X010183Y008403D01*
X010242Y008035D02*
X010300Y007977D01*
X010300Y007860D01*
X010242Y007801D01*
X010008Y007801D01*
X009950Y007860D01*
X009950Y007977D01*
X010008Y008035D01*
X011243Y007083D02*
X011243Y006850D01*
X011302Y006791D01*
X011419Y006791D01*
X011477Y006850D01*
X011612Y006791D02*
X011787Y006791D01*
X011845Y006850D01*
X011845Y007083D01*
X011787Y007142D01*
X011612Y007142D01*
X011612Y006791D01*
X011477Y007083D02*
X011419Y007142D01*
X011302Y007142D01*
X011243Y007083D01*
X011528Y007781D02*
X011762Y007781D01*
X011820Y007840D01*
X011820Y007957D01*
X011762Y008015D01*
X011820Y008150D02*
X011470Y008150D01*
X011470Y008325D01*
X011528Y008383D01*
X011762Y008383D01*
X011820Y008325D01*
X011820Y008150D01*
X011528Y008015D02*
X011470Y007957D01*
X011470Y007840D01*
X011528Y007781D01*
X005652Y006835D02*
X005652Y006601D01*
X005652Y006777D02*
X005418Y006777D01*
X005418Y006835D02*
X005418Y006601D01*
X005284Y006660D02*
X005225Y006601D01*
X005108Y006601D01*
X005050Y006660D01*
X005050Y006893D01*
X005108Y006952D01*
X005225Y006952D01*
X005284Y006893D01*
X005418Y006835D02*
X005535Y006952D01*
X005652Y006835D01*
X004837Y007261D02*
X003853Y007261D01*
X004070Y006892D02*
X004070Y006541D01*
X004304Y006541D01*
X004438Y006541D02*
X004438Y006775D01*
X004555Y006892D01*
X004672Y006775D01*
X004672Y006541D01*
X004672Y006717D02*
X004438Y006717D01*
X003705Y007811D02*
X003705Y008045D01*
X003588Y008162D01*
X003472Y008045D01*
X003472Y007811D01*
X003337Y007811D02*
X003103Y007811D01*
X003103Y007870D01*
X003337Y008103D01*
X003337Y008162D01*
X003103Y008162D01*
X003472Y007987D02*
X003705Y007987D01*
X017278Y006238D02*
X017280Y006256D01*
X017286Y006272D01*
X017295Y006287D01*
X017308Y006300D01*
X017323Y006309D01*
X017339Y006315D01*
X017357Y006317D01*
X017375Y006315D01*
X017391Y006309D01*
X017406Y006300D01*
X017419Y006287D01*
X017428Y006272D01*
X017434Y006256D01*
X017436Y006238D01*
X017434Y006220D01*
X017428Y006204D01*
X017419Y006189D01*
X017406Y006176D01*
X017391Y006167D01*
X017375Y006161D01*
X017357Y006159D01*
X017339Y006161D01*
X017323Y006167D01*
X017308Y006176D01*
X017295Y006189D01*
X017286Y006204D01*
X017280Y006220D01*
X017278Y006238D01*
X017758Y007825D02*
X017700Y007883D01*
X017700Y008000D01*
X017758Y008058D01*
X017700Y008193D02*
X017700Y008368D01*
X017758Y008427D01*
X017992Y008427D01*
X018050Y008368D01*
X018050Y008193D01*
X017700Y008193D01*
X017758Y007825D02*
X017992Y007825D01*
X018050Y007883D01*
X018050Y008000D01*
X017992Y008058D01*
X017972Y009045D02*
X017738Y009045D01*
X017680Y009103D01*
X017680Y009220D01*
X017738Y009278D01*
X017680Y009413D02*
X017680Y009588D01*
X017738Y009647D01*
X017972Y009647D01*
X018030Y009588D01*
X018030Y009413D01*
X017680Y009413D01*
X017972Y009278D02*
X018030Y009220D01*
X018030Y009103D01*
X017972Y009045D01*
X018198Y010291D02*
X018140Y010350D01*
X018140Y010467D01*
X018198Y010525D01*
X018140Y010660D02*
X018140Y010835D01*
X018198Y010893D01*
X018256Y010893D01*
X018315Y010835D01*
X018315Y010660D01*
X018315Y010835D02*
X018373Y010893D01*
X018432Y010893D01*
X018490Y010835D01*
X018490Y010660D01*
X018140Y010660D01*
X018198Y010291D02*
X018432Y010291D01*
X018490Y010350D01*
X018490Y010467D01*
X018432Y010525D01*
X020910Y006345D02*
X020910Y006111D01*
X021260Y006111D01*
X021260Y005976D02*
X021026Y005976D01*
X021085Y006111D02*
X021085Y006228D01*
X021260Y005976D02*
X021260Y005801D01*
X021202Y005743D01*
X021026Y005743D01*
X020968Y005608D02*
X021202Y005375D01*
X021260Y005433D01*
X021260Y005550D01*
X021202Y005608D01*
X020968Y005608D01*
X020910Y005550D01*
X020910Y005433D01*
X020968Y005375D01*
X021202Y005375D01*
X021260Y005240D02*
X021260Y005006D01*
X021260Y005123D02*
X020910Y005123D01*
X021026Y005006D01*
X021085Y004872D02*
X021085Y004638D01*
X021085Y004503D02*
X021085Y004270D01*
X021026Y004270D02*
X020910Y004386D01*
X021026Y004503D01*
X021260Y004503D01*
X021260Y004270D02*
X021026Y004270D01*
X020968Y004135D02*
X020910Y004077D01*
X020910Y003960D01*
X020968Y003901D01*
X021202Y003901D01*
X021260Y003960D01*
X021260Y004077D01*
X021202Y004135D01*
D11*
X017392Y008106D02*
X017368Y008106D01*
X017392Y009366D02*
X017368Y009366D01*
X017713Y011556D02*
X017737Y011556D01*
X018403Y011576D02*
X018427Y011576D01*
X015332Y011601D02*
X015308Y011601D01*
X014267Y011096D02*
X014243Y011096D01*
X014315Y009266D02*
X014565Y009046D01*
X014335Y008836D01*
X014565Y009046D02*
X013065Y009046D01*
X013065Y007596D01*
X013305Y007836D01*
X013065Y007596D02*
X012835Y007836D01*
X012525Y007003D02*
X012525Y006979D01*
X011167Y008096D02*
X011143Y008096D01*
X010597Y008096D02*
X010573Y008096D01*
X012510Y010089D02*
X012510Y010113D01*
X012999Y009036D02*
X013001Y009053D01*
X013007Y009069D01*
X013016Y009083D01*
X013028Y009095D01*
X013042Y009104D01*
X013058Y009110D01*
X013075Y009112D01*
X013092Y009110D01*
X013108Y009104D01*
X013122Y009095D01*
X013134Y009083D01*
X013143Y009069D01*
X013149Y009053D01*
X013151Y009036D01*
X013149Y009019D01*
X013143Y009003D01*
X013134Y008989D01*
X013122Y008977D01*
X013108Y008968D01*
X013092Y008962D01*
X013075Y008960D01*
X013058Y008962D01*
X013042Y008968D01*
X013028Y008977D01*
X013016Y008989D01*
X013007Y009003D01*
X013001Y009019D01*
X012999Y009036D01*
X012716Y009036D02*
X012718Y009074D01*
X012724Y009111D01*
X012733Y009148D01*
X012747Y009184D01*
X012764Y009218D01*
X012784Y009250D01*
X012808Y009280D01*
X012834Y009307D01*
X012864Y009331D01*
X012895Y009352D01*
X012929Y009370D01*
X012964Y009385D01*
X013000Y009395D01*
X013038Y009402D01*
X013075Y009405D01*
X013113Y009404D01*
X013151Y009399D01*
X013188Y009390D01*
X013224Y009378D01*
X013258Y009362D01*
X013291Y009342D01*
X013321Y009319D01*
X013349Y009294D01*
X013374Y009265D01*
X013396Y009234D01*
X013415Y009201D01*
X013430Y009166D01*
X013442Y009130D01*
X013450Y009093D01*
X013454Y009055D01*
X013454Y009017D01*
X013450Y008979D01*
X013442Y008942D01*
X013430Y008906D01*
X013415Y008871D01*
X013396Y008838D01*
X013374Y008807D01*
X013349Y008778D01*
X013321Y008753D01*
X013291Y008730D01*
X013258Y008710D01*
X013224Y008694D01*
X013188Y008682D01*
X013151Y008673D01*
X013113Y008668D01*
X013075Y008667D01*
X013038Y008670D01*
X013000Y008677D01*
X012964Y008687D01*
X012929Y008702D01*
X012895Y008720D01*
X012864Y008741D01*
X012834Y008765D01*
X012808Y008792D01*
X012784Y008822D01*
X012764Y008854D01*
X012747Y008888D01*
X012733Y008924D01*
X012724Y008961D01*
X012718Y008998D01*
X012716Y009036D01*
X011262Y010846D02*
X011238Y010846D01*
X011262Y012391D02*
X011238Y012391D01*
X016285Y006973D02*
X016285Y006949D01*
X006242Y009016D02*
X006218Y009016D01*
D12*
X003270Y017261D02*
X003270Y017425D01*
X003270Y017343D02*
X002780Y017343D01*
X002780Y017261D02*
X002780Y017425D01*
X002861Y017605D02*
X003188Y017605D01*
X003270Y017687D01*
X003270Y017850D01*
X003188Y017932D01*
X003188Y018121D02*
X003270Y018203D01*
X003270Y018366D01*
X003188Y018448D01*
X003107Y018448D01*
X003025Y018366D01*
X003025Y018203D01*
X002943Y018121D01*
X002861Y018121D01*
X002780Y018203D01*
X002780Y018366D01*
X002861Y018448D01*
X002780Y018636D02*
X002780Y018882D01*
X002861Y018963D01*
X003025Y018963D01*
X003107Y018882D01*
X003107Y018636D01*
X003270Y018636D02*
X002780Y018636D01*
X002861Y017932D02*
X002780Y017850D01*
X002780Y017687D01*
X002861Y017605D01*
X002850Y020321D02*
X002850Y020648D01*
X003013Y020812D01*
X003177Y020648D01*
X003177Y020321D01*
X003366Y020403D02*
X003447Y020321D01*
X003611Y020321D01*
X003693Y020403D01*
X003693Y020812D01*
X003881Y020812D02*
X004208Y020321D01*
X003881Y020321D02*
X004208Y020812D01*
X003366Y020812D02*
X003366Y020403D01*
X003177Y020567D02*
X002850Y020567D01*
X007260Y021571D02*
X007260Y022062D01*
X007505Y022062D01*
X007587Y021980D01*
X007587Y021817D01*
X007505Y021735D01*
X007260Y021735D01*
X007776Y021735D02*
X008103Y021735D01*
X008103Y021817D01*
X008021Y021898D01*
X007857Y021898D01*
X007776Y021817D01*
X007776Y021653D01*
X007857Y021571D01*
X008021Y021571D01*
X008291Y021571D02*
X008291Y021898D01*
X008291Y021735D02*
X008455Y021898D01*
X008536Y021898D01*
X008721Y021817D02*
X008721Y021653D01*
X008803Y021571D01*
X008966Y021571D01*
X009048Y021735D02*
X008721Y021735D01*
X008721Y021817D02*
X008803Y021898D01*
X008966Y021898D01*
X009048Y021817D01*
X009048Y021735D01*
X009237Y021817D02*
X009237Y021653D01*
X009318Y021571D01*
X009564Y021571D01*
X009564Y021490D02*
X009564Y021898D01*
X009318Y021898D01*
X009237Y021817D01*
X009564Y021490D02*
X009482Y021408D01*
X009400Y021408D01*
X009752Y021571D02*
X009752Y021898D01*
X009752Y021735D02*
X009916Y021898D01*
X009997Y021898D01*
X010182Y021898D02*
X010264Y021898D01*
X010264Y021571D01*
X010345Y021571D02*
X010182Y021571D01*
X010526Y021571D02*
X010526Y021898D01*
X010771Y021898D01*
X010853Y021817D01*
X010853Y021571D01*
X011041Y021653D02*
X011041Y021817D01*
X011123Y021898D01*
X011287Y021898D01*
X011368Y021817D01*
X011368Y021735D01*
X011041Y021735D01*
X011041Y021653D02*
X011123Y021571D01*
X011287Y021571D01*
X011191Y021148D02*
X011273Y021067D01*
X011273Y020985D01*
X010946Y020985D01*
X010946Y021067D02*
X011027Y021148D01*
X011191Y021148D01*
X010946Y021067D02*
X010946Y020903D01*
X011027Y020821D01*
X011191Y020821D01*
X011461Y020903D02*
X011543Y020821D01*
X011788Y020821D01*
X011788Y021148D02*
X011543Y021148D01*
X011461Y021067D01*
X011461Y020903D01*
X012073Y021571D02*
X012318Y021571D01*
X012400Y021653D01*
X012400Y021735D01*
X012318Y021817D01*
X012073Y021817D01*
X012073Y022062D02*
X012073Y021571D01*
X012318Y021817D02*
X012400Y021898D01*
X012400Y021980D01*
X012318Y022062D01*
X012073Y022062D01*
X012588Y021817D02*
X012588Y021653D01*
X012670Y021571D01*
X012833Y021571D01*
X012915Y021653D01*
X012915Y021817D01*
X012833Y021898D01*
X012670Y021898D01*
X012588Y021817D01*
X012574Y021312D02*
X012493Y021230D01*
X012574Y021312D02*
X012738Y021312D01*
X012820Y021230D01*
X012820Y021148D01*
X012493Y020821D01*
X012820Y020821D01*
X013008Y020903D02*
X013335Y021230D01*
X013335Y020903D01*
X013253Y020821D01*
X013090Y020821D01*
X013008Y020903D01*
X013008Y021230D01*
X013090Y021312D01*
X013253Y021312D01*
X013335Y021230D01*
X013524Y021148D02*
X013687Y021312D01*
X013687Y020821D01*
X013524Y020821D02*
X013851Y020821D01*
X014039Y020821D02*
X014366Y021148D01*
X014366Y021230D01*
X014285Y021312D01*
X014121Y021312D01*
X014039Y021230D01*
X014131Y021571D02*
X014049Y021653D01*
X014049Y021817D01*
X014131Y021898D01*
X014376Y021898D01*
X014376Y022062D02*
X014376Y021571D01*
X014131Y021571D01*
X013865Y021898D02*
X013783Y021898D01*
X013620Y021735D01*
X013620Y021898D02*
X013620Y021571D01*
X013431Y021571D02*
X013431Y021817D01*
X013349Y021898D01*
X013186Y021898D01*
X013186Y021735D02*
X013431Y021735D01*
X013431Y021571D02*
X013186Y021571D01*
X013104Y021653D01*
X013186Y021735D01*
X014039Y020821D02*
X014366Y020821D01*
X015244Y021571D02*
X015081Y021735D01*
X015081Y022062D01*
X015407Y022062D02*
X015407Y021735D01*
X015244Y021571D01*
X015596Y021571D02*
X015923Y021571D01*
X015760Y021571D02*
X015760Y022062D01*
X015596Y021898D01*
X016112Y021653D02*
X016194Y021653D01*
X016194Y021571D01*
X016112Y021571D01*
X016112Y021653D01*
X016370Y021653D02*
X016697Y021980D01*
X016697Y021653D01*
X016615Y021571D01*
X016451Y021571D01*
X016370Y021653D01*
X016370Y021980D01*
X016451Y022062D01*
X016615Y022062D01*
X016697Y021980D01*
X010757Y021230D02*
X010757Y020903D01*
X010675Y020821D01*
X010430Y020821D01*
X010430Y021312D01*
X010675Y021312D01*
X010757Y021230D01*
X010264Y022062D02*
X010264Y022144D01*
X020475Y007122D02*
X020393Y007040D01*
X020393Y006713D01*
X020475Y006631D01*
X020638Y006631D01*
X020720Y006713D01*
X020720Y006877D01*
X020557Y006877D01*
X020720Y007040D02*
X020638Y007122D01*
X020475Y007122D01*
X020909Y007122D02*
X020909Y006631D01*
X020909Y006795D02*
X021154Y006795D01*
X021236Y006877D01*
X021236Y007040D01*
X021154Y007122D01*
X020909Y007122D01*
X021424Y007040D02*
X021424Y006958D01*
X021506Y006877D01*
X021670Y006877D01*
X021751Y006795D01*
X021751Y006713D01*
X021670Y006631D01*
X021506Y006631D01*
X021424Y006713D01*
X021424Y007040D02*
X021506Y007122D01*
X021670Y007122D01*
X021751Y007040D01*
D13*
X018790Y003711D02*
X018290Y003711D01*
X018040Y003461D01*
X017790Y003711D01*
X017290Y003711D01*
X017040Y003461D01*
X016790Y003711D01*
X016290Y003711D01*
X016040Y003461D01*
X015790Y003711D01*
X015290Y003711D01*
X015040Y003461D01*
X014790Y003711D01*
X014290Y003711D01*
X014040Y003461D01*
X013790Y003711D01*
X013290Y003711D01*
X013040Y003461D01*
X012790Y003711D01*
X012290Y003711D01*
X012040Y003461D01*
X011790Y003711D01*
X011290Y003711D01*
X011040Y003461D01*
X011040Y002961D01*
X011290Y002711D01*
X011790Y002711D01*
X012040Y002961D01*
X012290Y002711D01*
X012790Y002711D01*
X013040Y002961D01*
X013290Y002711D01*
X013790Y002711D01*
X014040Y002961D01*
X014290Y002711D01*
X014790Y002711D01*
X015040Y002961D01*
X015290Y002711D01*
X015790Y002711D01*
X016040Y002961D01*
X016290Y002711D01*
X016790Y002711D01*
X017040Y002961D01*
X017290Y002711D01*
X017790Y002711D01*
X018040Y002961D01*
X018290Y002711D01*
X018790Y002711D01*
X019040Y002961D01*
X019040Y003461D01*
X018790Y003711D01*
X017514Y004427D02*
X017278Y004427D01*
X017514Y004427D02*
X017514Y004663D01*
X017514Y006159D02*
X017514Y006396D01*
X017278Y006396D01*
X015782Y006396D02*
X015546Y006396D01*
X015546Y006120D01*
X015546Y004703D02*
X015546Y004427D01*
X015782Y004427D01*
X013749Y004427D02*
X013513Y004427D01*
X013749Y004427D02*
X013749Y004663D01*
X013749Y006159D02*
X013749Y006396D01*
X013513Y006396D01*
X012017Y006396D02*
X011781Y006396D01*
X011781Y006120D01*
X011781Y004703D02*
X011781Y004427D01*
X012017Y004427D01*
X009105Y005716D02*
X009105Y008296D01*
X007705Y008296D01*
X007705Y005716D01*
X009105Y005716D01*
X004312Y003340D02*
X003918Y003340D01*
X004115Y003733D01*
X004312Y003340D01*
X011968Y010854D02*
X012105Y010854D01*
X011968Y010854D02*
X011968Y010992D01*
X011968Y012291D02*
X011968Y012429D01*
X012105Y012429D01*
X013405Y012429D02*
X013542Y012291D01*
X013542Y010992D02*
X013542Y010854D01*
X013405Y010854D01*
X015179Y009826D02*
X015494Y009826D01*
X016046Y009826D02*
X016361Y009826D01*
X016097Y010982D02*
X015861Y010982D01*
X015861Y011218D01*
X015886Y012147D02*
X016026Y012295D01*
X016963Y012321D02*
X017199Y012321D01*
X017199Y012084D01*
X017199Y011218D02*
X017199Y010982D01*
X016963Y010982D01*
X015731Y008448D02*
X015733Y008460D01*
X015738Y008471D01*
X015747Y008480D01*
X015758Y008485D01*
X015770Y008487D01*
X015782Y008485D01*
X015793Y008480D01*
X015802Y008471D01*
X015807Y008460D01*
X015809Y008448D01*
X015807Y008436D01*
X015802Y008425D01*
X015793Y008416D01*
X015782Y008411D01*
X015770Y008409D01*
X015758Y008411D01*
X015747Y008416D01*
X015738Y008425D01*
X015733Y008436D01*
X015731Y008448D01*
X015494Y007857D02*
X015179Y007857D01*
X016046Y007857D02*
X016361Y007857D01*
X009155Y015104D02*
X008997Y014947D01*
X005533Y014947D01*
X005375Y015104D01*
X005375Y018569D01*
X005533Y018726D01*
X008997Y018726D01*
X009155Y018569D01*
X009155Y015104D01*
X011315Y022886D02*
X011065Y023136D01*
X011065Y023636D01*
X011315Y023886D01*
X011815Y023886D01*
X012065Y023636D01*
X012315Y023886D01*
X012815Y023886D01*
X013065Y023636D01*
X013065Y023136D01*
X012815Y022886D01*
X012315Y022886D01*
X012065Y023136D01*
X011815Y022886D01*
X011315Y022886D01*
X013705Y023161D02*
X013705Y023661D01*
X013955Y023911D01*
X014455Y023911D01*
X014705Y023661D01*
X014955Y023911D01*
X015455Y023911D01*
X015705Y023661D01*
X015955Y023911D01*
X016455Y023911D01*
X016705Y023661D01*
X016955Y023911D01*
X017455Y023911D01*
X017705Y023661D01*
X017955Y023911D01*
X018455Y023911D01*
X018705Y023661D01*
X018955Y023911D01*
X019455Y023911D01*
X019705Y023661D01*
X019705Y023161D01*
X019455Y022911D01*
X018955Y022911D01*
X018705Y023161D01*
X018455Y022911D01*
X017955Y022911D01*
X017705Y023161D01*
X017455Y022911D01*
X016955Y022911D01*
X016705Y023161D01*
X016455Y022911D01*
X015955Y022911D01*
X015705Y023161D01*
X015455Y022911D01*
X014955Y022911D01*
X014705Y023161D01*
X014455Y022911D01*
X013955Y022911D01*
X013705Y023161D01*
D14*
X017815Y021031D03*
X017820Y020476D03*
D15*
X020430Y010293D02*
X020980Y010293D01*
X020430Y010293D02*
X020430Y009893D01*
X021830Y009593D02*
X021830Y007986D01*
X020980Y007286D02*
X020430Y007286D01*
X020430Y007686D01*
X005579Y015262D02*
X005581Y015282D01*
X005586Y015302D01*
X005596Y015320D01*
X005608Y015337D01*
X005623Y015351D01*
X005641Y015361D01*
X005660Y015369D01*
X005680Y015373D01*
X005700Y015373D01*
X005720Y015369D01*
X005739Y015361D01*
X005757Y015351D01*
X005772Y015337D01*
X005784Y015320D01*
X005794Y015302D01*
X005799Y015282D01*
X005801Y015262D01*
X005799Y015242D01*
X005794Y015222D01*
X005784Y015204D01*
X005772Y015187D01*
X005757Y015173D01*
X005739Y015163D01*
X005720Y015155D01*
X005700Y015151D01*
X005680Y015151D01*
X005660Y015155D01*
X005641Y015163D01*
X005623Y015173D01*
X005608Y015187D01*
X005596Y015204D01*
X005586Y015222D01*
X005581Y015242D01*
X005579Y015262D01*
X001450Y010936D02*
X001450Y010636D01*
X002150Y010636D01*
X002150Y007836D01*
X001450Y007836D01*
X001450Y007536D01*
X000650Y007536D01*
X000650Y007836D01*
X000150Y007836D01*
X000150Y010636D01*
X000650Y010636D01*
X000650Y010936D01*
X001450Y010936D01*
D16*
X000815Y016611D02*
X002315Y016611D01*
X002565Y016861D01*
X002565Y017361D01*
X002315Y017611D01*
X000815Y017611D01*
X000565Y017361D01*
X000565Y016861D01*
X000815Y016611D01*
X000815Y017611D02*
X000565Y017861D01*
X000565Y018361D01*
X000815Y018611D01*
X002315Y018611D01*
X002565Y018361D01*
X002565Y017861D01*
X002315Y017611D01*
X002315Y018611D02*
X002565Y018861D01*
X002565Y019361D01*
X002315Y019611D01*
X000815Y019611D01*
X000565Y019361D01*
X000565Y018861D01*
X000815Y018611D01*
X000815Y020961D02*
X000565Y021211D01*
X000565Y021711D01*
X000815Y021961D01*
X002315Y021961D01*
X002565Y022211D01*
X002565Y022711D01*
X002315Y022961D01*
X002565Y023211D01*
X002565Y023711D01*
X002315Y023961D01*
X000815Y023961D01*
X000565Y023711D01*
X000565Y023211D01*
X000815Y022961D01*
X002315Y022961D01*
X002565Y022711D02*
X002815Y022961D01*
X002565Y023211D01*
X002565Y023711D01*
X002815Y023961D01*
X004315Y023961D01*
X004565Y023711D01*
X004565Y023211D01*
X004315Y022961D01*
X002815Y022961D01*
X002565Y022711D02*
X002565Y022211D01*
X002815Y021961D01*
X004315Y021961D01*
X004565Y022211D01*
X004565Y022711D01*
X004315Y022961D01*
X004565Y022711D02*
X004815Y022961D01*
X004565Y023211D01*
X004565Y023711D01*
X004815Y023961D01*
X006315Y023961D01*
X006565Y023711D01*
X006565Y023211D01*
X006315Y022961D01*
X004815Y022961D01*
X004565Y022711D02*
X004565Y022211D01*
X004815Y021961D01*
X006315Y021961D01*
X006565Y022211D01*
X006565Y022711D01*
X006315Y022961D01*
X006315Y021961D02*
X006565Y021711D01*
X006565Y021211D01*
X006315Y020961D01*
X004815Y020961D01*
X004565Y021211D01*
X004565Y021711D01*
X004315Y021961D01*
X004565Y021711D02*
X004815Y021961D01*
X004565Y021711D02*
X004565Y021211D01*
X004315Y020961D01*
X002815Y020961D01*
X002565Y021211D01*
X002565Y021711D01*
X002315Y021961D01*
X002565Y021711D02*
X002815Y021961D01*
X002565Y021711D02*
X002565Y021211D01*
X002315Y020961D01*
X000815Y020961D01*
X000815Y021961D02*
X000565Y022211D01*
X000565Y022711D01*
X000815Y022961D01*
X018390Y009286D02*
X018390Y008686D01*
X018392Y008669D01*
X018396Y008652D01*
X018403Y008636D01*
X018413Y008622D01*
X018426Y008609D01*
X018440Y008599D01*
X018456Y008592D01*
X018473Y008588D01*
X018490Y008586D01*
X019490Y008586D01*
X019507Y008588D01*
X019524Y008592D01*
X019540Y008599D01*
X019554Y008609D01*
X019567Y008622D01*
X019577Y008636D01*
X019584Y008652D01*
X019588Y008669D01*
X019590Y008686D01*
X019590Y009286D01*
X019588Y009303D01*
X019584Y009320D01*
X019577Y009336D01*
X019567Y009350D01*
X019554Y009363D01*
X019540Y009373D01*
X019524Y009380D01*
X019507Y009384D01*
X019490Y009386D01*
X018490Y009386D01*
X018473Y009384D01*
X018456Y009380D01*
X018440Y009373D01*
X018426Y009363D01*
X018413Y009350D01*
X018403Y009336D01*
X018396Y009320D01*
X018392Y009303D01*
X018390Y009286D01*
X018490Y008436D02*
X019490Y008436D01*
X019507Y008434D01*
X019524Y008430D01*
X019540Y008423D01*
X019554Y008413D01*
X019567Y008400D01*
X019577Y008386D01*
X019584Y008370D01*
X019588Y008353D01*
X019590Y008336D01*
X019590Y007736D01*
X019588Y007719D01*
X019584Y007702D01*
X019577Y007686D01*
X019567Y007672D01*
X019554Y007659D01*
X019540Y007649D01*
X019524Y007642D01*
X019507Y007638D01*
X019490Y007636D01*
X018490Y007636D01*
X018473Y007638D01*
X018456Y007642D01*
X018440Y007649D01*
X018426Y007659D01*
X018413Y007672D01*
X018403Y007686D01*
X018396Y007702D01*
X018392Y007719D01*
X018390Y007736D01*
X018390Y008336D01*
X018392Y008353D01*
X018396Y008370D01*
X018403Y008386D01*
X018413Y008400D01*
X018426Y008413D01*
X018440Y008423D01*
X018456Y008430D01*
X018473Y008434D01*
X018490Y008436D01*
X020365Y010961D02*
X021865Y010961D01*
X022115Y011211D01*
X022115Y011711D01*
X021865Y011961D01*
X020365Y011961D01*
X020115Y011711D01*
X020115Y011211D01*
X020365Y010961D01*
X020365Y011961D02*
X020115Y012211D01*
X020115Y012711D01*
X020365Y012961D01*
X021865Y012961D01*
X022115Y012711D01*
X022115Y012211D01*
X021865Y011961D01*
X021865Y012961D02*
X022115Y013211D01*
X022115Y013711D01*
X021865Y013961D01*
X020365Y013961D01*
X020115Y014211D01*
X020115Y014711D01*
X020365Y014961D01*
X021865Y014961D01*
X022115Y014711D01*
X022115Y014211D01*
X021865Y013961D01*
X021865Y014961D02*
X022115Y015211D01*
X022115Y015711D01*
X021865Y015961D01*
X020365Y015961D01*
X020115Y016211D01*
X020115Y016711D01*
X020365Y016961D01*
X021865Y016961D01*
X022115Y016711D01*
X022115Y016211D01*
X021865Y015961D01*
X021865Y016961D02*
X022115Y017211D01*
X022115Y017711D01*
X021865Y017961D01*
X020365Y017961D01*
X020115Y017711D01*
X020115Y017211D01*
X020365Y016961D01*
X020365Y015961D02*
X020115Y015711D01*
X020115Y015211D01*
X020365Y014961D01*
X020365Y013961D02*
X020115Y013711D01*
X020115Y013211D01*
X020365Y012961D01*
X020365Y017961D02*
X020115Y018211D01*
X020115Y018711D01*
X020365Y018961D01*
X021865Y018961D01*
X022115Y018711D01*
X022115Y018211D01*
X021865Y017961D01*
X021865Y018961D02*
X022115Y019211D01*
X022115Y019711D01*
X021865Y019961D01*
X020365Y019961D01*
X020115Y019711D01*
X020115Y019211D01*
X020365Y018961D01*
X020365Y019961D02*
X020115Y020211D01*
X020115Y020711D01*
X020365Y020961D01*
X021865Y020961D01*
X022115Y020711D01*
X022115Y020211D01*
X021865Y019961D01*
X021865Y020961D02*
X022115Y021211D01*
X022115Y021711D01*
X021865Y021961D01*
X020365Y021961D01*
X020115Y021711D01*
X020115Y021211D01*
X020365Y020961D01*
X019890Y021161D02*
X019890Y021761D01*
X019888Y021778D01*
X019884Y021795D01*
X019877Y021811D01*
X019867Y021825D01*
X019854Y021838D01*
X019840Y021848D01*
X019824Y021855D01*
X019807Y021859D01*
X019790Y021861D01*
X018690Y021861D01*
X018673Y021859D01*
X018656Y021855D01*
X018640Y021848D01*
X018626Y021838D01*
X018613Y021825D01*
X018603Y021811D01*
X018596Y021795D01*
X018592Y021778D01*
X018590Y021761D01*
X018590Y021161D01*
X018592Y021144D01*
X018596Y021127D01*
X018603Y021111D01*
X018613Y021097D01*
X018626Y021084D01*
X018640Y021074D01*
X018656Y021067D01*
X018673Y021063D01*
X018690Y021061D01*
X019790Y021061D01*
X019807Y021063D01*
X019824Y021067D01*
X019840Y021074D01*
X019854Y021084D01*
X019867Y021097D01*
X019877Y021111D01*
X019884Y021127D01*
X019888Y021144D01*
X019890Y021161D01*
X019790Y021961D02*
X018690Y021961D01*
X018673Y021963D01*
X018656Y021967D01*
X018640Y021974D01*
X018626Y021984D01*
X018613Y021997D01*
X018603Y022011D01*
X018596Y022027D01*
X018592Y022044D01*
X018590Y022061D01*
X018590Y022661D01*
X018592Y022678D01*
X018596Y022695D01*
X018603Y022711D01*
X018613Y022725D01*
X018626Y022738D01*
X018640Y022748D01*
X018656Y022755D01*
X018673Y022759D01*
X018690Y022761D01*
X019790Y022761D01*
X019807Y022759D01*
X019824Y022755D01*
X019840Y022748D01*
X019854Y022738D01*
X019867Y022725D01*
X019877Y022711D01*
X019884Y022695D01*
X019888Y022678D01*
X019890Y022661D01*
X019890Y022061D01*
X019888Y022044D01*
X019884Y022027D01*
X019877Y022011D01*
X019867Y021997D01*
X019854Y021984D01*
X019840Y021974D01*
X019824Y021967D01*
X019807Y021963D01*
X019790Y021961D01*
X020115Y022211D02*
X020365Y021961D01*
X020115Y022211D02*
X020115Y022711D01*
X020365Y022961D01*
X021865Y022961D01*
X022115Y022711D01*
X022115Y022211D01*
X021865Y021961D01*
X021865Y022961D02*
X022115Y023211D01*
X022115Y023711D01*
X021865Y023961D01*
X020365Y023961D01*
X020115Y023711D01*
X020115Y023211D01*
X020365Y022961D01*
D17*
X010015Y010891D03*
X009370Y010896D03*
X008735Y010901D03*
X008095Y010906D03*
D18*
X004759Y007507D02*
X003971Y007507D01*
X003971Y007015D02*
X004759Y007015D01*
X004681Y013523D02*
X004681Y014310D01*
X004189Y014310D02*
X004189Y013523D01*
D19*
X004365Y007261D03*
D20*
X004435Y013916D03*
D21*
X004115Y003756D03*
D22*
X000480Y006336D02*
X000480Y006758D01*
X000480Y007152D02*
X000480Y007574D01*
X000480Y007968D02*
X000480Y008390D01*
X000480Y008783D02*
X000480Y009205D01*
X000480Y009599D02*
X000480Y010021D01*
X000480Y010414D02*
X000480Y010836D01*
D23*
X000626Y007230D02*
X000688Y007230D01*
X000750Y007168D01*
X000750Y006983D01*
X000873Y006862D02*
X000935Y006800D01*
X000935Y006676D01*
X000873Y006615D01*
X000626Y006615D01*
X000565Y006676D01*
X000565Y006800D01*
X000626Y006862D01*
X000565Y006983D02*
X000565Y007168D01*
X000626Y007230D01*
X000750Y007168D02*
X000812Y007230D01*
X000873Y007230D01*
X000935Y007168D01*
X000935Y006983D01*
X000565Y006983D01*
X000626Y006493D02*
X000750Y006493D01*
X000812Y006432D01*
X000812Y006246D01*
X000935Y006246D02*
X000565Y006246D01*
X000565Y006432D01*
X000626Y006493D01*
D24*
X020615Y011461D03*
X020615Y012461D03*
X020615Y013461D03*
X020615Y014461D03*
X020615Y015461D03*
X020615Y016461D03*
X020615Y017461D03*
X020615Y018461D03*
X020615Y019461D03*
X021615Y019461D03*
X021615Y018461D03*
X021615Y017461D03*
X021615Y016461D03*
X021615Y015461D03*
X021615Y014461D03*
X021615Y013461D03*
X021615Y012461D03*
X021615Y011461D03*
X021615Y020461D03*
X021615Y021461D03*
X021615Y022461D03*
X021615Y023461D03*
X020615Y023461D03*
X020615Y022461D03*
X020615Y021461D03*
X020615Y020461D03*
D25*
X017340Y019611D03*
X017340Y018261D03*
X017340Y016911D03*
X017340Y015586D03*
X013965Y015586D03*
X013965Y016911D03*
X013965Y018261D03*
X013965Y019611D03*
M02*
