G75*
G70*
%OFA0B0*%
%FSLAX24Y24*%
%IPPOS*%
%LPD*%
%AMOC8*
5,1,8,0,0,1.08239X$1,22.5*
%
%ADD10C,0.0740*%
%ADD11OC8,0.0610*%
%ADD12R,0.0740X0.0740*%
%ADD13OC8,0.0600*%
%ADD14R,0.0460X0.0630*%
%ADD15C,0.0100*%
%ADD16C,0.0396*%
%ADD17C,0.0240*%
%ADD18C,0.0475*%
%ADD19C,0.0400*%
%ADD20C,0.0120*%
%ADD21C,0.0080*%
%ADD22C,0.0160*%
%ADD23C,0.0650*%
%ADD24C,0.0357*%
%ADD25C,0.1660*%
D10*
X011540Y003261D03*
X012540Y003161D03*
X013540Y003261D03*
X014540Y003161D03*
X015540Y003261D03*
X016540Y003161D03*
X017540Y003261D03*
X017205Y023411D03*
X016205Y023411D03*
X015205Y023411D03*
X014205Y023411D03*
X012565Y023386D03*
X011565Y023386D03*
X018205Y023411D03*
X019205Y023411D03*
D11*
X002065Y019111D03*
X002065Y018111D03*
X002065Y017111D03*
X001065Y017111D03*
X001065Y018111D03*
X001065Y019111D03*
D12*
X018540Y003161D03*
D13*
X020615Y011461D03*
X020615Y012461D03*
X020615Y013461D03*
X020615Y014461D03*
X020615Y015461D03*
X020615Y016461D03*
X020615Y017461D03*
X020615Y018461D03*
X020615Y019461D03*
X021615Y019461D03*
X021615Y018461D03*
X021615Y017461D03*
X021615Y016461D03*
X021615Y015461D03*
X021615Y014461D03*
X021615Y013461D03*
X021615Y012461D03*
X021615Y011461D03*
X021615Y020461D03*
X021615Y021461D03*
X021615Y022461D03*
X021615Y023461D03*
X020615Y023461D03*
X020615Y022461D03*
X020615Y021461D03*
X020615Y020461D03*
X006065Y021461D03*
X005065Y021461D03*
X004065Y021461D03*
X004065Y022461D03*
X005065Y022461D03*
X006065Y022461D03*
X006065Y023461D03*
X005065Y023461D03*
X004065Y023461D03*
X003065Y023461D03*
X003065Y022461D03*
X003065Y021461D03*
X002065Y021461D03*
X002065Y022461D03*
X002065Y023461D03*
X001065Y023461D03*
X001065Y022461D03*
X001065Y021461D03*
D14*
X018940Y022371D03*
X019540Y022371D03*
D15*
X000765Y007297D02*
X000765Y002636D01*
X012396Y002636D01*
X012234Y002704D01*
X012082Y002855D01*
X012019Y003007D01*
X011998Y002955D01*
X011846Y002804D01*
X011647Y002721D01*
X011433Y002721D01*
X011234Y002804D01*
X011082Y002955D01*
X011000Y003154D01*
X011000Y003369D01*
X011082Y003567D01*
X011234Y003719D01*
X011433Y003801D01*
X011647Y003801D01*
X011846Y003719D01*
X011998Y003567D01*
X012061Y003415D01*
X012082Y003467D01*
X012039Y003467D01*
X012082Y003467D02*
X012234Y003619D01*
X012433Y003701D01*
X012647Y003701D01*
X012846Y003619D01*
X012998Y003467D01*
X013041Y003467D01*
X012998Y003467D02*
X013019Y003415D01*
X013082Y003567D01*
X013234Y003719D01*
X013433Y003801D01*
X013647Y003801D01*
X013846Y003719D01*
X013998Y003567D01*
X014061Y003415D01*
X014082Y003467D01*
X014039Y003467D01*
X014082Y003467D02*
X014234Y003619D01*
X014433Y003701D01*
X014647Y003701D01*
X014846Y003619D01*
X014998Y003467D01*
X015041Y003467D01*
X014998Y003467D02*
X015019Y003415D01*
X015082Y003567D01*
X015234Y003719D01*
X015433Y003801D01*
X015647Y003801D01*
X015846Y003719D01*
X015998Y003567D01*
X016061Y003415D01*
X016082Y003467D01*
X016039Y003467D01*
X016082Y003467D02*
X016234Y003619D01*
X016433Y003701D01*
X016647Y003701D01*
X016846Y003619D01*
X016998Y003467D01*
X017041Y003467D01*
X016998Y003467D02*
X017019Y003415D01*
X017082Y003567D01*
X017234Y003719D01*
X017433Y003801D01*
X017647Y003801D01*
X017846Y003719D01*
X017998Y003567D01*
X018000Y003562D01*
X018000Y003602D01*
X018100Y003701D01*
X018980Y003701D01*
X019080Y003602D01*
X019080Y002721D01*
X018995Y002636D01*
X021865Y002636D01*
X021865Y011047D01*
X021810Y010991D01*
X021420Y010991D01*
X021145Y011267D01*
X021145Y011656D01*
X021420Y011931D01*
X021810Y011931D01*
X021865Y011876D01*
X021865Y012047D01*
X021810Y011991D01*
X021420Y011991D01*
X021145Y012267D01*
X021145Y012656D01*
X021420Y012931D01*
X021810Y012931D01*
X021865Y012876D01*
X021865Y013047D01*
X021810Y012991D01*
X021420Y012991D01*
X021145Y013267D01*
X021145Y013656D01*
X021420Y013931D01*
X021810Y013931D01*
X021865Y013876D01*
X021865Y014075D01*
X021801Y014011D01*
X021665Y014011D01*
X021665Y014411D01*
X021565Y014411D01*
X021565Y014011D01*
X021429Y014011D01*
X021165Y014275D01*
X021165Y014411D01*
X021565Y014411D01*
X021565Y014511D01*
X021165Y014511D01*
X021165Y014648D01*
X021429Y014911D01*
X021565Y014911D01*
X021565Y014511D01*
X021665Y014511D01*
X021665Y014911D01*
X021801Y014911D01*
X021865Y014848D01*
X021865Y015047D01*
X021810Y014991D01*
X021420Y014991D01*
X021145Y015267D01*
X021145Y015656D01*
X021420Y015931D01*
X021810Y015931D01*
X021865Y015876D01*
X021865Y016047D01*
X021810Y015991D01*
X021420Y015991D01*
X021145Y016267D01*
X021145Y016656D01*
X021420Y016931D01*
X021810Y016931D01*
X021865Y016876D01*
X021865Y017075D01*
X021801Y017011D01*
X021665Y017011D01*
X021665Y017411D01*
X021565Y017411D01*
X021565Y017011D01*
X021429Y017011D01*
X021165Y017275D01*
X021165Y017411D01*
X021565Y017411D01*
X021565Y017511D01*
X021165Y017511D01*
X021165Y017648D01*
X021429Y017911D01*
X021565Y017911D01*
X021565Y017511D01*
X021665Y017511D01*
X021665Y017911D01*
X021801Y017911D01*
X021865Y017848D01*
X021865Y017848D01*
X021865Y018047D01*
X021810Y017991D01*
X021420Y017991D01*
X021145Y018267D01*
X021145Y018656D01*
X021420Y018931D01*
X021810Y018931D01*
X021865Y018876D01*
X021865Y019047D01*
X021810Y018991D01*
X021420Y018991D01*
X021145Y019267D01*
X021145Y019656D01*
X021420Y019931D01*
X021810Y019931D01*
X021865Y019876D01*
X021865Y020047D01*
X021810Y019991D01*
X021420Y019991D01*
X021145Y020267D01*
X021145Y020656D01*
X021420Y020931D01*
X021810Y020931D01*
X021865Y020876D01*
X021865Y021047D01*
X021810Y020991D01*
X021420Y020991D01*
X021145Y021267D01*
X021145Y021656D01*
X021230Y021742D01*
X021170Y021716D01*
X021025Y021716D01*
X021085Y021656D01*
X021085Y021267D01*
X020810Y020991D01*
X020420Y020991D01*
X020145Y021267D01*
X020145Y021656D01*
X020205Y021716D01*
X019895Y021716D01*
X019803Y021754D01*
X019733Y021825D01*
X019671Y021886D01*
X018640Y021886D01*
X018540Y021986D01*
X018540Y022081D01*
X015780Y022081D01*
X015173Y021474D01*
X015173Y021443D01*
X015117Y021308D01*
X015095Y021286D01*
X015095Y015067D01*
X015117Y015045D01*
X015173Y014910D01*
X015173Y014763D01*
X015117Y014628D01*
X015014Y014524D01*
X014878Y014468D01*
X014732Y014468D01*
X014596Y014524D01*
X014493Y014628D01*
X014437Y014763D01*
X014437Y014910D01*
X014493Y015045D01*
X014515Y015067D01*
X014515Y017286D01*
X014514Y017284D01*
X014378Y017228D01*
X014232Y017228D01*
X014096Y017284D01*
X013993Y017388D01*
X013937Y017523D01*
X013937Y017670D01*
X013993Y017805D01*
X014096Y017908D01*
X014232Y017964D01*
X014378Y017964D01*
X014514Y017908D01*
X014515Y017907D01*
X014515Y021286D01*
X014493Y021308D01*
X014437Y021443D01*
X014437Y021590D01*
X014493Y021725D01*
X014596Y021828D01*
X014732Y021884D01*
X014763Y021884D01*
X015414Y022536D01*
X015496Y022617D01*
X015602Y022661D01*
X018540Y022661D01*
X018540Y022757D01*
X018640Y022856D01*
X019840Y022856D01*
X019940Y022757D01*
X019940Y022325D01*
X020049Y022216D01*
X020195Y022216D01*
X020145Y022267D01*
X020145Y022656D01*
X020420Y022931D01*
X020810Y022931D01*
X021085Y022656D01*
X021085Y022285D01*
X021145Y022345D01*
X021145Y022656D01*
X021365Y022876D01*
X021365Y023047D01*
X021145Y023267D01*
X021145Y023656D01*
X021225Y023736D01*
X021005Y023736D01*
X021085Y023656D01*
X021085Y023267D01*
X020810Y022991D01*
X020420Y022991D01*
X020145Y023267D01*
X020145Y023656D01*
X020225Y023736D01*
X019644Y023736D01*
X019663Y023717D01*
X019745Y023519D01*
X019745Y023304D01*
X019663Y023105D01*
X019511Y022954D01*
X019312Y022871D01*
X019098Y022871D01*
X018899Y022954D01*
X018747Y023105D01*
X018705Y023207D01*
X018663Y023105D01*
X018511Y022954D01*
X018312Y022871D01*
X018098Y022871D01*
X017899Y022954D01*
X017747Y023105D01*
X017705Y023207D01*
X017663Y023105D01*
X017511Y022954D01*
X017312Y022871D01*
X017098Y022871D01*
X016899Y022954D01*
X016747Y023105D01*
X016705Y023207D01*
X016663Y023105D01*
X016511Y022954D01*
X016312Y022871D01*
X016098Y022871D01*
X015899Y022954D01*
X015747Y023105D01*
X015705Y023207D01*
X015663Y023105D01*
X015511Y022954D01*
X015312Y022871D01*
X015098Y022871D01*
X014899Y022954D01*
X014747Y023105D01*
X014705Y023207D01*
X014663Y023105D01*
X014511Y022954D01*
X014312Y022871D01*
X014098Y022871D01*
X013899Y022954D01*
X013747Y023105D01*
X013665Y023304D01*
X013665Y023519D01*
X013747Y023717D01*
X013766Y023736D01*
X012950Y023736D01*
X012962Y023725D01*
X013010Y023659D01*
X013047Y023586D01*
X013072Y023508D01*
X013084Y023436D01*
X012615Y023436D01*
X012615Y023336D01*
X012615Y022868D01*
X012687Y022879D01*
X012765Y022904D01*
X012838Y022942D01*
X012904Y022990D01*
X012962Y023048D01*
X013010Y023114D01*
X013047Y023187D01*
X013072Y023265D01*
X013084Y023336D01*
X012615Y023336D01*
X012515Y023336D01*
X012515Y022868D01*
X012443Y022879D01*
X012365Y022904D01*
X012292Y022942D01*
X012226Y022990D01*
X012168Y023048D01*
X012120Y023114D01*
X012083Y023187D01*
X012076Y023209D01*
X012023Y023080D01*
X011871Y022929D01*
X011672Y022846D01*
X011458Y022846D01*
X011403Y022869D01*
X010465Y021923D01*
X010465Y020997D01*
X010527Y020935D01*
X010583Y020800D01*
X010583Y020653D01*
X010527Y020518D01*
X010424Y020414D01*
X010288Y020358D01*
X010142Y020358D01*
X010006Y020414D01*
X009984Y020436D01*
X007742Y020436D01*
X007636Y020481D01*
X007554Y020562D01*
X006535Y021581D01*
X006535Y021267D01*
X006260Y020991D01*
X005870Y020991D01*
X005595Y021267D01*
X005595Y021656D01*
X005870Y021931D01*
X006185Y021931D01*
X006125Y021991D01*
X005870Y021991D01*
X005595Y022267D01*
X005595Y022656D01*
X005870Y022931D01*
X006260Y022931D01*
X006535Y022656D01*
X006535Y022401D01*
X007920Y021016D01*
X009965Y021016D01*
X009965Y022026D01*
X009965Y022075D01*
X009965Y022076D01*
X009965Y022076D01*
X009984Y022122D01*
X010003Y022167D01*
X010003Y022168D01*
X010003Y022168D01*
X010038Y022203D01*
X011049Y023221D01*
X011025Y023279D01*
X011025Y023494D01*
X011107Y023692D01*
X011151Y023736D01*
X009029Y023736D01*
X009163Y023603D01*
X009315Y023235D01*
X009315Y022837D01*
X009163Y022470D01*
X008881Y022189D01*
X008514Y022036D01*
X008116Y022036D01*
X007749Y022189D01*
X007467Y022470D01*
X007315Y022837D01*
X007315Y023235D01*
X007467Y023603D01*
X007601Y023736D01*
X006426Y023736D01*
X006515Y023648D01*
X006515Y023511D01*
X006115Y023511D01*
X006115Y023411D01*
X006115Y023011D01*
X006251Y023011D01*
X006515Y023275D01*
X006515Y023411D01*
X006115Y023411D01*
X006015Y023411D01*
X006015Y023011D01*
X005879Y023011D01*
X005615Y023275D01*
X005615Y023411D01*
X006015Y023411D01*
X006015Y023511D01*
X005615Y023511D01*
X005615Y023648D01*
X005704Y023736D01*
X005426Y023736D01*
X005515Y023648D01*
X005515Y023511D01*
X005115Y023511D01*
X005115Y023411D01*
X005115Y023011D01*
X005251Y023011D01*
X005515Y023275D01*
X005515Y023411D01*
X005115Y023411D01*
X005015Y023411D01*
X005015Y023011D01*
X004879Y023011D01*
X004615Y023275D01*
X004615Y023411D01*
X005015Y023411D01*
X005015Y023511D01*
X004615Y023511D01*
X004615Y023648D01*
X004704Y023736D01*
X004426Y023736D01*
X004515Y023648D01*
X004515Y023511D01*
X004115Y023511D01*
X004115Y023411D01*
X004115Y023011D01*
X004251Y023011D01*
X004515Y023275D01*
X004515Y023411D01*
X004115Y023411D01*
X004015Y023411D01*
X004015Y023011D01*
X003879Y023011D01*
X003615Y023275D01*
X003615Y023411D01*
X004015Y023411D01*
X004015Y023511D01*
X003615Y023511D01*
X003615Y023648D01*
X003704Y023736D01*
X003426Y023736D01*
X003515Y023648D01*
X003515Y023511D01*
X003115Y023511D01*
X003115Y023411D01*
X003115Y023011D01*
X003251Y023011D01*
X003515Y023275D01*
X003515Y023411D01*
X003115Y023411D01*
X003015Y023411D01*
X003015Y023011D01*
X002879Y023011D01*
X002615Y023275D01*
X002615Y023411D01*
X003015Y023411D01*
X003015Y023511D01*
X002615Y023511D01*
X002615Y023648D01*
X002704Y023736D01*
X002426Y023736D01*
X002515Y023648D01*
X002515Y023511D01*
X002115Y023511D01*
X002115Y023411D01*
X002115Y023011D01*
X002251Y023011D01*
X002515Y023275D01*
X002515Y023411D01*
X002115Y023411D01*
X002015Y023411D01*
X002015Y023011D01*
X001879Y023011D01*
X001615Y023275D01*
X001615Y023411D01*
X002015Y023411D01*
X002015Y023511D01*
X001615Y023511D01*
X001615Y023648D01*
X001704Y023736D01*
X001426Y023736D01*
X001515Y023648D01*
X001515Y023511D01*
X001115Y023511D01*
X001115Y023411D01*
X001115Y023011D01*
X001251Y023011D01*
X001515Y023275D01*
X001515Y023411D01*
X001115Y023411D01*
X001015Y023411D01*
X001015Y023011D01*
X000879Y023011D01*
X000765Y023125D01*
X000765Y022826D01*
X000870Y022931D01*
X001260Y022931D01*
X001535Y022656D01*
X001535Y022285D01*
X001595Y022345D01*
X001595Y022656D01*
X001870Y022931D01*
X002260Y022931D01*
X002535Y022656D01*
X002535Y022267D01*
X002260Y021991D01*
X001949Y021991D01*
X001889Y021931D01*
X002260Y021931D01*
X002535Y021656D01*
X002535Y021267D01*
X002260Y020991D01*
X002089Y020991D01*
X002277Y020803D01*
X002315Y020711D01*
X002315Y019533D01*
X002487Y019361D01*
X003879Y019361D01*
X003936Y019418D01*
X004072Y019474D01*
X004218Y019474D01*
X004354Y019418D01*
X004457Y019315D01*
X004513Y019180D01*
X004513Y019033D01*
X004457Y018898D01*
X004386Y018826D01*
X007642Y018826D01*
X008639Y017830D01*
X008759Y017830D01*
X008887Y017777D01*
X008916Y017748D01*
X008974Y017806D01*
X009145Y017977D01*
X009145Y018636D01*
X007832Y018636D01*
X007734Y018734D02*
X009050Y018734D01*
X009053Y018728D02*
X009145Y018636D01*
X009145Y018537D02*
X007931Y018537D01*
X008029Y018439D02*
X009145Y018439D01*
X009145Y018340D02*
X008128Y018340D01*
X008226Y018242D02*
X009145Y018242D01*
X009145Y018143D02*
X008325Y018143D01*
X008423Y018045D02*
X009145Y018045D01*
X009114Y017946D02*
X008522Y017946D01*
X008620Y017848D02*
X009015Y017848D01*
X008917Y017749D02*
X008915Y017749D01*
X009065Y017586D02*
X009065Y015946D01*
X009245Y015766D01*
X009245Y014806D01*
X009613Y014794D02*
X009613Y014880D01*
X009557Y015015D01*
X009465Y015107D01*
X009465Y015857D01*
X009336Y015986D01*
X009285Y016037D01*
X009285Y017495D01*
X009585Y017795D01*
X009585Y018636D01*
X014515Y018636D01*
X014515Y018734D02*
X009680Y018734D01*
X009677Y018728D02*
X009733Y018863D01*
X009733Y019010D01*
X009677Y019145D01*
X009574Y019248D01*
X009438Y019304D01*
X009292Y019304D01*
X009156Y019248D01*
X009053Y019145D01*
X008997Y019010D01*
X008997Y018863D01*
X009053Y018728D01*
X009009Y018833D02*
X004392Y018833D01*
X004471Y018931D02*
X008997Y018931D01*
X009005Y019030D02*
X004512Y019030D01*
X004513Y019128D02*
X009046Y019128D01*
X009135Y019227D02*
X004494Y019227D01*
X004447Y019325D02*
X014515Y019325D01*
X014515Y019227D02*
X009595Y019227D01*
X009684Y019128D02*
X014515Y019128D01*
X014515Y019030D02*
X009725Y019030D01*
X009733Y018931D02*
X014515Y018931D01*
X014515Y018833D02*
X009721Y018833D01*
X009677Y018728D02*
X009585Y018636D01*
X009585Y018537D02*
X014515Y018537D01*
X014515Y018439D02*
X009585Y018439D01*
X009585Y018340D02*
X014515Y018340D01*
X014515Y018242D02*
X009585Y018242D01*
X009585Y018143D02*
X014515Y018143D01*
X014515Y018045D02*
X009585Y018045D01*
X009585Y017946D02*
X014188Y017946D01*
X014036Y017848D02*
X009585Y017848D01*
X009539Y017749D02*
X013970Y017749D01*
X013937Y017651D02*
X009441Y017651D01*
X009342Y017552D02*
X013937Y017552D01*
X013966Y017454D02*
X009285Y017454D01*
X009285Y017355D02*
X014025Y017355D01*
X014163Y017257D02*
X009285Y017257D01*
X009285Y017158D02*
X014515Y017158D01*
X014515Y017060D02*
X009285Y017060D01*
X009285Y016961D02*
X014515Y016961D01*
X014515Y016863D02*
X009285Y016863D01*
X009285Y016764D02*
X014515Y016764D01*
X014515Y016666D02*
X009285Y016666D01*
X009285Y016567D02*
X014515Y016567D01*
X014515Y016469D02*
X009285Y016469D01*
X009285Y016370D02*
X014515Y016370D01*
X014515Y016272D02*
X009285Y016272D01*
X009285Y016173D02*
X014515Y016173D01*
X014515Y016075D02*
X009285Y016075D01*
X009346Y015976D02*
X014515Y015976D01*
X014515Y015878D02*
X009445Y015878D01*
X009465Y015779D02*
X014515Y015779D01*
X014515Y015681D02*
X009465Y015681D01*
X009465Y015582D02*
X014515Y015582D01*
X014515Y015484D02*
X009465Y015484D01*
X009465Y015385D02*
X014515Y015385D01*
X014515Y015287D02*
X009465Y015287D01*
X009465Y015188D02*
X014515Y015188D01*
X014515Y015090D02*
X009482Y015090D01*
X009567Y014991D02*
X014471Y014991D01*
X014437Y014893D02*
X009608Y014893D01*
X009613Y014794D02*
X009728Y014794D01*
X009864Y014738D01*
X009967Y014635D01*
X010023Y014500D01*
X010023Y014353D01*
X009967Y014218D01*
X009864Y014114D01*
X009728Y014058D01*
X009582Y014058D01*
X009446Y014114D01*
X009354Y014206D01*
X008894Y014206D01*
X008765Y014335D01*
X008355Y014745D01*
X008355Y015675D01*
X008194Y015836D01*
X008014Y015836D01*
X007885Y015965D01*
X007484Y016366D01*
X007484Y016366D01*
X007355Y016495D01*
X007355Y017195D01*
X007184Y017366D01*
X006516Y017366D01*
X006424Y017274D01*
X006288Y017218D01*
X006142Y017218D01*
X006006Y017274D01*
X005903Y017378D01*
X005847Y017513D01*
X005847Y017660D01*
X005903Y017795D01*
X005904Y017796D01*
X003382Y017796D01*
X002835Y017249D01*
X002835Y016779D01*
X002585Y016529D01*
X002462Y016406D01*
X001473Y016406D01*
X001275Y016604D01*
X001275Y013603D01*
X001445Y013773D01*
X001445Y013773D01*
X001568Y013896D01*
X002054Y013896D01*
X002156Y013998D01*
X002292Y014054D01*
X002438Y014054D01*
X002574Y013998D01*
X002677Y013895D01*
X002733Y013760D01*
X002733Y013613D01*
X002677Y013478D01*
X002574Y013374D01*
X002438Y013318D01*
X002292Y013318D01*
X002156Y013374D01*
X002054Y013476D01*
X001742Y013476D01*
X001475Y013209D01*
X001475Y011653D01*
X001542Y011586D01*
X002103Y011586D01*
X002187Y011588D01*
X002189Y011586D01*
X002192Y011586D01*
X002252Y011527D01*
X002859Y010946D01*
X002862Y010946D01*
X002922Y010887D01*
X002983Y010828D01*
X002983Y010825D01*
X002985Y010823D01*
X002985Y010739D01*
X002987Y010654D01*
X002985Y010652D01*
X002985Y008208D01*
X003227Y007941D01*
X003285Y007883D01*
X003285Y007878D01*
X003289Y007873D01*
X003285Y007791D01*
X003285Y007427D01*
X003387Y007325D01*
X003443Y007190D01*
X003443Y007043D01*
X003387Y006908D01*
X003284Y006804D01*
X003148Y006748D01*
X003002Y006748D01*
X002866Y006804D01*
X002763Y006908D01*
X002707Y007043D01*
X002707Y007190D01*
X002744Y007278D01*
X002632Y007278D01*
X002496Y007334D01*
X002393Y007438D01*
X002337Y007573D01*
X002337Y007664D01*
X002227Y007619D01*
X001993Y007619D01*
X001777Y007708D01*
X001738Y007747D01*
X001738Y007739D01*
X001648Y007523D01*
X001483Y007358D01*
X001267Y007269D01*
X000833Y007269D01*
X000765Y007297D01*
X000765Y007210D02*
X002715Y007210D01*
X002707Y007111D02*
X000765Y007111D01*
X000765Y007013D02*
X002719Y007013D01*
X002760Y006914D02*
X000765Y006914D01*
X000765Y006816D02*
X002855Y006816D01*
X003295Y006816D02*
X008085Y006816D01*
X008085Y006914D02*
X003390Y006914D01*
X003431Y007013D02*
X008085Y007013D01*
X008085Y007111D02*
X003443Y007111D01*
X003435Y007210D02*
X008085Y007210D01*
X008085Y007308D02*
X003394Y007308D01*
X003305Y007407D02*
X008085Y007407D01*
X008085Y007505D02*
X003285Y007505D01*
X003285Y007604D02*
X008085Y007604D01*
X008085Y007646D02*
X008085Y006327D01*
X008063Y006305D01*
X008007Y006170D01*
X008007Y006023D01*
X008063Y005888D01*
X008166Y005784D01*
X008302Y005728D01*
X008448Y005728D01*
X008584Y005784D01*
X008687Y005888D01*
X008743Y006023D01*
X008743Y006170D01*
X008687Y006305D01*
X008665Y006327D01*
X008665Y007646D01*
X008687Y007668D01*
X008743Y007803D01*
X008743Y007950D01*
X008687Y008085D01*
X008584Y008188D01*
X008448Y008244D01*
X008302Y008244D01*
X008166Y008188D01*
X008063Y008085D01*
X008007Y007950D01*
X008007Y007803D01*
X008063Y007668D01*
X008085Y007646D01*
X008049Y007702D02*
X003285Y007702D01*
X003285Y007801D02*
X008008Y007801D01*
X008007Y007899D02*
X003269Y007899D01*
X003176Y007998D02*
X008027Y007998D01*
X008074Y008096D02*
X003086Y008096D01*
X002997Y008195D02*
X008182Y008195D01*
X008568Y008195D02*
X013745Y008195D01*
X013745Y008293D02*
X002985Y008293D01*
X002985Y008392D02*
X013745Y008392D01*
X013745Y008490D02*
X002985Y008490D01*
X002985Y008589D02*
X013745Y008589D01*
X013745Y008687D02*
X002985Y008687D01*
X002985Y008786D02*
X013745Y008786D01*
X013745Y008884D02*
X002985Y008884D01*
X002985Y008983D02*
X013745Y008983D01*
X013745Y009081D02*
X002985Y009081D01*
X002985Y009180D02*
X013745Y009180D01*
X013745Y009278D02*
X002985Y009278D01*
X002985Y009377D02*
X013745Y009377D01*
X013745Y009475D02*
X002985Y009475D01*
X002985Y009574D02*
X013745Y009574D01*
X013745Y009672D02*
X002985Y009672D01*
X002985Y009771D02*
X013828Y009771D01*
X013745Y009687D02*
X013745Y008079D01*
X013670Y008004D01*
X013617Y007876D01*
X013617Y007737D01*
X013670Y007609D01*
X013745Y007534D01*
X013745Y007255D01*
X013874Y007126D01*
X014064Y006936D01*
X015296Y006936D01*
X015318Y006958D01*
X015424Y006958D01*
X015552Y007011D01*
X015650Y007109D01*
X015703Y007237D01*
X015703Y007376D01*
X015650Y007504D01*
X015552Y007602D01*
X015424Y007655D01*
X015286Y007655D01*
X015158Y007602D01*
X015113Y007558D01*
X015113Y007576D01*
X015060Y007704D01*
X014962Y007802D01*
X014834Y007855D01*
X014728Y007855D01*
X014415Y008167D01*
X014415Y009425D01*
X015576Y010586D01*
X015705Y010715D01*
X015705Y012025D01*
X015825Y012145D01*
X015825Y012415D01*
X017166Y013756D01*
X018112Y013756D01*
X018188Y013681D01*
X018316Y013628D01*
X018454Y013628D01*
X018582Y013681D01*
X018595Y013694D01*
X018595Y012291D01*
X018595Y012291D01*
X018595Y012196D01*
X018595Y012101D01*
X018595Y012101D01*
X018595Y012100D01*
X018663Y012033D01*
X018730Y011966D01*
X020226Y010479D01*
X020117Y010479D01*
X019981Y010423D01*
X019878Y010320D01*
X019822Y010185D01*
X019822Y010038D01*
X019878Y009903D01*
X019970Y009811D01*
X019970Y008777D01*
X019047Y007854D01*
X018917Y007854D01*
X018781Y007798D01*
X018678Y007695D01*
X018622Y007560D01*
X018622Y007413D01*
X018678Y007278D01*
X018781Y007174D01*
X018917Y007118D01*
X019063Y007118D01*
X019199Y007174D01*
X019302Y007278D01*
X019358Y007413D01*
X019358Y007543D01*
X020410Y008595D01*
X020410Y009811D01*
X020502Y009903D01*
X020558Y010038D01*
X020558Y010185D01*
X020533Y010245D01*
X020622Y010208D01*
X020768Y010208D01*
X020904Y010264D01*
X021007Y010368D01*
X021063Y010503D01*
X021063Y010650D01*
X021007Y010785D01*
X020904Y010888D01*
X020768Y010944D01*
X020622Y010944D01*
X020486Y010888D01*
X020477Y010879D01*
X019055Y012292D01*
X019055Y014076D01*
X019137Y014158D01*
X019193Y014293D01*
X019193Y014440D01*
X019137Y014575D01*
X019034Y014678D01*
X018898Y014734D01*
X018752Y014734D01*
X018616Y014678D01*
X018605Y014667D01*
X018605Y015978D01*
X018668Y015978D01*
X018804Y016034D01*
X018907Y016138D01*
X018963Y016273D01*
X018963Y016420D01*
X018950Y016451D01*
X019054Y016494D01*
X019157Y016598D01*
X019213Y016733D01*
X019213Y016880D01*
X019196Y016922D01*
X019274Y016954D01*
X019377Y017058D01*
X019433Y017193D01*
X019433Y017340D01*
X019377Y017475D01*
X019285Y017567D01*
X019285Y017628D01*
X019378Y017628D01*
X019514Y017684D01*
X019617Y017788D01*
X019673Y017923D01*
X019673Y018070D01*
X019617Y018205D01*
X019514Y018308D01*
X019425Y018345D01*
X019575Y018495D01*
X019575Y018966D01*
X019667Y019058D01*
X019723Y019193D01*
X019723Y019340D01*
X019667Y019475D01*
X019564Y019578D01*
X019428Y019634D01*
X019282Y019634D01*
X019195Y019599D01*
X019195Y020385D01*
X019196Y020475D01*
X019195Y020476D01*
X019195Y020477D01*
X019131Y020541D01*
X018913Y020764D01*
X018913Y020900D01*
X018857Y021035D01*
X018754Y021138D01*
X018618Y021194D01*
X018472Y021194D01*
X018336Y021138D01*
X018233Y021035D01*
X018177Y020900D01*
X018177Y020753D01*
X018233Y020618D01*
X018336Y020514D01*
X018472Y020458D01*
X018597Y020458D01*
X018755Y020297D01*
X018755Y018617D01*
X018374Y018236D01*
X018245Y018107D01*
X018245Y016463D01*
X018227Y016420D01*
X018227Y016289D01*
X018165Y016227D01*
X018165Y014249D01*
X018112Y014196D01*
X017906Y014196D01*
X018015Y014305D01*
X018015Y014487D01*
X018015Y014674D01*
X018090Y014749D01*
X018143Y014877D01*
X018143Y015016D01*
X018090Y015144D01*
X017992Y015242D01*
X017864Y015295D01*
X017726Y015295D01*
X017598Y015242D01*
X017500Y015144D01*
X017447Y015016D01*
X017447Y014877D01*
X017500Y014749D01*
X017575Y014674D01*
X017575Y014487D01*
X017504Y014416D01*
X016894Y014416D01*
X015212Y012735D01*
X015156Y012735D01*
X015028Y012682D01*
X014930Y012584D01*
X014877Y012456D01*
X014877Y012317D01*
X014930Y012189D01*
X015005Y012114D01*
X015005Y010947D01*
X013745Y009687D01*
X013965Y009596D02*
X015225Y010856D01*
X015225Y012386D01*
X015225Y012436D01*
X016985Y014196D01*
X017595Y014196D01*
X017795Y014396D01*
X017795Y014946D01*
X018037Y014696D02*
X018165Y014696D01*
X018165Y014794D02*
X018109Y014794D01*
X018143Y014893D02*
X018165Y014893D01*
X018165Y014991D02*
X018143Y014991D01*
X018165Y015090D02*
X018113Y015090D01*
X018165Y015188D02*
X018046Y015188D01*
X018165Y015287D02*
X017883Y015287D01*
X017707Y015287D02*
X017045Y015287D01*
X017045Y015385D02*
X018165Y015385D01*
X018165Y015484D02*
X017045Y015484D01*
X017045Y015582D02*
X018165Y015582D01*
X018165Y015681D02*
X017045Y015681D01*
X017045Y015779D02*
X018165Y015779D01*
X018165Y015878D02*
X017045Y015878D01*
X017045Y015976D02*
X018165Y015976D01*
X018165Y016075D02*
X017070Y016075D01*
X017067Y016068D02*
X017123Y016203D01*
X017123Y016350D01*
X017067Y016485D01*
X017045Y016507D01*
X017045Y017396D01*
X017067Y017418D01*
X017123Y017553D01*
X017123Y017700D01*
X017067Y017835D01*
X017045Y017857D01*
X017045Y018756D01*
X017067Y018778D01*
X017123Y018913D01*
X017123Y019060D01*
X017067Y019195D01*
X017045Y019217D01*
X017045Y020246D01*
X017077Y020278D01*
X017133Y020413D01*
X017133Y020560D01*
X017077Y020695D01*
X016974Y020798D01*
X016838Y020854D01*
X016692Y020854D01*
X016556Y020798D01*
X016453Y020695D01*
X016397Y020560D01*
X016397Y020413D01*
X016453Y020278D01*
X016465Y020266D01*
X016465Y019217D01*
X016443Y019195D01*
X016387Y019060D01*
X016387Y018913D01*
X016443Y018778D01*
X016465Y018756D01*
X016465Y017857D01*
X016443Y017835D01*
X016387Y017700D01*
X016387Y017553D01*
X016443Y017418D01*
X016465Y017396D01*
X016465Y016507D01*
X016443Y016485D01*
X016387Y016350D01*
X016387Y016203D01*
X016443Y016068D01*
X016465Y016046D01*
X016465Y015037D01*
X016443Y015015D01*
X016387Y014880D01*
X016387Y014733D01*
X016443Y014598D01*
X016546Y014494D01*
X016682Y014438D01*
X016828Y014438D01*
X016964Y014494D01*
X017067Y014598D01*
X017123Y014733D01*
X017123Y014880D01*
X017067Y015015D01*
X017045Y015037D01*
X017045Y016046D01*
X017067Y016068D01*
X017111Y016173D02*
X018165Y016173D01*
X018209Y016272D02*
X017123Y016272D01*
X017114Y016370D02*
X018227Y016370D01*
X018245Y016469D02*
X017074Y016469D01*
X017045Y016567D02*
X018245Y016567D01*
X018245Y016666D02*
X017045Y016666D01*
X017045Y016764D02*
X018245Y016764D01*
X018245Y016863D02*
X017045Y016863D01*
X017045Y016961D02*
X018245Y016961D01*
X018245Y017060D02*
X017045Y017060D01*
X017045Y017158D02*
X018245Y017158D01*
X018245Y017257D02*
X017045Y017257D01*
X017045Y017355D02*
X018245Y017355D01*
X018245Y017454D02*
X017082Y017454D01*
X017123Y017552D02*
X018245Y017552D01*
X018245Y017651D02*
X017123Y017651D01*
X017102Y017749D02*
X018245Y017749D01*
X018245Y017848D02*
X017054Y017848D01*
X017045Y017946D02*
X018245Y017946D01*
X018245Y018045D02*
X017045Y018045D01*
X017045Y018143D02*
X018281Y018143D01*
X018379Y018242D02*
X017045Y018242D01*
X017045Y018340D02*
X018478Y018340D01*
X018576Y018439D02*
X017045Y018439D01*
X017045Y018537D02*
X018675Y018537D01*
X018755Y018636D02*
X017045Y018636D01*
X017045Y018734D02*
X018755Y018734D01*
X018755Y018833D02*
X017090Y018833D01*
X017123Y018931D02*
X018755Y018931D01*
X018755Y019030D02*
X017123Y019030D01*
X017095Y019128D02*
X018755Y019128D01*
X018755Y019227D02*
X017045Y019227D01*
X017045Y019325D02*
X018755Y019325D01*
X018755Y019424D02*
X017045Y019424D01*
X017045Y019522D02*
X018755Y019522D01*
X018755Y019621D02*
X017045Y019621D01*
X017045Y019719D02*
X018755Y019719D01*
X018755Y019818D02*
X017045Y019818D01*
X017045Y019916D02*
X018755Y019916D01*
X018755Y020015D02*
X017045Y020015D01*
X017045Y020113D02*
X018755Y020113D01*
X018755Y020212D02*
X017045Y020212D01*
X017091Y020310D02*
X018742Y020310D01*
X018645Y020409D02*
X017131Y020409D01*
X017133Y020507D02*
X018353Y020507D01*
X018245Y020606D02*
X017114Y020606D01*
X017068Y020704D02*
X018197Y020704D01*
X018177Y020803D02*
X016963Y020803D01*
X016567Y020803D02*
X015095Y020803D01*
X015095Y020901D02*
X018178Y020901D01*
X018218Y021000D02*
X015095Y021000D01*
X015095Y021098D02*
X018296Y021098D01*
X018545Y020826D02*
X018975Y020386D01*
X018975Y018526D01*
X018465Y018016D01*
X018465Y016476D01*
X018595Y016346D01*
X018385Y016136D01*
X018385Y013976D01*
X017075Y013976D01*
X015605Y012506D01*
X015605Y012236D01*
X015485Y012116D01*
X015485Y010806D01*
X014195Y009516D01*
X014195Y008076D01*
X014765Y007506D01*
X015102Y007604D02*
X015163Y007604D01*
X015061Y007702D02*
X018685Y007702D01*
X018640Y007604D02*
X015547Y007604D01*
X015649Y007505D02*
X018622Y007505D01*
X018624Y007407D02*
X015690Y007407D01*
X015703Y007308D02*
X018665Y007308D01*
X018746Y007210D02*
X015692Y007210D01*
X015651Y007111D02*
X021865Y007111D01*
X021865Y007013D02*
X015554Y007013D01*
X015355Y007306D02*
X015205Y007156D01*
X014155Y007156D01*
X013965Y007346D01*
X013965Y007806D01*
X013965Y009596D01*
X013927Y009869D02*
X002985Y009869D01*
X002985Y009968D02*
X014025Y009968D01*
X014124Y010066D02*
X002985Y010066D01*
X002985Y010165D02*
X014222Y010165D01*
X014321Y010263D02*
X002985Y010263D01*
X002985Y010362D02*
X014419Y010362D01*
X014518Y010460D02*
X002985Y010460D01*
X002985Y010559D02*
X014616Y010559D01*
X014715Y010657D02*
X002987Y010657D01*
X002985Y010756D02*
X014813Y010756D01*
X014912Y010854D02*
X002955Y010854D01*
X002852Y010953D02*
X015005Y010953D01*
X015005Y011051D02*
X002749Y011051D01*
X002646Y011150D02*
X015005Y011150D01*
X015005Y011248D02*
X002543Y011248D01*
X002440Y011347D02*
X015005Y011347D01*
X015005Y011445D02*
X002337Y011445D01*
X002234Y011544D02*
X015005Y011544D01*
X015005Y011642D02*
X007461Y011642D01*
X007445Y011627D02*
X007584Y011766D01*
X007660Y011948D01*
X007660Y012131D01*
X007785Y012256D01*
X009964Y012256D01*
X009986Y012234D01*
X010122Y012178D01*
X010268Y012178D01*
X010404Y012234D01*
X010507Y012338D01*
X010563Y012473D01*
X010563Y012620D01*
X010507Y012755D01*
X010404Y012858D01*
X010268Y012914D01*
X010122Y012914D01*
X009986Y012858D01*
X009964Y012836D01*
X007607Y012836D01*
X007501Y012792D01*
X007250Y012541D01*
X007067Y012541D01*
X006885Y012466D01*
X006835Y012416D01*
X006115Y012416D01*
X006065Y012466D01*
X005883Y012541D01*
X005687Y012541D01*
X005505Y012466D01*
X005366Y012327D01*
X005290Y012145D01*
X005290Y011948D01*
X005366Y011766D01*
X005505Y011627D01*
X005687Y011552D01*
X005883Y011552D01*
X006065Y011627D01*
X006115Y011676D01*
X006835Y011676D01*
X006885Y011627D01*
X007067Y011552D01*
X007263Y011552D01*
X007445Y011627D01*
X007559Y011741D02*
X015005Y011741D01*
X015005Y011839D02*
X007615Y011839D01*
X007656Y011938D02*
X015005Y011938D01*
X015005Y012036D02*
X007660Y012036D01*
X007664Y012135D02*
X014984Y012135D01*
X014911Y012233D02*
X010401Y012233D01*
X010501Y012332D02*
X014877Y012332D01*
X014877Y012430D02*
X010545Y012430D01*
X010563Y012529D02*
X014907Y012529D01*
X014973Y012627D02*
X010560Y012627D01*
X010519Y012726D02*
X015134Y012726D01*
X015302Y012824D02*
X010438Y012824D01*
X009989Y012233D02*
X007762Y012233D01*
X008095Y011796D02*
X008125Y011766D01*
X007336Y012627D02*
X001475Y012627D01*
X001475Y012529D02*
X005657Y012529D01*
X005469Y012430D02*
X001475Y012430D01*
X001475Y012332D02*
X005371Y012332D01*
X005327Y012233D02*
X001475Y012233D01*
X001475Y012135D02*
X005290Y012135D01*
X005290Y012036D02*
X001475Y012036D01*
X001475Y011938D02*
X005294Y011938D01*
X005335Y011839D02*
X001475Y011839D01*
X001475Y011741D02*
X005391Y011741D01*
X005489Y011642D02*
X001486Y011642D01*
X001475Y012726D02*
X007434Y012726D01*
X007578Y012824D02*
X001475Y012824D01*
X001475Y012923D02*
X015400Y012923D01*
X015499Y013021D02*
X001475Y013021D01*
X001475Y013120D02*
X015597Y013120D01*
X015696Y013218D02*
X001484Y013218D01*
X001583Y013317D02*
X015794Y013317D01*
X015893Y013415D02*
X002615Y013415D01*
X002692Y013514D02*
X015991Y013514D01*
X016090Y013612D02*
X002733Y013612D01*
X002733Y013711D02*
X003618Y013711D01*
X003648Y013681D02*
X003776Y013628D01*
X003914Y013628D01*
X004042Y013681D01*
X004108Y013746D01*
X004970Y013746D01*
X005910Y014686D01*
X006070Y014686D01*
X006340Y014956D01*
X006475Y015091D01*
X006475Y015374D01*
X006540Y015439D01*
X006593Y015567D01*
X006593Y015706D01*
X006540Y015834D01*
X006442Y015932D01*
X006314Y015985D01*
X006176Y015985D01*
X006048Y015932D01*
X005950Y015834D01*
X005897Y015706D01*
X005897Y015634D01*
X005894Y015635D01*
X005756Y015635D01*
X005628Y015582D01*
X005530Y015484D01*
X001275Y015484D01*
X001275Y015582D02*
X005629Y015582D01*
X005530Y015484D02*
X005477Y015356D01*
X005477Y015263D01*
X005120Y014906D01*
X004118Y014906D01*
X004052Y014972D01*
X003924Y015025D01*
X003786Y015025D01*
X003658Y014972D01*
X003560Y014874D01*
X003507Y014746D01*
X003507Y014607D01*
X003560Y014479D01*
X003658Y014381D01*
X003786Y014328D01*
X003924Y014328D01*
X004052Y014381D01*
X004118Y014446D01*
X005020Y014446D01*
X004780Y014206D01*
X004108Y014206D01*
X004042Y014272D01*
X003914Y014325D01*
X003776Y014325D01*
X003648Y014272D01*
X003550Y014174D01*
X003497Y014046D01*
X003497Y013907D01*
X003550Y013779D01*
X003648Y013681D01*
X003537Y013809D02*
X002712Y013809D01*
X002664Y013908D02*
X003497Y013908D01*
X003497Y014006D02*
X002554Y014006D01*
X002176Y014006D02*
X001275Y014006D01*
X001275Y013908D02*
X002066Y013908D01*
X002115Y013415D02*
X001681Y013415D01*
X001383Y013711D02*
X001275Y013711D01*
X001275Y013809D02*
X001481Y013809D01*
X001284Y013612D02*
X001275Y013612D01*
X001275Y014105D02*
X003521Y014105D01*
X003579Y014203D02*
X001275Y014203D01*
X001275Y014302D02*
X003720Y014302D01*
X003638Y014400D02*
X001275Y014400D01*
X001275Y014499D02*
X003551Y014499D01*
X003511Y014597D02*
X001275Y014597D01*
X001275Y014696D02*
X003507Y014696D01*
X003527Y014794D02*
X001275Y014794D01*
X001275Y014893D02*
X003579Y014893D01*
X003705Y014991D02*
X001275Y014991D01*
X001275Y015090D02*
X005303Y015090D01*
X005205Y014991D02*
X004005Y014991D01*
X004072Y014400D02*
X004974Y014400D01*
X004875Y014302D02*
X003970Y014302D01*
X004072Y013711D02*
X016188Y013711D01*
X016287Y013809D02*
X005033Y013809D01*
X005132Y013908D02*
X016385Y013908D01*
X016484Y014006D02*
X005230Y014006D01*
X005329Y014105D02*
X009469Y014105D01*
X009357Y014203D02*
X005427Y014203D01*
X005526Y014302D02*
X008798Y014302D01*
X008700Y014400D02*
X005624Y014400D01*
X005723Y014499D02*
X008601Y014499D01*
X008503Y014597D02*
X005821Y014597D01*
X006080Y014696D02*
X008404Y014696D01*
X008355Y014794D02*
X006178Y014794D01*
X006277Y014893D02*
X008355Y014893D01*
X008355Y014991D02*
X006375Y014991D01*
X006474Y015090D02*
X008355Y015090D01*
X008355Y015188D02*
X006475Y015188D01*
X006475Y015287D02*
X008355Y015287D01*
X008355Y015385D02*
X006487Y015385D01*
X006559Y015484D02*
X008355Y015484D01*
X008355Y015582D02*
X006593Y015582D01*
X006593Y015681D02*
X008349Y015681D01*
X008251Y015779D02*
X006563Y015779D01*
X006496Y015878D02*
X007972Y015878D01*
X007874Y015976D02*
X006335Y015976D01*
X006155Y015976D02*
X001275Y015976D01*
X001275Y015878D02*
X005994Y015878D01*
X005927Y015779D02*
X001275Y015779D01*
X001275Y015681D02*
X005897Y015681D01*
X005489Y015385D02*
X001275Y015385D01*
X001275Y015287D02*
X005477Y015287D01*
X005402Y015188D02*
X001275Y015188D01*
X001275Y016075D02*
X007775Y016075D01*
X007677Y016173D02*
X001275Y016173D01*
X001275Y016272D02*
X007578Y016272D01*
X007480Y016370D02*
X001275Y016370D01*
X001275Y016469D02*
X001410Y016469D01*
X001312Y016567D02*
X001275Y016567D01*
X001540Y016933D02*
X001540Y017308D01*
X001262Y017586D01*
X000868Y017586D01*
X000765Y017483D01*
X000765Y017739D01*
X000868Y017636D01*
X001243Y017636D01*
X001473Y017406D01*
X001647Y017406D01*
X001716Y017406D01*
X001610Y017300D01*
X001610Y017155D01*
X002021Y017155D01*
X002021Y017068D01*
X001610Y017068D01*
X001610Y016923D01*
X001706Y016826D01*
X001647Y016826D01*
X001540Y016933D01*
X001540Y016961D02*
X001610Y016961D01*
X001610Y016863D02*
X001670Y016863D01*
X001610Y017060D02*
X001540Y017060D01*
X001540Y017158D02*
X001610Y017158D01*
X001610Y017257D02*
X001540Y017257D01*
X001493Y017355D02*
X001665Y017355D01*
X001425Y017454D02*
X001394Y017454D01*
X001327Y017552D02*
X001296Y017552D01*
X000854Y017651D02*
X000765Y017651D01*
X000765Y017552D02*
X000834Y017552D01*
X002424Y019424D02*
X003950Y019424D01*
X004340Y019424D02*
X014515Y019424D01*
X014515Y019522D02*
X002326Y019522D01*
X002315Y019621D02*
X014515Y019621D01*
X014515Y019719D02*
X002315Y019719D01*
X002315Y019818D02*
X014515Y019818D01*
X014515Y019916D02*
X002315Y019916D01*
X002315Y020015D02*
X014515Y020015D01*
X014515Y020113D02*
X002315Y020113D01*
X002315Y020212D02*
X014515Y020212D01*
X014515Y020310D02*
X002315Y020310D01*
X002315Y020409D02*
X010019Y020409D01*
X010411Y020409D02*
X014515Y020409D01*
X014515Y020507D02*
X010517Y020507D01*
X010564Y020606D02*
X014515Y020606D01*
X014515Y020704D02*
X010583Y020704D01*
X010582Y020803D02*
X014515Y020803D01*
X014515Y020901D02*
X010541Y020901D01*
X010465Y021000D02*
X014515Y021000D01*
X014515Y021098D02*
X010465Y021098D01*
X010465Y021197D02*
X014515Y021197D01*
X014505Y021295D02*
X010465Y021295D01*
X010465Y021394D02*
X014457Y021394D01*
X014437Y021492D02*
X010465Y021492D01*
X010465Y021591D02*
X014437Y021591D01*
X014478Y021689D02*
X010465Y021689D01*
X010465Y021788D02*
X014556Y021788D01*
X014765Y021886D02*
X010465Y021886D01*
X010526Y021985D02*
X014863Y021985D01*
X014962Y022083D02*
X010624Y022083D01*
X010722Y022182D02*
X015060Y022182D01*
X015159Y022280D02*
X010819Y022280D01*
X010917Y022379D02*
X015257Y022379D01*
X015356Y022477D02*
X011015Y022477D01*
X011113Y022576D02*
X015454Y022576D01*
X015313Y022871D02*
X016097Y022871D01*
X016313Y022871D02*
X017097Y022871D01*
X017313Y022871D02*
X018097Y022871D01*
X018313Y022871D02*
X019097Y022871D01*
X019313Y022871D02*
X020360Y022871D01*
X020262Y022773D02*
X019924Y022773D01*
X019940Y022674D02*
X020163Y022674D01*
X020145Y022576D02*
X019940Y022576D01*
X019940Y022477D02*
X020145Y022477D01*
X020145Y022379D02*
X019940Y022379D01*
X019985Y022280D02*
X020145Y022280D01*
X020178Y021689D02*
X015388Y021689D01*
X015290Y021591D02*
X020145Y021591D01*
X020145Y021492D02*
X015191Y021492D01*
X015153Y021394D02*
X020145Y021394D01*
X020145Y021295D02*
X015105Y021295D01*
X015095Y021197D02*
X020215Y021197D01*
X020313Y021098D02*
X018794Y021098D01*
X018872Y021000D02*
X020412Y021000D01*
X020420Y020931D02*
X020145Y020656D01*
X020145Y020267D01*
X020420Y019991D01*
X020810Y019991D01*
X021085Y020267D01*
X021085Y020656D01*
X020810Y020931D01*
X020420Y020931D01*
X020390Y020901D02*
X018912Y020901D01*
X018913Y020803D02*
X020292Y020803D01*
X020193Y020704D02*
X018972Y020704D01*
X019068Y020606D02*
X020145Y020606D01*
X020145Y020507D02*
X019165Y020507D01*
X019195Y020409D02*
X020145Y020409D01*
X020145Y020310D02*
X019195Y020310D01*
X019195Y020212D02*
X020200Y020212D01*
X020298Y020113D02*
X019195Y020113D01*
X019195Y020015D02*
X020397Y020015D01*
X020429Y019911D02*
X020165Y019648D01*
X020165Y019511D01*
X020565Y019511D01*
X020565Y019411D01*
X020665Y019411D01*
X020665Y019011D01*
X020801Y019011D01*
X021065Y019275D01*
X021065Y019411D01*
X020665Y019411D01*
X020665Y019511D01*
X021065Y019511D01*
X021065Y019648D01*
X020801Y019911D01*
X020665Y019911D01*
X020665Y019511D01*
X020565Y019511D01*
X020565Y019911D01*
X020429Y019911D01*
X020335Y019818D02*
X019195Y019818D01*
X019195Y019916D02*
X021405Y019916D01*
X021397Y020015D02*
X020833Y020015D01*
X020932Y020113D02*
X021298Y020113D01*
X021200Y020212D02*
X021030Y020212D01*
X021085Y020310D02*
X021145Y020310D01*
X021145Y020409D02*
X021085Y020409D01*
X021085Y020507D02*
X021145Y020507D01*
X021145Y020606D02*
X021085Y020606D01*
X021037Y020704D02*
X021193Y020704D01*
X021292Y020803D02*
X020938Y020803D01*
X020840Y020901D02*
X021390Y020901D01*
X021412Y021000D02*
X020818Y021000D01*
X020917Y021098D02*
X021313Y021098D01*
X021215Y021197D02*
X021015Y021197D01*
X021085Y021295D02*
X021145Y021295D01*
X021145Y021394D02*
X021085Y021394D01*
X021085Y021492D02*
X021145Y021492D01*
X021145Y021591D02*
X021085Y021591D01*
X021052Y021689D02*
X021178Y021689D01*
X021145Y022379D02*
X021085Y022379D01*
X021085Y022477D02*
X021145Y022477D01*
X021145Y022576D02*
X021085Y022576D01*
X021067Y022674D02*
X021163Y022674D01*
X021262Y022773D02*
X020968Y022773D01*
X020870Y022871D02*
X021360Y022871D01*
X021365Y022970D02*
X019527Y022970D01*
X019626Y023068D02*
X020343Y023068D01*
X020245Y023167D02*
X019688Y023167D01*
X019729Y023265D02*
X020146Y023265D01*
X020145Y023364D02*
X019745Y023364D01*
X019745Y023462D02*
X020145Y023462D01*
X020145Y023561D02*
X019728Y023561D01*
X019687Y023659D02*
X020148Y023659D01*
X020887Y023068D02*
X021343Y023068D01*
X021245Y023167D02*
X020985Y023167D01*
X021084Y023265D02*
X021146Y023265D01*
X021145Y023364D02*
X021085Y023364D01*
X021085Y023462D02*
X021145Y023462D01*
X021145Y023561D02*
X021085Y023561D01*
X021082Y023659D02*
X021148Y023659D01*
X019770Y021788D02*
X015487Y021788D01*
X015585Y021886D02*
X018640Y021886D01*
X018541Y021985D02*
X015684Y021985D01*
X015097Y022871D02*
X014313Y022871D01*
X014097Y022871D02*
X012638Y022871D01*
X012615Y022871D02*
X012515Y022871D01*
X012492Y022871D02*
X011733Y022871D01*
X011912Y022970D02*
X012254Y022970D01*
X012153Y023068D02*
X012011Y023068D01*
X012059Y023167D02*
X012093Y023167D01*
X012515Y023167D02*
X012615Y023167D01*
X012615Y023265D02*
X012515Y023265D01*
X012615Y023364D02*
X013665Y023364D01*
X013665Y023462D02*
X013079Y023462D01*
X013055Y023561D02*
X013682Y023561D01*
X013723Y023659D02*
X013009Y023659D01*
X013072Y023265D02*
X013681Y023265D01*
X013722Y023167D02*
X013037Y023167D01*
X012977Y023068D02*
X013784Y023068D01*
X013883Y022970D02*
X012876Y022970D01*
X012615Y022970D02*
X012515Y022970D01*
X012515Y023068D02*
X012615Y023068D01*
X011308Y022773D02*
X018556Y022773D01*
X018540Y022674D02*
X011211Y022674D01*
X010897Y023068D02*
X009315Y023068D01*
X009315Y022970D02*
X010799Y022970D01*
X010702Y022871D02*
X009315Y022871D01*
X009288Y022773D02*
X010604Y022773D01*
X010506Y022674D02*
X009247Y022674D01*
X009207Y022576D02*
X010408Y022576D01*
X010310Y022477D02*
X009166Y022477D01*
X009072Y022379D02*
X010213Y022379D01*
X010115Y022280D02*
X008973Y022280D01*
X008865Y022182D02*
X010017Y022182D01*
X009968Y022083D02*
X008627Y022083D01*
X008003Y022083D02*
X006853Y022083D01*
X006952Y021985D02*
X009965Y021985D01*
X009965Y021886D02*
X007050Y021886D01*
X007149Y021788D02*
X009965Y021788D01*
X009965Y021689D02*
X007247Y021689D01*
X007346Y021591D02*
X009965Y021591D01*
X009965Y021492D02*
X007444Y021492D01*
X007543Y021394D02*
X009965Y021394D01*
X009965Y021295D02*
X007641Y021295D01*
X007740Y021197D02*
X009965Y021197D01*
X009965Y021098D02*
X007838Y021098D01*
X007412Y020704D02*
X002315Y020704D01*
X002315Y020606D02*
X007510Y020606D01*
X007609Y020507D02*
X002315Y020507D01*
X002277Y020803D02*
X007313Y020803D01*
X007215Y020901D02*
X002179Y020901D01*
X002268Y021000D02*
X002862Y021000D01*
X002870Y020991D02*
X003260Y020991D01*
X003535Y021267D01*
X003535Y021656D01*
X003260Y021931D01*
X002870Y021931D01*
X002595Y021656D01*
X002595Y021267D01*
X002870Y020991D01*
X002763Y021098D02*
X002367Y021098D01*
X002465Y021197D02*
X002665Y021197D01*
X002595Y021295D02*
X002535Y021295D01*
X002535Y021394D02*
X002595Y021394D01*
X002595Y021492D02*
X002535Y021492D01*
X002535Y021591D02*
X002595Y021591D01*
X002628Y021689D02*
X002502Y021689D01*
X002403Y021788D02*
X002727Y021788D01*
X002825Y021886D02*
X002305Y021886D01*
X002352Y022083D02*
X002778Y022083D01*
X002870Y021991D02*
X003260Y021991D01*
X003535Y022267D01*
X003535Y022656D01*
X003260Y022931D01*
X002870Y022931D01*
X002595Y022656D01*
X002595Y022267D01*
X002870Y021991D01*
X002680Y022182D02*
X002450Y022182D01*
X002535Y022280D02*
X002595Y022280D01*
X002595Y022379D02*
X002535Y022379D01*
X002535Y022477D02*
X002595Y022477D01*
X002595Y022576D02*
X002535Y022576D01*
X002517Y022674D02*
X002613Y022674D01*
X002712Y022773D02*
X002418Y022773D01*
X002320Y022871D02*
X002810Y022871D01*
X002822Y023068D02*
X002308Y023068D01*
X002407Y023167D02*
X002723Y023167D01*
X002625Y023265D02*
X002505Y023265D01*
X002515Y023364D02*
X002615Y023364D01*
X002615Y023561D02*
X002515Y023561D01*
X002503Y023659D02*
X002627Y023659D01*
X003015Y023462D02*
X002115Y023462D01*
X002115Y023364D02*
X002015Y023364D01*
X002015Y023462D02*
X001115Y023462D01*
X001115Y023364D02*
X001015Y023364D01*
X001015Y023265D02*
X001115Y023265D01*
X001115Y023167D02*
X001015Y023167D01*
X001015Y023068D02*
X001115Y023068D01*
X001308Y023068D02*
X001822Y023068D01*
X001723Y023167D02*
X001407Y023167D01*
X001505Y023265D02*
X001625Y023265D01*
X001615Y023364D02*
X001515Y023364D01*
X001515Y023561D02*
X001615Y023561D01*
X001627Y023659D02*
X001503Y023659D01*
X002015Y023265D02*
X002115Y023265D01*
X002115Y023167D02*
X002015Y023167D01*
X002015Y023068D02*
X002115Y023068D01*
X001810Y022871D02*
X001320Y022871D01*
X001418Y022773D02*
X001712Y022773D01*
X001613Y022674D02*
X001517Y022674D01*
X001535Y022576D02*
X001595Y022576D01*
X001595Y022477D02*
X001535Y022477D01*
X001535Y022379D02*
X001595Y022379D01*
X001942Y021985D02*
X006131Y021985D01*
X005825Y021886D02*
X005305Y021886D01*
X005260Y021931D02*
X004870Y021931D01*
X004595Y021656D01*
X004595Y021267D01*
X004870Y020991D01*
X005260Y020991D01*
X005535Y021267D01*
X005535Y021656D01*
X005260Y021931D01*
X005260Y021991D02*
X005535Y022267D01*
X005535Y022656D01*
X005260Y022931D01*
X004870Y022931D01*
X004595Y022656D01*
X004595Y022267D01*
X004870Y021991D01*
X005260Y021991D01*
X005352Y022083D02*
X005778Y022083D01*
X005680Y022182D02*
X005450Y022182D01*
X005535Y022280D02*
X005595Y022280D01*
X005595Y022379D02*
X005535Y022379D01*
X005535Y022477D02*
X005595Y022477D01*
X005595Y022576D02*
X005535Y022576D01*
X005517Y022674D02*
X005613Y022674D01*
X005712Y022773D02*
X005418Y022773D01*
X005320Y022871D02*
X005810Y022871D01*
X005822Y023068D02*
X005308Y023068D01*
X005407Y023167D02*
X005723Y023167D01*
X005625Y023265D02*
X005505Y023265D01*
X005515Y023364D02*
X005615Y023364D01*
X005615Y023561D02*
X005515Y023561D01*
X005503Y023659D02*
X005627Y023659D01*
X006015Y023462D02*
X005115Y023462D01*
X005115Y023364D02*
X005015Y023364D01*
X005015Y023462D02*
X004115Y023462D01*
X004115Y023364D02*
X004015Y023364D01*
X004015Y023462D02*
X003115Y023462D01*
X003115Y023364D02*
X003015Y023364D01*
X003015Y023265D02*
X003115Y023265D01*
X003115Y023167D02*
X003015Y023167D01*
X003015Y023068D02*
X003115Y023068D01*
X003308Y023068D02*
X003822Y023068D01*
X003723Y023167D02*
X003407Y023167D01*
X003505Y023265D02*
X003625Y023265D01*
X003615Y023364D02*
X003515Y023364D01*
X003515Y023561D02*
X003615Y023561D01*
X003627Y023659D02*
X003503Y023659D01*
X004015Y023265D02*
X004115Y023265D01*
X004115Y023167D02*
X004015Y023167D01*
X004015Y023068D02*
X004115Y023068D01*
X004308Y023068D02*
X004822Y023068D01*
X004723Y023167D02*
X004407Y023167D01*
X004505Y023265D02*
X004625Y023265D01*
X004615Y023364D02*
X004515Y023364D01*
X004515Y023561D02*
X004615Y023561D01*
X004627Y023659D02*
X004503Y023659D01*
X005015Y023265D02*
X005115Y023265D01*
X005115Y023167D02*
X005015Y023167D01*
X005015Y023068D02*
X005115Y023068D01*
X004810Y022871D02*
X004320Y022871D01*
X004260Y022931D02*
X003870Y022931D01*
X003595Y022656D01*
X003595Y022267D01*
X003870Y021991D01*
X004260Y021991D01*
X004535Y022267D01*
X004535Y022656D01*
X004260Y022931D01*
X004418Y022773D02*
X004712Y022773D01*
X004613Y022674D02*
X004517Y022674D01*
X004535Y022576D02*
X004595Y022576D01*
X004595Y022477D02*
X004535Y022477D01*
X004535Y022379D02*
X004595Y022379D01*
X004595Y022280D02*
X004535Y022280D01*
X004450Y022182D02*
X004680Y022182D01*
X004778Y022083D02*
X004352Y022083D01*
X004260Y021931D02*
X003870Y021931D01*
X003595Y021656D01*
X003595Y021267D01*
X003870Y020991D01*
X004260Y020991D01*
X004535Y021267D01*
X004535Y021656D01*
X004260Y021931D01*
X004305Y021886D02*
X004825Y021886D01*
X004727Y021788D02*
X004403Y021788D01*
X004502Y021689D02*
X004628Y021689D01*
X004595Y021591D02*
X004535Y021591D01*
X004535Y021492D02*
X004595Y021492D01*
X004595Y021394D02*
X004535Y021394D01*
X004535Y021295D02*
X004595Y021295D01*
X004665Y021197D02*
X004465Y021197D01*
X004367Y021098D02*
X004763Y021098D01*
X004862Y021000D02*
X004268Y021000D01*
X003862Y021000D02*
X003268Y021000D01*
X003367Y021098D02*
X003763Y021098D01*
X003665Y021197D02*
X003465Y021197D01*
X003535Y021295D02*
X003595Y021295D01*
X003595Y021394D02*
X003535Y021394D01*
X003535Y021492D02*
X003595Y021492D01*
X003595Y021591D02*
X003535Y021591D01*
X003502Y021689D02*
X003628Y021689D01*
X003727Y021788D02*
X003403Y021788D01*
X003305Y021886D02*
X003825Y021886D01*
X003778Y022083D02*
X003352Y022083D01*
X003450Y022182D02*
X003680Y022182D01*
X003595Y022280D02*
X003535Y022280D01*
X003535Y022379D02*
X003595Y022379D01*
X003595Y022477D02*
X003535Y022477D01*
X003535Y022576D02*
X003595Y022576D01*
X003613Y022674D02*
X003517Y022674D01*
X003418Y022773D02*
X003712Y022773D01*
X003810Y022871D02*
X003320Y022871D01*
X005268Y021000D02*
X005862Y021000D01*
X005763Y021098D02*
X005367Y021098D01*
X005465Y021197D02*
X005665Y021197D01*
X005595Y021295D02*
X005535Y021295D01*
X005535Y021394D02*
X005595Y021394D01*
X005595Y021492D02*
X005535Y021492D01*
X005535Y021591D02*
X005595Y021591D01*
X005628Y021689D02*
X005502Y021689D01*
X005403Y021788D02*
X005727Y021788D01*
X006367Y021098D02*
X007018Y021098D01*
X007116Y021000D02*
X006268Y021000D01*
X006465Y021197D02*
X006919Y021197D01*
X006821Y021295D02*
X006535Y021295D01*
X006535Y021394D02*
X006722Y021394D01*
X006624Y021492D02*
X006535Y021492D01*
X006755Y022182D02*
X007765Y022182D01*
X007657Y022280D02*
X006656Y022280D01*
X006558Y022379D02*
X007558Y022379D01*
X007464Y022477D02*
X006535Y022477D01*
X006535Y022576D02*
X007423Y022576D01*
X007383Y022674D02*
X006517Y022674D01*
X006418Y022773D02*
X007342Y022773D01*
X007315Y022871D02*
X006320Y022871D01*
X006308Y023068D02*
X007315Y023068D01*
X007315Y022970D02*
X000765Y022970D01*
X000765Y023068D02*
X000822Y023068D01*
X000810Y022871D02*
X000765Y022871D01*
X003335Y017749D02*
X005884Y017749D01*
X005847Y017651D02*
X003237Y017651D01*
X003138Y017552D02*
X005847Y017552D01*
X005871Y017454D02*
X003040Y017454D01*
X002941Y017355D02*
X005925Y017355D01*
X006048Y017257D02*
X002843Y017257D01*
X002835Y017158D02*
X007355Y017158D01*
X007355Y017060D02*
X002835Y017060D01*
X002835Y016961D02*
X007355Y016961D01*
X007355Y016863D02*
X002835Y016863D01*
X002820Y016764D02*
X007355Y016764D01*
X007355Y016666D02*
X002722Y016666D01*
X002623Y016567D02*
X007355Y016567D01*
X007381Y016469D02*
X002525Y016469D01*
X006215Y017586D02*
X007275Y017586D01*
X007575Y017286D01*
X007575Y016586D01*
X008105Y016056D01*
X008285Y016056D01*
X008575Y015766D01*
X008575Y014836D01*
X008985Y014426D01*
X009655Y014426D01*
X009728Y014794D02*
X014437Y014794D01*
X014465Y014696D02*
X009906Y014696D01*
X009983Y014597D02*
X014523Y014597D01*
X014658Y014499D02*
X010023Y014499D01*
X010023Y014400D02*
X016878Y014400D01*
X016968Y014499D02*
X017575Y014499D01*
X017575Y014597D02*
X017067Y014597D01*
X017108Y014696D02*
X017553Y014696D01*
X017481Y014794D02*
X017123Y014794D01*
X017118Y014893D02*
X017447Y014893D01*
X017447Y014991D02*
X017077Y014991D01*
X017045Y015090D02*
X017477Y015090D01*
X017544Y015188D02*
X017045Y015188D01*
X016465Y015188D02*
X015095Y015188D01*
X015095Y015090D02*
X016465Y015090D01*
X016433Y014991D02*
X015139Y014991D01*
X015173Y014893D02*
X016392Y014893D01*
X016387Y014794D02*
X015173Y014794D01*
X015145Y014696D02*
X016402Y014696D01*
X016443Y014597D02*
X015087Y014597D01*
X014952Y014499D02*
X016542Y014499D01*
X016779Y014302D02*
X010002Y014302D01*
X009953Y014203D02*
X016681Y014203D01*
X016582Y014105D02*
X009841Y014105D01*
X011255Y011726D02*
X011255Y011626D01*
X011245Y011656D01*
X011715Y010606D02*
X011725Y010596D01*
X011725Y010586D01*
X013185Y010106D02*
X013185Y010076D01*
X013675Y010706D02*
X013675Y010746D01*
X014662Y009672D02*
X019970Y009672D01*
X019970Y009574D02*
X014564Y009574D01*
X014465Y009475D02*
X019970Y009475D01*
X019970Y009377D02*
X014415Y009377D01*
X014415Y009278D02*
X019970Y009278D01*
X019970Y009180D02*
X014415Y009180D01*
X014415Y009081D02*
X019970Y009081D01*
X019970Y008983D02*
X014415Y008983D01*
X014415Y008884D02*
X019970Y008884D01*
X019970Y008786D02*
X014415Y008786D01*
X014415Y008687D02*
X019880Y008687D01*
X019781Y008589D02*
X014415Y008589D01*
X014415Y008490D02*
X019683Y008490D01*
X019584Y008392D02*
X014415Y008392D01*
X014415Y008293D02*
X019486Y008293D01*
X019387Y008195D02*
X014415Y008195D01*
X014486Y008096D02*
X019289Y008096D01*
X019190Y007998D02*
X014585Y007998D01*
X014683Y007899D02*
X019092Y007899D01*
X018787Y007801D02*
X014963Y007801D01*
X013987Y007013D02*
X008665Y007013D01*
X008665Y007111D02*
X013889Y007111D01*
X013790Y007210D02*
X008665Y007210D01*
X008665Y007308D02*
X013745Y007308D01*
X013745Y007407D02*
X008665Y007407D01*
X008665Y007505D02*
X013745Y007505D01*
X013675Y007604D02*
X008665Y007604D01*
X008701Y007702D02*
X013631Y007702D01*
X013617Y007801D02*
X008742Y007801D01*
X008743Y007899D02*
X013626Y007899D01*
X013667Y007998D02*
X008723Y007998D01*
X008676Y008096D02*
X013745Y008096D01*
X014761Y009771D02*
X019970Y009771D01*
X019911Y009869D02*
X014859Y009869D01*
X014958Y009968D02*
X019851Y009968D01*
X019822Y010066D02*
X015056Y010066D01*
X015155Y010165D02*
X019822Y010165D01*
X019855Y010263D02*
X015253Y010263D01*
X015352Y010362D02*
X019920Y010362D01*
X020071Y010460D02*
X015450Y010460D01*
X015549Y010559D02*
X020146Y010559D01*
X020047Y010657D02*
X015647Y010657D01*
X015705Y010756D02*
X019948Y010756D01*
X019849Y010854D02*
X015705Y010854D01*
X015705Y010953D02*
X019750Y010953D01*
X019651Y011051D02*
X015705Y011051D01*
X015705Y011150D02*
X019552Y011150D01*
X019453Y011248D02*
X015705Y011248D01*
X015705Y011347D02*
X019353Y011347D01*
X019254Y011445D02*
X015705Y011445D01*
X015705Y011544D02*
X019155Y011544D01*
X019056Y011642D02*
X015705Y011642D01*
X015705Y011741D02*
X018957Y011741D01*
X018858Y011839D02*
X015705Y011839D01*
X015705Y011938D02*
X018759Y011938D01*
X018730Y011966D02*
X018730Y011966D01*
X018660Y012036D02*
X015716Y012036D01*
X015815Y012135D02*
X018595Y012135D01*
X018595Y012233D02*
X015825Y012233D01*
X015825Y012332D02*
X018595Y012332D01*
X018595Y012430D02*
X015840Y012430D01*
X015939Y012529D02*
X018595Y012529D01*
X018595Y012627D02*
X016037Y012627D01*
X016136Y012726D02*
X018595Y012726D01*
X018595Y012824D02*
X016234Y012824D01*
X016333Y012923D02*
X018595Y012923D01*
X018595Y013021D02*
X016431Y013021D01*
X016530Y013120D02*
X018595Y013120D01*
X018595Y013218D02*
X016628Y013218D01*
X016727Y013317D02*
X018595Y013317D01*
X018595Y013415D02*
X016825Y013415D01*
X016924Y013514D02*
X018595Y013514D01*
X018595Y013612D02*
X017022Y013612D01*
X017121Y013711D02*
X018158Y013711D01*
X018119Y014203D02*
X017913Y014203D01*
X018012Y014302D02*
X018165Y014302D01*
X018165Y014400D02*
X018015Y014400D01*
X018015Y014499D02*
X018165Y014499D01*
X018165Y014597D02*
X018015Y014597D01*
X018605Y014696D02*
X018659Y014696D01*
X018605Y014794D02*
X020283Y014794D01*
X020185Y014696D02*
X018991Y014696D01*
X019115Y014597D02*
X020145Y014597D01*
X020145Y014656D02*
X020145Y014267D01*
X020420Y013991D01*
X020810Y013991D01*
X021085Y014267D01*
X021085Y014656D01*
X020810Y014931D01*
X020420Y014931D01*
X020145Y014656D01*
X020145Y014499D02*
X019169Y014499D01*
X019193Y014400D02*
X020145Y014400D01*
X020145Y014302D02*
X019193Y014302D01*
X019156Y014203D02*
X020208Y014203D01*
X020307Y014105D02*
X019084Y014105D01*
X019055Y014006D02*
X020405Y014006D01*
X020420Y013931D02*
X020145Y013656D01*
X020145Y013267D01*
X020420Y012991D01*
X020810Y012991D01*
X021085Y013267D01*
X021085Y013656D01*
X020810Y013931D01*
X020420Y013931D01*
X020397Y013908D02*
X019055Y013908D01*
X019055Y013809D02*
X020298Y013809D01*
X020200Y013711D02*
X019055Y013711D01*
X019055Y013612D02*
X020145Y013612D01*
X020145Y013514D02*
X019055Y013514D01*
X019055Y013415D02*
X020145Y013415D01*
X020145Y013317D02*
X019055Y013317D01*
X019055Y013218D02*
X020193Y013218D01*
X020292Y013120D02*
X019055Y013120D01*
X019055Y013021D02*
X020390Y013021D01*
X020420Y012931D02*
X020145Y012656D01*
X020145Y012267D01*
X020420Y011991D01*
X020810Y011991D01*
X021085Y012267D01*
X021085Y012656D01*
X020810Y012931D01*
X020420Y012931D01*
X020412Y012923D02*
X019055Y012923D01*
X019055Y012824D02*
X020313Y012824D01*
X020215Y012726D02*
X019055Y012726D01*
X019055Y012627D02*
X020145Y012627D01*
X020145Y012529D02*
X019055Y012529D01*
X019055Y012430D02*
X020145Y012430D01*
X020145Y012332D02*
X019055Y012332D01*
X019114Y012233D02*
X020178Y012233D01*
X020277Y012135D02*
X019213Y012135D01*
X019312Y012036D02*
X020375Y012036D01*
X020429Y011911D02*
X020165Y011648D01*
X020165Y011511D01*
X020565Y011511D01*
X020565Y011411D01*
X020665Y011411D01*
X020665Y011011D01*
X020801Y011011D01*
X021065Y011275D01*
X021065Y011411D01*
X020665Y011411D01*
X020665Y011511D01*
X021065Y011511D01*
X021065Y011648D01*
X020801Y011911D01*
X020665Y011911D01*
X020665Y011511D01*
X020565Y011511D01*
X020565Y011911D01*
X020429Y011911D01*
X020357Y011839D02*
X019510Y011839D01*
X019411Y011938D02*
X021865Y011938D01*
X021855Y012036D02*
X021865Y012036D01*
X021375Y012036D02*
X020855Y012036D01*
X020953Y012135D02*
X021277Y012135D01*
X021178Y012233D02*
X021052Y012233D01*
X021085Y012332D02*
X021145Y012332D01*
X021145Y012430D02*
X021085Y012430D01*
X021085Y012529D02*
X021145Y012529D01*
X021145Y012627D02*
X021085Y012627D01*
X021015Y012726D02*
X021215Y012726D01*
X021313Y012824D02*
X020917Y012824D01*
X020818Y012923D02*
X021412Y012923D01*
X021390Y013021D02*
X020840Y013021D01*
X020938Y013120D02*
X021292Y013120D01*
X021193Y013218D02*
X021037Y013218D01*
X021085Y013317D02*
X021145Y013317D01*
X021145Y013415D02*
X021085Y013415D01*
X021085Y013514D02*
X021145Y013514D01*
X021145Y013612D02*
X021085Y013612D01*
X021030Y013711D02*
X021200Y013711D01*
X021298Y013809D02*
X020932Y013809D01*
X020833Y013908D02*
X021397Y013908D01*
X021335Y014105D02*
X020923Y014105D01*
X020825Y014006D02*
X021865Y014006D01*
X021865Y013908D02*
X021833Y013908D01*
X021665Y014105D02*
X021565Y014105D01*
X021565Y014203D02*
X021665Y014203D01*
X021665Y014302D02*
X021565Y014302D01*
X021565Y014400D02*
X021665Y014400D01*
X021565Y014499D02*
X021085Y014499D01*
X021085Y014597D02*
X021165Y014597D01*
X021213Y014696D02*
X021045Y014696D01*
X020947Y014794D02*
X021312Y014794D01*
X021410Y014893D02*
X020848Y014893D01*
X020810Y014991D02*
X021085Y015267D01*
X021085Y015656D01*
X020810Y015931D01*
X020420Y015931D01*
X020145Y015656D01*
X020145Y015267D01*
X020420Y014991D01*
X020810Y014991D01*
X021420Y014991D01*
X021322Y015090D02*
X020908Y015090D01*
X021007Y015188D02*
X021223Y015188D01*
X021145Y015287D02*
X021085Y015287D01*
X021085Y015385D02*
X021145Y015385D01*
X021145Y015484D02*
X021085Y015484D01*
X021085Y015582D02*
X021145Y015582D01*
X021170Y015681D02*
X021060Y015681D01*
X020962Y015779D02*
X021268Y015779D01*
X021367Y015878D02*
X020863Y015878D01*
X020810Y015991D02*
X021085Y016267D01*
X021085Y016656D01*
X020810Y016931D01*
X020420Y016931D01*
X020145Y016656D01*
X020145Y016267D01*
X020420Y015991D01*
X020810Y015991D01*
X020893Y016075D02*
X021337Y016075D01*
X021238Y016173D02*
X020992Y016173D01*
X021085Y016272D02*
X021145Y016272D01*
X021145Y016370D02*
X021085Y016370D01*
X021085Y016469D02*
X021145Y016469D01*
X021145Y016567D02*
X021085Y016567D01*
X021075Y016666D02*
X021155Y016666D01*
X021253Y016764D02*
X020977Y016764D01*
X020878Y016863D02*
X021352Y016863D01*
X021380Y017060D02*
X020878Y017060D01*
X020810Y016991D02*
X021085Y017267D01*
X021085Y017656D01*
X020810Y017931D01*
X020420Y017931D01*
X020145Y017656D01*
X020145Y017267D01*
X020420Y016991D01*
X020810Y016991D01*
X020977Y017158D02*
X021282Y017158D01*
X021183Y017257D02*
X021075Y017257D01*
X021085Y017355D02*
X021165Y017355D01*
X021085Y017454D02*
X021565Y017454D01*
X021565Y017552D02*
X021665Y017552D01*
X021665Y017651D02*
X021565Y017651D01*
X021565Y017749D02*
X021665Y017749D01*
X021665Y017848D02*
X021565Y017848D01*
X021365Y017848D02*
X020893Y017848D01*
X020992Y017749D02*
X021267Y017749D01*
X021168Y017651D02*
X021085Y017651D01*
X021085Y017552D02*
X021165Y017552D01*
X021565Y017355D02*
X021665Y017355D01*
X021665Y017257D02*
X021565Y017257D01*
X021565Y017158D02*
X021665Y017158D01*
X021665Y017060D02*
X021565Y017060D01*
X021850Y017060D02*
X021865Y017060D01*
X021865Y016961D02*
X019281Y016961D01*
X019213Y016863D02*
X020352Y016863D01*
X020253Y016764D02*
X019213Y016764D01*
X019185Y016666D02*
X020155Y016666D01*
X020145Y016567D02*
X019127Y016567D01*
X018992Y016469D02*
X020145Y016469D01*
X020145Y016370D02*
X018963Y016370D01*
X018963Y016272D02*
X020145Y016272D01*
X020238Y016173D02*
X018922Y016173D01*
X018844Y016075D02*
X020337Y016075D01*
X020367Y015878D02*
X018605Y015878D01*
X018605Y015976D02*
X021865Y015976D01*
X021863Y015878D02*
X021865Y015878D01*
X021865Y014991D02*
X021810Y014991D01*
X021820Y014893D02*
X021865Y014893D01*
X021665Y014893D02*
X021565Y014893D01*
X021565Y014794D02*
X021665Y014794D01*
X021665Y014696D02*
X021565Y014696D01*
X021565Y014597D02*
X021665Y014597D01*
X021165Y014400D02*
X021085Y014400D01*
X021085Y014302D02*
X021165Y014302D01*
X021237Y014203D02*
X021022Y014203D01*
X020382Y014893D02*
X018605Y014893D01*
X018605Y014991D02*
X020420Y014991D01*
X020322Y015090D02*
X018605Y015090D01*
X018605Y015188D02*
X020223Y015188D01*
X020145Y015287D02*
X018605Y015287D01*
X018605Y015385D02*
X020145Y015385D01*
X020145Y015484D02*
X018605Y015484D01*
X018605Y015582D02*
X020145Y015582D01*
X020170Y015681D02*
X018605Y015681D01*
X018605Y015779D02*
X020268Y015779D01*
X020352Y017060D02*
X019378Y017060D01*
X019419Y017158D02*
X020253Y017158D01*
X020155Y017257D02*
X019433Y017257D01*
X019427Y017355D02*
X020145Y017355D01*
X020145Y017454D02*
X019386Y017454D01*
X019300Y017552D02*
X020145Y017552D01*
X020145Y017651D02*
X019433Y017651D01*
X019579Y017749D02*
X020238Y017749D01*
X020337Y017848D02*
X019642Y017848D01*
X019673Y017946D02*
X021865Y017946D01*
X021863Y018045D02*
X021865Y018045D01*
X021367Y018045D02*
X020863Y018045D01*
X020810Y017991D02*
X021085Y018267D01*
X021085Y018656D01*
X020810Y018931D01*
X020420Y018931D01*
X020145Y018656D01*
X020145Y018267D01*
X020420Y017991D01*
X020810Y017991D01*
X020962Y018143D02*
X021268Y018143D01*
X021170Y018242D02*
X021060Y018242D01*
X021085Y018340D02*
X021145Y018340D01*
X021145Y018439D02*
X021085Y018439D01*
X021085Y018537D02*
X021145Y018537D01*
X021145Y018636D02*
X021085Y018636D01*
X021007Y018734D02*
X021223Y018734D01*
X021322Y018833D02*
X020908Y018833D01*
X020820Y019030D02*
X021382Y019030D01*
X021283Y019128D02*
X020918Y019128D01*
X021017Y019227D02*
X021185Y019227D01*
X021145Y019325D02*
X021065Y019325D01*
X021145Y019424D02*
X020665Y019424D01*
X020665Y019522D02*
X020565Y019522D01*
X020565Y019424D02*
X019688Y019424D01*
X019723Y019325D02*
X020165Y019325D01*
X020165Y019275D02*
X020429Y019011D01*
X020565Y019011D01*
X020565Y019411D01*
X020165Y019411D01*
X020165Y019275D01*
X020213Y019227D02*
X019723Y019227D01*
X019696Y019128D02*
X020312Y019128D01*
X020410Y019030D02*
X019639Y019030D01*
X019575Y018931D02*
X021865Y018931D01*
X021865Y019030D02*
X021848Y019030D01*
X021145Y019522D02*
X021065Y019522D01*
X021065Y019621D02*
X021145Y019621D01*
X021208Y019719D02*
X020993Y019719D01*
X020895Y019818D02*
X021307Y019818D01*
X021825Y019916D02*
X021865Y019916D01*
X021865Y020015D02*
X021833Y020015D01*
X021840Y020901D02*
X021865Y020901D01*
X021865Y021000D02*
X021818Y021000D01*
X020665Y019818D02*
X020565Y019818D01*
X020565Y019719D02*
X020665Y019719D01*
X020665Y019621D02*
X020565Y019621D01*
X020565Y019325D02*
X020665Y019325D01*
X020665Y019227D02*
X020565Y019227D01*
X020565Y019128D02*
X020665Y019128D01*
X020665Y019030D02*
X020565Y019030D01*
X020322Y018833D02*
X019575Y018833D01*
X019575Y018734D02*
X020223Y018734D01*
X020145Y018636D02*
X019575Y018636D01*
X019575Y018537D02*
X020145Y018537D01*
X020145Y018439D02*
X019519Y018439D01*
X019436Y018340D02*
X020145Y018340D01*
X020170Y018242D02*
X019580Y018242D01*
X019643Y018143D02*
X020268Y018143D01*
X020367Y018045D02*
X019673Y018045D01*
X019305Y017996D02*
X019065Y017746D01*
X019065Y017266D01*
X018695Y016956D02*
X018845Y016806D01*
X018695Y016956D02*
X018695Y017926D01*
X019355Y018586D01*
X019355Y019266D01*
X019620Y019522D02*
X020165Y019522D01*
X020165Y019621D02*
X019461Y019621D01*
X019249Y019621D02*
X019195Y019621D01*
X019195Y019719D02*
X020237Y019719D01*
X018883Y022970D02*
X018527Y022970D01*
X018626Y023068D02*
X018784Y023068D01*
X018722Y023167D02*
X018688Y023167D01*
X017883Y022970D02*
X017527Y022970D01*
X017626Y023068D02*
X017784Y023068D01*
X017722Y023167D02*
X017688Y023167D01*
X016883Y022970D02*
X016527Y022970D01*
X016626Y023068D02*
X016784Y023068D01*
X016722Y023167D02*
X016688Y023167D01*
X015883Y022970D02*
X015527Y022970D01*
X015626Y023068D02*
X015784Y023068D01*
X015722Y023167D02*
X015688Y023167D01*
X014883Y022970D02*
X014527Y022970D01*
X014626Y023068D02*
X014784Y023068D01*
X014722Y023167D02*
X014688Y023167D01*
X015095Y020704D02*
X016462Y020704D01*
X016416Y020606D02*
X015095Y020606D01*
X015095Y020507D02*
X016397Y020507D01*
X016399Y020409D02*
X015095Y020409D01*
X015095Y020310D02*
X016439Y020310D01*
X016465Y020212D02*
X015095Y020212D01*
X015095Y020113D02*
X016465Y020113D01*
X016465Y020015D02*
X015095Y020015D01*
X015095Y019916D02*
X016465Y019916D01*
X016465Y019818D02*
X015095Y019818D01*
X015095Y019719D02*
X016465Y019719D01*
X016465Y019621D02*
X015095Y019621D01*
X015095Y019522D02*
X016465Y019522D01*
X016465Y019424D02*
X015095Y019424D01*
X015095Y019325D02*
X016465Y019325D01*
X016465Y019227D02*
X015095Y019227D01*
X015095Y019128D02*
X016415Y019128D01*
X016387Y019030D02*
X015095Y019030D01*
X015095Y018931D02*
X016387Y018931D01*
X016420Y018833D02*
X015095Y018833D01*
X015095Y018734D02*
X016465Y018734D01*
X016465Y018636D02*
X015095Y018636D01*
X015095Y018537D02*
X016465Y018537D01*
X016465Y018439D02*
X015095Y018439D01*
X015095Y018340D02*
X016465Y018340D01*
X016465Y018242D02*
X015095Y018242D01*
X015095Y018143D02*
X016465Y018143D01*
X016465Y018045D02*
X015095Y018045D01*
X015095Y017946D02*
X016465Y017946D01*
X016456Y017848D02*
X015095Y017848D01*
X015095Y017749D02*
X016408Y017749D01*
X016387Y017651D02*
X015095Y017651D01*
X015095Y017552D02*
X016387Y017552D01*
X016428Y017454D02*
X015095Y017454D01*
X015095Y017355D02*
X016465Y017355D01*
X016465Y017257D02*
X015095Y017257D01*
X015095Y017158D02*
X016465Y017158D01*
X016465Y017060D02*
X015095Y017060D01*
X015095Y016961D02*
X016465Y016961D01*
X016465Y016863D02*
X015095Y016863D01*
X015095Y016764D02*
X016465Y016764D01*
X016465Y016666D02*
X015095Y016666D01*
X015095Y016567D02*
X016465Y016567D01*
X016436Y016469D02*
X015095Y016469D01*
X015095Y016370D02*
X016396Y016370D01*
X016387Y016272D02*
X015095Y016272D01*
X015095Y016173D02*
X016399Y016173D01*
X016440Y016075D02*
X015095Y016075D01*
X015095Y015976D02*
X016465Y015976D01*
X016465Y015878D02*
X015095Y015878D01*
X015095Y015779D02*
X016465Y015779D01*
X016465Y015681D02*
X015095Y015681D01*
X015095Y015582D02*
X016465Y015582D01*
X016465Y015484D02*
X015095Y015484D01*
X015095Y015385D02*
X016465Y015385D01*
X016465Y015287D02*
X015095Y015287D01*
X014515Y017257D02*
X014447Y017257D01*
X014305Y017596D02*
X014805Y017596D01*
X014515Y017946D02*
X014422Y017946D01*
X013295Y012896D02*
X013245Y012896D01*
X013295Y012896D02*
X013300Y012895D01*
X013304Y012891D01*
X013305Y012886D01*
X014855Y011856D02*
X014895Y011886D01*
X016705Y008976D02*
X016725Y008956D01*
X016705Y008976D02*
X016865Y008996D01*
X018990Y007486D02*
X020190Y008686D01*
X020190Y010111D01*
X020410Y009771D02*
X021865Y009771D01*
X021865Y009869D02*
X020469Y009869D01*
X020529Y009968D02*
X021865Y009968D01*
X021865Y010066D02*
X020558Y010066D01*
X020558Y010165D02*
X021865Y010165D01*
X021865Y010263D02*
X020901Y010263D01*
X021001Y010362D02*
X021865Y010362D01*
X021865Y010460D02*
X021045Y010460D01*
X021063Y010559D02*
X021865Y010559D01*
X021865Y010657D02*
X021060Y010657D01*
X021019Y010756D02*
X021865Y010756D01*
X021865Y010854D02*
X020938Y010854D01*
X020841Y011051D02*
X021360Y011051D01*
X021262Y011150D02*
X020940Y011150D01*
X021038Y011248D02*
X021163Y011248D01*
X021145Y011347D02*
X021065Y011347D01*
X021145Y011445D02*
X020665Y011445D01*
X020665Y011347D02*
X020565Y011347D01*
X020565Y011411D02*
X020565Y011011D01*
X020429Y011011D01*
X020165Y011275D01*
X020165Y011411D01*
X020565Y011411D01*
X020565Y011445D02*
X019907Y011445D01*
X020006Y011347D02*
X020165Y011347D01*
X020192Y011248D02*
X020105Y011248D01*
X020204Y011150D02*
X020290Y011150D01*
X020303Y011051D02*
X020389Y011051D01*
X020402Y010953D02*
X021865Y010953D01*
X021145Y011544D02*
X021065Y011544D01*
X021065Y011642D02*
X021145Y011642D01*
X021230Y011741D02*
X020972Y011741D01*
X020873Y011839D02*
X021328Y011839D01*
X020665Y011839D02*
X020565Y011839D01*
X020565Y011741D02*
X020665Y011741D01*
X020665Y011642D02*
X020565Y011642D01*
X020565Y011544D02*
X020665Y011544D01*
X020665Y011248D02*
X020565Y011248D01*
X020565Y011150D02*
X020665Y011150D01*
X020665Y011051D02*
X020565Y011051D01*
X020165Y011544D02*
X019808Y011544D01*
X019709Y011642D02*
X020165Y011642D01*
X020258Y011741D02*
X019610Y011741D01*
X020410Y009672D02*
X021865Y009672D01*
X021865Y009574D02*
X020410Y009574D01*
X020410Y009475D02*
X021865Y009475D01*
X021865Y009377D02*
X020410Y009377D01*
X020410Y009278D02*
X021865Y009278D01*
X021865Y009180D02*
X020410Y009180D01*
X020410Y009081D02*
X021865Y009081D01*
X021865Y008983D02*
X020410Y008983D01*
X020410Y008884D02*
X021865Y008884D01*
X021865Y008786D02*
X020410Y008786D01*
X020410Y008687D02*
X021865Y008687D01*
X021865Y008589D02*
X020404Y008589D01*
X020305Y008490D02*
X021865Y008490D01*
X021865Y008392D02*
X020207Y008392D01*
X020108Y008293D02*
X021865Y008293D01*
X021865Y008195D02*
X020010Y008195D01*
X019911Y008096D02*
X021865Y008096D01*
X021865Y007998D02*
X019813Y007998D01*
X019714Y007899D02*
X021865Y007899D01*
X021865Y007801D02*
X019616Y007801D01*
X019517Y007702D02*
X021865Y007702D01*
X021865Y007604D02*
X019419Y007604D01*
X019358Y007505D02*
X021865Y007505D01*
X021865Y007407D02*
X019356Y007407D01*
X019315Y007308D02*
X021865Y007308D01*
X021865Y007210D02*
X019234Y007210D01*
X019565Y009411D02*
X019540Y009436D01*
X021865Y006914D02*
X008665Y006914D01*
X008665Y006816D02*
X021865Y006816D01*
X021865Y006717D02*
X008665Y006717D01*
X008665Y006619D02*
X021865Y006619D01*
X021865Y006520D02*
X008665Y006520D01*
X008665Y006422D02*
X021865Y006422D01*
X021865Y006323D02*
X008669Y006323D01*
X008720Y006225D02*
X014739Y006225D01*
X014708Y006212D02*
X014610Y006114D01*
X014557Y005986D01*
X014557Y005847D01*
X014610Y005719D01*
X014708Y005621D01*
X014785Y005589D01*
X014785Y004909D01*
X014732Y004856D01*
X014418Y004856D01*
X014342Y004932D01*
X014214Y004985D01*
X014076Y004985D01*
X013948Y004932D01*
X013850Y004834D01*
X013797Y004706D01*
X013797Y004567D01*
X013850Y004439D01*
X013948Y004341D01*
X014076Y004288D01*
X014214Y004288D01*
X014342Y004341D01*
X014418Y004416D01*
X014732Y004416D01*
X014808Y004341D01*
X014936Y004288D01*
X015074Y004288D01*
X015202Y004341D01*
X015300Y004439D01*
X015353Y004567D01*
X015353Y004706D01*
X015300Y004834D01*
X015225Y004909D01*
X015225Y005778D01*
X015253Y005847D01*
X015253Y005986D01*
X015200Y006114D01*
X015102Y006212D01*
X014974Y006265D01*
X014836Y006265D01*
X014708Y006212D01*
X014622Y006126D02*
X008743Y006126D01*
X008743Y006028D02*
X014574Y006028D01*
X014557Y005929D02*
X008704Y005929D01*
X008630Y005831D02*
X014563Y005831D01*
X014604Y005732D02*
X008458Y005732D01*
X008292Y005732D02*
X000765Y005732D01*
X000765Y005634D02*
X014695Y005634D01*
X014785Y005535D02*
X000765Y005535D01*
X000765Y005437D02*
X014785Y005437D01*
X014785Y005338D02*
X000765Y005338D01*
X000765Y005240D02*
X014785Y005240D01*
X014785Y005141D02*
X000765Y005141D01*
X000765Y005043D02*
X014785Y005043D01*
X014785Y004944D02*
X014312Y004944D01*
X013978Y004944D02*
X008615Y004944D01*
X008514Y004986D02*
X008881Y004834D01*
X009163Y004553D01*
X009315Y004185D01*
X009315Y003787D01*
X009163Y003420D01*
X008881Y003139D01*
X008514Y002986D01*
X008116Y002986D01*
X007749Y003139D01*
X007467Y003420D01*
X007315Y003787D01*
X007315Y004185D01*
X007467Y004553D01*
X007749Y004834D01*
X008116Y004986D01*
X008514Y004986D01*
X008853Y004846D02*
X013862Y004846D01*
X013814Y004747D02*
X008968Y004747D01*
X009067Y004649D02*
X013797Y004649D01*
X013803Y004550D02*
X009164Y004550D01*
X009204Y004452D02*
X013844Y004452D01*
X013935Y004353D02*
X009245Y004353D01*
X009286Y004255D02*
X021865Y004255D01*
X021865Y004353D02*
X015215Y004353D01*
X015306Y004452D02*
X021865Y004452D01*
X021865Y004550D02*
X015347Y004550D01*
X015353Y004649D02*
X021865Y004649D01*
X021865Y004747D02*
X015336Y004747D01*
X015288Y004846D02*
X021865Y004846D01*
X021865Y004944D02*
X015225Y004944D01*
X015225Y005043D02*
X021865Y005043D01*
X021865Y005141D02*
X015225Y005141D01*
X015225Y005240D02*
X021865Y005240D01*
X021865Y005338D02*
X015225Y005338D01*
X015225Y005437D02*
X021865Y005437D01*
X021865Y005535D02*
X015225Y005535D01*
X015225Y005634D02*
X021865Y005634D01*
X021865Y005732D02*
X015225Y005732D01*
X015247Y005831D02*
X021865Y005831D01*
X021865Y005929D02*
X015253Y005929D01*
X015236Y006028D02*
X021865Y006028D01*
X021865Y006126D02*
X015188Y006126D01*
X015071Y006225D02*
X021865Y006225D01*
X021865Y004156D02*
X009315Y004156D01*
X009315Y004058D02*
X021865Y004058D01*
X021865Y003959D02*
X009315Y003959D01*
X009315Y003861D02*
X021865Y003861D01*
X021865Y003762D02*
X017742Y003762D01*
X017901Y003664D02*
X018062Y003664D01*
X018000Y003565D02*
X017999Y003565D01*
X017338Y003762D02*
X015742Y003762D01*
X015901Y003664D02*
X016342Y003664D01*
X016180Y003565D02*
X015999Y003565D01*
X015338Y003762D02*
X013742Y003762D01*
X013901Y003664D02*
X014342Y003664D01*
X014180Y003565D02*
X013999Y003565D01*
X013338Y003762D02*
X011742Y003762D01*
X011901Y003664D02*
X012342Y003664D01*
X012180Y003565D02*
X011999Y003565D01*
X012006Y002974D02*
X012033Y002974D01*
X012074Y002876D02*
X011918Y002876D01*
X011783Y002777D02*
X012160Y002777D01*
X012294Y002679D02*
X000765Y002679D01*
X000765Y002777D02*
X011297Y002777D01*
X011162Y002876D02*
X000765Y002876D01*
X000765Y002974D02*
X011074Y002974D01*
X011034Y003073D02*
X008723Y003073D01*
X008914Y003171D02*
X011000Y003171D01*
X011000Y003270D02*
X009013Y003270D01*
X009111Y003368D02*
X011000Y003368D01*
X011041Y003467D02*
X009182Y003467D01*
X009223Y003565D02*
X011081Y003565D01*
X011179Y003664D02*
X009264Y003664D01*
X009305Y003762D02*
X011338Y003762D01*
X012738Y003664D02*
X013179Y003664D01*
X013081Y003565D02*
X012900Y003565D01*
X014145Y004636D02*
X015005Y004636D01*
X015005Y005816D01*
X014905Y005916D01*
X014795Y004353D02*
X014355Y004353D01*
X014738Y003664D02*
X015179Y003664D01*
X015081Y003565D02*
X014900Y003565D01*
X016738Y003664D02*
X017179Y003664D01*
X017081Y003565D02*
X016900Y003565D01*
X019018Y003664D02*
X021865Y003664D01*
X021865Y003565D02*
X019080Y003565D01*
X019080Y003467D02*
X021865Y003467D01*
X021865Y003368D02*
X019080Y003368D01*
X019080Y003270D02*
X021865Y003270D01*
X021865Y003171D02*
X019080Y003171D01*
X019080Y003073D02*
X021865Y003073D01*
X021865Y002974D02*
X019080Y002974D01*
X019080Y002876D02*
X021865Y002876D01*
X021865Y002777D02*
X019080Y002777D01*
X019038Y002679D02*
X021865Y002679D01*
X021818Y012923D02*
X021865Y012923D01*
X021865Y013021D02*
X021840Y013021D01*
X011031Y023265D02*
X009302Y023265D01*
X009315Y023167D02*
X010995Y023167D01*
X011025Y023364D02*
X009262Y023364D01*
X009221Y023462D02*
X011025Y023462D01*
X011053Y023561D02*
X009180Y023561D01*
X009106Y023659D02*
X011094Y023659D01*
X007524Y023659D02*
X006503Y023659D01*
X006515Y023561D02*
X007450Y023561D01*
X007409Y023462D02*
X006115Y023462D01*
X006115Y023364D02*
X006015Y023364D01*
X006015Y023265D02*
X006115Y023265D01*
X006115Y023167D02*
X006015Y023167D01*
X006015Y023068D02*
X006115Y023068D01*
X006407Y023167D02*
X007315Y023167D01*
X007328Y023265D02*
X006505Y023265D01*
X006515Y023364D02*
X007368Y023364D01*
X009365Y018936D02*
X009365Y017886D01*
X009065Y017586D01*
X007293Y017257D02*
X006382Y017257D01*
X006505Y017355D02*
X007195Y017355D01*
X007037Y012529D02*
X005913Y012529D01*
X006101Y012430D02*
X006849Y012430D01*
X006869Y011642D02*
X006081Y011642D01*
X002337Y007604D02*
X001682Y007604D01*
X001722Y007702D02*
X001791Y007702D01*
X001630Y007505D02*
X002365Y007505D01*
X002424Y007407D02*
X001532Y007407D01*
X001363Y007308D02*
X002559Y007308D01*
X000765Y006717D02*
X008085Y006717D01*
X008085Y006619D02*
X000765Y006619D01*
X000765Y006520D02*
X008085Y006520D01*
X008085Y006422D02*
X000765Y006422D01*
X000765Y006323D02*
X008081Y006323D01*
X008030Y006225D02*
X000765Y006225D01*
X000765Y006126D02*
X008007Y006126D01*
X008007Y006028D02*
X000765Y006028D01*
X000765Y005929D02*
X008046Y005929D01*
X008120Y005831D02*
X000765Y005831D01*
X000765Y004944D02*
X008015Y004944D01*
X007777Y004846D02*
X000765Y004846D01*
X000765Y004747D02*
X007662Y004747D01*
X007563Y004649D02*
X000765Y004649D01*
X000765Y004550D02*
X007466Y004550D01*
X007426Y004452D02*
X000765Y004452D01*
X000765Y004353D02*
X007385Y004353D01*
X007344Y004255D02*
X000765Y004255D01*
X000765Y004156D02*
X007315Y004156D01*
X007315Y004058D02*
X000765Y004058D01*
X000765Y003959D02*
X007315Y003959D01*
X007315Y003861D02*
X000765Y003861D01*
X000765Y003762D02*
X007325Y003762D01*
X007366Y003664D02*
X000765Y003664D01*
X000765Y003565D02*
X007407Y003565D01*
X007448Y003467D02*
X000765Y003467D01*
X000765Y003368D02*
X007519Y003368D01*
X007617Y003270D02*
X000765Y003270D01*
X000765Y003171D02*
X007716Y003171D01*
X007907Y003073D02*
X000765Y003073D01*
D16*
X001540Y006911D03*
X002705Y007646D03*
X003075Y007116D03*
X005385Y007986D03*
X005765Y008766D03*
X005365Y010616D03*
X008095Y011796D03*
X010195Y012546D03*
X009655Y014426D03*
X009245Y014806D03*
X010790Y014861D03*
X012915Y015786D03*
X014805Y014836D03*
X016755Y014806D03*
X016755Y016276D03*
X016755Y017626D03*
X016755Y018986D03*
X016765Y020486D03*
X018545Y020826D03*
X019355Y019266D03*
X019305Y017996D03*
X019065Y017266D03*
X018845Y016806D03*
X018595Y016346D03*
X018825Y014366D03*
X020695Y010576D03*
X020190Y010111D03*
X019590Y009636D03*
X018990Y007486D03*
X017025Y006976D03*
X016845Y008366D03*
X016865Y008996D03*
X013275Y006996D03*
X008375Y007876D03*
X008375Y006096D03*
X006835Y004096D03*
X002365Y013686D03*
X001655Y015666D03*
X003015Y016486D03*
X004145Y019106D03*
X004425Y019986D03*
X005695Y017586D03*
X006215Y017586D03*
X009365Y018936D03*
X010215Y020726D03*
X014305Y017596D03*
X014805Y021516D03*
D17*
X015660Y022371D01*
X018940Y022371D01*
X016765Y020486D02*
X016755Y020476D01*
X016755Y018986D01*
X016755Y017626D01*
X016755Y016276D01*
X016755Y014806D01*
X014805Y014836D02*
X014805Y017596D01*
X014805Y021516D01*
X010215Y020726D02*
X007800Y020726D01*
X006065Y022461D01*
X010740Y014886D02*
X010741Y014878D01*
X010745Y014871D01*
X010750Y014866D01*
X010757Y014862D01*
X010765Y014861D01*
X010790Y014861D01*
X012865Y015786D02*
X012915Y015786D01*
X010195Y012546D02*
X007665Y012546D01*
X007165Y012046D01*
X005375Y010666D02*
X005370Y010665D01*
X005366Y010661D01*
X005365Y010656D01*
X005365Y010616D01*
X005415Y008016D02*
X005385Y007986D01*
X005415Y008016D02*
X005416Y008021D01*
X005420Y008025D01*
X005425Y008026D01*
X008375Y007876D02*
X008375Y006096D01*
X006835Y004096D02*
X006775Y004096D01*
X001540Y006911D02*
X001540Y006986D01*
X001515Y007011D01*
D18*
X004065Y005936D03*
D19*
X004065Y006011D01*
X005785Y012046D02*
X007165Y012046D01*
X010585Y007026D02*
X010575Y007016D01*
X010575Y006996D01*
D20*
X004875Y013976D02*
X005815Y014916D01*
X005975Y014916D01*
X006245Y015186D01*
X006245Y015636D01*
X005825Y015286D02*
X005215Y014676D01*
X003855Y014676D01*
X003845Y013976D02*
X004875Y013976D01*
X005695Y017586D02*
X005745Y017586D01*
X018825Y014366D02*
X018825Y012196D01*
X020455Y010576D01*
X020695Y010576D01*
D21*
X018415Y012381D02*
X018335Y012306D01*
X017425Y012276D02*
X017405Y012276D01*
X017385Y010891D02*
X017405Y010866D01*
X008915Y015576D02*
X008915Y015826D01*
X008475Y016266D01*
X008205Y016266D01*
X007785Y016676D01*
X007785Y017496D01*
X007275Y018006D01*
X003295Y018006D01*
X002625Y017336D01*
X002625Y016866D01*
X002375Y016616D01*
X001560Y016616D01*
X001065Y017111D01*
X001065Y011476D01*
X001365Y011176D01*
X002015Y011176D01*
X002575Y010646D01*
X002575Y007806D01*
X002705Y007646D01*
X003075Y007796D02*
X003075Y007116D01*
X003075Y007796D02*
X002775Y008126D01*
X002775Y010736D01*
X002105Y011376D01*
X001455Y011376D01*
X001265Y011566D01*
X001265Y013296D01*
X001655Y013686D01*
X002365Y013686D01*
X002595Y017616D02*
X001560Y017616D01*
X001065Y018111D01*
X001560Y018616D02*
X001065Y019111D01*
X001560Y018616D02*
X007555Y018616D01*
X008690Y017481D01*
X008515Y017046D02*
X008205Y017366D01*
X008205Y017656D01*
X007445Y018416D01*
X002370Y018416D01*
X002065Y018111D01*
X002595Y017616D02*
X003195Y018216D01*
X007355Y018216D01*
X007995Y017576D01*
X007995Y016926D01*
X008325Y016596D01*
X008335Y016596D01*
X007295Y016286D02*
X007265Y016286D01*
X008825Y018216D02*
X008840Y018231D01*
X004425Y019966D02*
X004425Y019986D01*
D22*
X004140Y019111D02*
X002065Y019111D01*
X002065Y020661D01*
X001565Y021161D01*
X001565Y021961D01*
X002065Y022461D01*
X004140Y019111D02*
X004145Y019106D01*
X003015Y016486D02*
X002965Y016486D01*
X002955Y016476D01*
X001695Y015656D02*
X001685Y015666D01*
X001655Y015666D01*
X005665Y008766D02*
X005765Y008766D01*
X013275Y006996D02*
X013275Y006896D01*
X013325Y006846D01*
X014825Y008366D02*
X014845Y008356D01*
X016695Y008366D02*
X016715Y008386D01*
X016695Y008366D02*
X016845Y008366D01*
X017035Y007006D02*
X017035Y006986D01*
X017025Y006976D01*
X010215Y020726D02*
X010215Y022026D01*
X011565Y023386D01*
X019540Y022371D02*
X019945Y021966D01*
X021120Y021966D01*
X021615Y022461D01*
X021615Y023461D01*
D23*
X007165Y012046D03*
X005785Y012046D03*
X010585Y007026D03*
D24*
X013185Y010106D03*
X013675Y010746D03*
X014855Y011856D03*
X015225Y012386D03*
X016665Y012861D03*
X017215Y013236D03*
X017865Y012861D03*
X018390Y013211D03*
X018385Y013976D03*
X017795Y014946D03*
X018415Y012381D03*
X017405Y012276D03*
X017385Y010891D03*
X016890Y010186D03*
X016190Y010586D03*
X015340Y010161D03*
X014825Y008366D03*
X013965Y007806D03*
X014765Y007506D03*
X015355Y007306D03*
X014905Y005916D03*
X015005Y004636D03*
X014145Y004636D03*
X017890Y010186D03*
X018440Y010586D03*
X013245Y012896D03*
X011255Y011726D03*
X011715Y010606D03*
X008915Y015576D03*
X008335Y016596D03*
X008515Y017046D03*
X008690Y017481D03*
X008840Y018231D03*
X007295Y016286D03*
X007265Y016286D03*
X006245Y015636D03*
X005825Y015286D03*
X003855Y014676D03*
X003845Y013976D03*
D25*
X008315Y023036D03*
X008315Y003986D03*
M02*
