G75*
G70*
%OFA0B0*%
%FSLAX24Y24*%
%IPPOS*%
%LPD*%
%AMOC8*
5,1,8,0,0,1.08239X$1,22.5*
%
%ADD10C,0.0050*%
%ADD11C,0.0160*%
%ADD12C,0.0070*%
%ADD13C,0.0080*%
%ADD14C,0.0100*%
%ADD15C,0.0060*%
%ADD16R,0.0079X0.0079*%
%ADD17C,0.0028*%
%ADD18R,0.0276X0.0118*%
%ADD19R,0.0118X0.0276*%
%ADD20R,0.0620X0.0240*%
%ADD21R,0.0200X0.0200*%
%ADD22R,0.0180X0.0300*%
D10*
X000835Y003404D02*
X000835Y004183D01*
X000914Y004183D01*
X000914Y004970D01*
X000835Y004970D01*
X000835Y005748D01*
X001776Y005748D01*
X001776Y005847D01*
X002169Y005847D01*
X002169Y005748D01*
X003110Y005748D01*
X003110Y004970D01*
X003031Y004970D01*
X003031Y004183D01*
X003110Y004183D01*
X003110Y003404D01*
X000835Y003404D01*
X000835Y004183D02*
X000756Y004183D01*
X000756Y004970D01*
X000835Y004970D01*
X001501Y004576D02*
X001503Y004619D01*
X001509Y004661D01*
X001519Y004703D01*
X001532Y004744D01*
X001549Y004784D01*
X001570Y004821D01*
X001594Y004857D01*
X001621Y004890D01*
X001651Y004921D01*
X001684Y004949D01*
X001719Y004974D01*
X001756Y004995D01*
X001795Y005013D01*
X001835Y005027D01*
X001877Y005038D01*
X001919Y005045D01*
X001962Y005048D01*
X002005Y005047D01*
X002048Y005042D01*
X002090Y005033D01*
X002131Y005021D01*
X002171Y005005D01*
X002209Y004985D01*
X002245Y004962D01*
X002279Y004935D01*
X002311Y004906D01*
X002339Y004874D01*
X002365Y004839D01*
X002387Y004803D01*
X002406Y004764D01*
X002421Y004724D01*
X002433Y004683D01*
X002441Y004640D01*
X002445Y004597D01*
X002445Y004555D01*
X002441Y004512D01*
X002433Y004469D01*
X002421Y004428D01*
X002406Y004388D01*
X002387Y004349D01*
X002365Y004313D01*
X002339Y004278D01*
X002311Y004246D01*
X002279Y004217D01*
X002245Y004190D01*
X002209Y004167D01*
X002171Y004147D01*
X002131Y004131D01*
X002090Y004119D01*
X002048Y004110D01*
X002005Y004105D01*
X001962Y004104D01*
X001919Y004107D01*
X001877Y004114D01*
X001835Y004125D01*
X001795Y004139D01*
X001756Y004157D01*
X001719Y004178D01*
X001684Y004203D01*
X001651Y004231D01*
X001621Y004262D01*
X001594Y004295D01*
X001570Y004331D01*
X001549Y004368D01*
X001532Y004408D01*
X001519Y004449D01*
X001509Y004491D01*
X001503Y004533D01*
X001501Y004576D01*
X001382Y004576D02*
X001384Y004624D01*
X001390Y004672D01*
X001400Y004719D01*
X001413Y004765D01*
X001431Y004810D01*
X001451Y004854D01*
X001476Y004896D01*
X001504Y004935D01*
X001534Y004972D01*
X001568Y005006D01*
X001605Y005038D01*
X001643Y005067D01*
X001684Y005092D01*
X001727Y005114D01*
X001772Y005132D01*
X001818Y005146D01*
X001865Y005157D01*
X001913Y005164D01*
X001961Y005167D01*
X002009Y005166D01*
X002057Y005161D01*
X002105Y005152D01*
X002151Y005140D01*
X002196Y005123D01*
X002240Y005103D01*
X002282Y005080D01*
X002322Y005053D01*
X002360Y005023D01*
X002395Y004990D01*
X002427Y004954D01*
X002457Y004916D01*
X002483Y004875D01*
X002505Y004832D01*
X002525Y004788D01*
X002540Y004743D01*
X002552Y004696D01*
X002560Y004648D01*
X002564Y004600D01*
X002564Y004552D01*
X002560Y004504D01*
X002552Y004456D01*
X002540Y004409D01*
X002525Y004364D01*
X002505Y004320D01*
X002483Y004277D01*
X002457Y004236D01*
X002427Y004198D01*
X002395Y004162D01*
X002360Y004129D01*
X002322Y004099D01*
X002282Y004072D01*
X002240Y004049D01*
X002196Y004029D01*
X002151Y004012D01*
X002105Y004000D01*
X002057Y003991D01*
X002009Y003986D01*
X001961Y003985D01*
X001913Y003988D01*
X001865Y003995D01*
X001818Y004006D01*
X001772Y004020D01*
X001727Y004038D01*
X001684Y004060D01*
X001643Y004085D01*
X001605Y004114D01*
X001568Y004146D01*
X001534Y004180D01*
X001504Y004217D01*
X001476Y004256D01*
X001451Y004298D01*
X001431Y004342D01*
X001413Y004387D01*
X001400Y004433D01*
X001390Y004480D01*
X001384Y004528D01*
X001382Y004576D01*
X003110Y004183D02*
X003189Y004183D01*
X003189Y004970D01*
X003110Y004970D01*
X003524Y003793D02*
X003758Y003793D01*
X003582Y003793D02*
X003582Y003560D01*
X003524Y003560D02*
X003407Y003676D01*
X003524Y003793D01*
X003524Y003560D02*
X003758Y003560D01*
X003699Y003425D02*
X003466Y003425D01*
X003407Y003367D01*
X003407Y003191D01*
X003758Y003191D01*
X003758Y003367D01*
X003699Y003425D01*
X005488Y003378D02*
X005663Y003378D01*
X005721Y003437D01*
X005721Y003553D01*
X005663Y003612D01*
X005488Y003612D01*
X005488Y003261D01*
X005604Y003378D02*
X005721Y003261D01*
X005856Y003261D02*
X005856Y003495D01*
X005973Y003612D01*
X006089Y003495D01*
X006089Y003261D01*
X006089Y003437D02*
X005856Y003437D01*
X006206Y004391D02*
X006323Y004391D01*
X006381Y004450D01*
X006516Y004391D02*
X006691Y004391D01*
X006749Y004450D01*
X006749Y004683D01*
X006691Y004742D01*
X006516Y004742D01*
X006516Y004391D01*
X006206Y004391D02*
X006148Y004450D01*
X006148Y004683D01*
X006206Y004742D01*
X006323Y004742D01*
X006381Y004683D01*
X007416Y003457D02*
X007357Y003398D01*
X007357Y003223D01*
X007708Y003223D01*
X007708Y003398D01*
X007649Y003457D01*
X007416Y003457D01*
X007416Y003088D02*
X007357Y003030D01*
X007357Y002913D01*
X007416Y002855D01*
X007649Y002855D01*
X007708Y002913D01*
X007708Y003030D01*
X007649Y003088D01*
X009907Y002333D02*
X010141Y002100D01*
X010082Y002158D02*
X010258Y002333D01*
X010258Y002100D02*
X009907Y002100D01*
X009966Y001965D02*
X009907Y001907D01*
X009907Y001790D01*
X009966Y001732D01*
X010199Y001732D01*
X009966Y001965D01*
X010199Y001965D01*
X010258Y001907D01*
X010258Y001790D01*
X010199Y001732D01*
X010258Y001597D02*
X010258Y001363D01*
X010258Y001480D02*
X009907Y001480D01*
X010024Y001363D01*
X010082Y001228D02*
X010082Y000995D01*
X010082Y000860D02*
X010082Y000627D01*
X010024Y000627D02*
X009907Y000743D01*
X010024Y000860D01*
X010258Y000860D01*
X010258Y000627D02*
X010024Y000627D01*
X009966Y000492D02*
X010082Y000492D01*
X010141Y000433D01*
X010141Y000258D01*
X010258Y000258D02*
X009907Y000258D01*
X009907Y000433D01*
X009966Y000492D01*
X010141Y000375D02*
X010258Y000492D01*
X011925Y005963D02*
X011927Y005981D01*
X011933Y005997D01*
X011942Y006012D01*
X011955Y006025D01*
X011970Y006034D01*
X011986Y006040D01*
X012004Y006042D01*
X012022Y006040D01*
X012038Y006034D01*
X012053Y006025D01*
X012066Y006012D01*
X012075Y005997D01*
X012081Y005981D01*
X012083Y005963D01*
X012081Y005945D01*
X012075Y005929D01*
X012066Y005914D01*
X012053Y005901D01*
X012038Y005892D01*
X012022Y005886D01*
X012004Y005884D01*
X011986Y005886D01*
X011970Y005892D01*
X011955Y005901D01*
X011942Y005914D01*
X011933Y005929D01*
X011927Y005945D01*
X011925Y005963D01*
X011874Y006791D02*
X011699Y006791D01*
X011699Y007142D01*
X011874Y007142D01*
X011933Y007083D01*
X011933Y006850D01*
X011874Y006791D01*
X011564Y006850D02*
X011506Y006791D01*
X011389Y006791D01*
X011331Y006850D01*
X011331Y007083D01*
X011389Y007142D01*
X011506Y007142D01*
X011564Y007083D01*
X011616Y007781D02*
X011849Y007781D01*
X011908Y007840D01*
X011908Y007957D01*
X011849Y008015D01*
X011908Y008150D02*
X011557Y008150D01*
X011557Y008325D01*
X011616Y008383D01*
X011849Y008383D01*
X011908Y008325D01*
X011908Y008150D01*
X011616Y008015D02*
X011557Y007957D01*
X011557Y007840D01*
X011616Y007781D01*
X010388Y007860D02*
X010388Y007977D01*
X010329Y008035D01*
X010388Y008170D02*
X010388Y008345D01*
X010329Y008403D01*
X010271Y008403D01*
X010212Y008345D01*
X010212Y008170D01*
X010037Y008170D02*
X010037Y008345D01*
X010096Y008403D01*
X010154Y008403D01*
X010212Y008345D01*
X010037Y008170D02*
X010388Y008170D01*
X010388Y007860D02*
X010329Y007801D01*
X010096Y007801D01*
X010037Y007860D01*
X010037Y007977D01*
X010096Y008035D01*
X010151Y009361D02*
X010034Y009478D01*
X010093Y009478D02*
X009918Y009478D01*
X009918Y009361D02*
X009918Y009712D01*
X010093Y009712D01*
X010151Y009653D01*
X010151Y009537D01*
X010093Y009478D01*
X010286Y009537D02*
X010461Y009537D01*
X010519Y009478D01*
X010519Y009420D01*
X010461Y009361D01*
X010286Y009361D01*
X010286Y009712D01*
X010461Y009712D01*
X010519Y009653D01*
X010519Y009595D01*
X010461Y009537D01*
X011167Y009530D02*
X011226Y009471D01*
X011459Y009471D01*
X011518Y009530D01*
X011518Y009647D01*
X011459Y009705D01*
X011518Y009840D02*
X011167Y009840D01*
X011167Y010015D01*
X011226Y010073D01*
X011459Y010073D01*
X011518Y010015D01*
X011518Y009840D01*
X011226Y009705D02*
X011167Y009647D01*
X011167Y009530D01*
X009927Y011621D02*
X009927Y011855D01*
X009927Y011738D02*
X010278Y011738D01*
X010278Y011990D02*
X009927Y012223D01*
X009927Y011990D02*
X010278Y012223D01*
X010647Y012265D02*
X010647Y012382D01*
X010706Y012440D01*
X010939Y012206D01*
X010998Y012265D01*
X010998Y012382D01*
X010939Y012440D01*
X010706Y012440D01*
X010764Y012575D02*
X010764Y012750D01*
X010822Y012808D01*
X010998Y012808D01*
X010998Y012943D02*
X010647Y012943D01*
X010647Y013177D01*
X010822Y013060D02*
X010822Y012943D01*
X010764Y012575D02*
X010998Y012575D01*
X010939Y012206D02*
X010706Y012206D01*
X010647Y012265D01*
X010647Y011955D02*
X010998Y011955D01*
X010998Y011838D02*
X010998Y012072D01*
X010764Y011838D02*
X010647Y011955D01*
X009628Y012010D02*
X009277Y012243D01*
X009277Y012010D02*
X009628Y012243D01*
X009628Y011875D02*
X009511Y011758D01*
X009511Y011817D02*
X009511Y011641D01*
X009628Y011641D02*
X009277Y011641D01*
X009277Y011817D01*
X009336Y011875D01*
X009452Y011875D01*
X009511Y011817D01*
X008988Y011827D02*
X008988Y011651D01*
X008637Y011651D01*
X008637Y011827D01*
X008696Y011885D01*
X008929Y011885D01*
X008988Y011827D01*
X008988Y012020D02*
X008988Y012253D01*
X008988Y012136D02*
X008637Y012136D01*
X008754Y012020D01*
X008696Y012388D02*
X008637Y012446D01*
X008637Y012563D01*
X008696Y012622D01*
X008754Y012622D01*
X008812Y012563D01*
X008871Y012622D01*
X008929Y012622D01*
X008988Y012563D01*
X008988Y012446D01*
X008929Y012388D01*
X008812Y012505D02*
X008812Y012563D01*
X007788Y011402D02*
X007671Y011285D01*
X007671Y011343D02*
X007671Y011168D01*
X007788Y011168D02*
X007437Y011168D01*
X007437Y011343D01*
X007496Y011402D01*
X007612Y011402D01*
X007671Y011343D01*
X007788Y011033D02*
X007437Y011033D01*
X007437Y010800D02*
X007788Y010800D01*
X007671Y010916D01*
X007788Y011033D01*
X007612Y010665D02*
X007671Y010607D01*
X007671Y010431D01*
X007788Y010431D02*
X007437Y010431D01*
X007437Y010607D01*
X007496Y010665D01*
X007612Y010665D01*
X006899Y009313D02*
X006958Y009255D01*
X006958Y009080D01*
X006607Y009080D01*
X006607Y009255D01*
X006666Y009313D01*
X006724Y009313D01*
X006782Y009255D01*
X006782Y009080D01*
X006782Y009255D02*
X006841Y009313D01*
X006899Y009313D01*
X006899Y008945D02*
X006958Y008887D01*
X006958Y008770D01*
X006899Y008711D01*
X006666Y008711D01*
X006607Y008770D01*
X006607Y008887D01*
X006666Y008945D01*
X005413Y008993D02*
X005354Y009052D01*
X005238Y009052D01*
X005179Y008993D01*
X005179Y008760D01*
X005238Y008701D01*
X005354Y008701D01*
X005413Y008760D01*
X005044Y008701D02*
X004928Y008818D01*
X004986Y008818D02*
X004811Y008818D01*
X004811Y008701D02*
X004811Y009052D01*
X004986Y009052D01*
X005044Y008993D01*
X005044Y008877D01*
X004986Y008818D01*
X005066Y009571D02*
X004949Y009688D01*
X005008Y009688D02*
X004833Y009688D01*
X004833Y009571D02*
X004833Y009922D01*
X005008Y009922D01*
X005066Y009863D01*
X005066Y009747D01*
X005008Y009688D01*
X005201Y009630D02*
X005201Y009863D01*
X005259Y009922D01*
X005376Y009922D01*
X005434Y009863D01*
X005434Y009630D02*
X005376Y009571D01*
X005259Y009571D01*
X005201Y009630D01*
X003773Y010451D02*
X003773Y010685D01*
X003656Y010802D01*
X003539Y010685D01*
X003539Y010451D01*
X003404Y010451D02*
X003171Y010451D01*
X003171Y010510D01*
X003404Y010743D01*
X003404Y010802D01*
X003171Y010802D01*
X003539Y010627D02*
X003773Y010627D01*
X002358Y011368D02*
X002007Y011368D01*
X002007Y011602D01*
X002007Y011736D02*
X002299Y011736D01*
X002358Y011795D01*
X002358Y011912D01*
X002299Y011970D01*
X002007Y011970D01*
X002066Y012105D02*
X002007Y012163D01*
X002007Y012280D01*
X002066Y012338D01*
X002182Y012280D02*
X002241Y012338D01*
X002299Y012338D01*
X002358Y012280D01*
X002358Y012163D01*
X002299Y012105D01*
X002182Y012163D02*
X002182Y012280D01*
X002182Y012163D02*
X002124Y012105D01*
X002066Y012105D01*
X002007Y012473D02*
X002358Y012473D01*
X002358Y012707D01*
X002182Y012590D02*
X002182Y012473D01*
X002007Y012473D02*
X002007Y012707D01*
X002182Y011485D02*
X002182Y011368D01*
X003256Y013011D02*
X003489Y013011D01*
X003548Y013070D01*
X003548Y013187D01*
X003489Y013245D01*
X003489Y013380D02*
X003548Y013438D01*
X003548Y013555D01*
X003489Y013613D01*
X003489Y013380D02*
X003256Y013380D01*
X003197Y013438D01*
X003197Y013555D01*
X003256Y013613D01*
X003256Y013245D02*
X003197Y013187D01*
X003197Y013070D01*
X003256Y013011D01*
X004523Y013405D02*
X004523Y014389D01*
X004857Y014116D02*
X004974Y014233D01*
X005208Y014233D01*
X005032Y014233D02*
X005032Y014000D01*
X004974Y014000D02*
X004857Y014116D01*
X004974Y014000D02*
X005208Y014000D01*
X005208Y013865D02*
X005208Y013631D01*
X004857Y013631D01*
X004044Y015721D02*
X004103Y015780D01*
X004103Y016013D01*
X004044Y016072D01*
X003869Y016072D01*
X003869Y015721D01*
X004044Y015721D01*
X003734Y015780D02*
X003676Y015721D01*
X003559Y015721D01*
X003501Y015780D01*
X003501Y016013D01*
X003559Y016072D01*
X003676Y016072D01*
X003734Y016013D01*
X004968Y019161D02*
X004968Y019512D01*
X005143Y019512D01*
X005201Y019453D01*
X005201Y019337D01*
X005143Y019278D01*
X004968Y019278D01*
X005084Y019278D02*
X005201Y019161D01*
X005336Y019161D02*
X005336Y019395D01*
X005453Y019512D01*
X005569Y019395D01*
X005569Y019161D01*
X005569Y019337D02*
X005336Y019337D01*
X009881Y019790D02*
X009939Y019731D01*
X010056Y019731D01*
X010114Y019790D01*
X010249Y019790D02*
X010249Y020023D01*
X010308Y020082D01*
X010424Y020082D01*
X010483Y020023D01*
X010483Y019790D02*
X010424Y019731D01*
X010308Y019731D01*
X010249Y019790D01*
X010114Y020023D02*
X010056Y020082D01*
X009939Y020082D01*
X009881Y020023D01*
X009881Y019790D01*
X010517Y017923D02*
X010868Y017923D01*
X010868Y017690D02*
X010517Y017690D01*
X010634Y017806D01*
X010517Y017923D01*
X010517Y017438D02*
X010868Y017438D01*
X010868Y017321D02*
X010868Y017555D01*
X010634Y017321D02*
X010517Y017438D01*
X011535Y016866D02*
X012520Y016866D01*
X012520Y015606D01*
X011535Y015606D01*
X011535Y016866D01*
X012701Y017470D02*
X012759Y017411D01*
X012876Y017411D01*
X012934Y017470D01*
X013069Y017411D02*
X013069Y017762D01*
X013303Y017762D01*
X013186Y017587D02*
X013069Y017587D01*
X012934Y017703D02*
X012876Y017762D01*
X012759Y017762D01*
X012701Y017703D01*
X012701Y017470D01*
X013778Y016442D02*
X013778Y016091D01*
X013778Y016208D02*
X013953Y016208D01*
X014011Y016267D01*
X014011Y016383D01*
X013953Y016442D01*
X013778Y016442D01*
X013894Y016208D02*
X014011Y016091D01*
X014146Y016091D02*
X014146Y016325D01*
X014263Y016442D01*
X014379Y016325D01*
X014379Y016091D01*
X014379Y016267D02*
X014146Y016267D01*
X014273Y015132D02*
X014389Y015015D01*
X014389Y014781D01*
X014389Y014957D02*
X014156Y014957D01*
X014156Y015015D02*
X014273Y015132D01*
X014156Y015015D02*
X014156Y014781D01*
X014021Y014781D02*
X013904Y014898D01*
X013963Y014898D02*
X013788Y014898D01*
X013788Y014781D02*
X013788Y015132D01*
X013963Y015132D01*
X014021Y015073D01*
X014021Y014957D01*
X013963Y014898D01*
X013293Y015022D02*
X013059Y015022D01*
X013059Y014671D01*
X012924Y014730D02*
X012866Y014671D01*
X012749Y014671D01*
X012691Y014730D01*
X012691Y014963D01*
X012749Y015022D01*
X012866Y015022D01*
X012924Y014963D01*
X013059Y014847D02*
X013176Y014847D01*
X014157Y012393D02*
X014157Y012160D01*
X014508Y012160D01*
X014508Y012393D01*
X014332Y012276D02*
X014332Y012160D01*
X014216Y012025D02*
X014157Y011967D01*
X014157Y011850D01*
X014216Y011791D01*
X014449Y011791D01*
X014508Y011850D01*
X014508Y011967D01*
X014449Y012025D01*
X015286Y010903D02*
X015227Y010845D01*
X015227Y010670D01*
X015578Y010670D01*
X015578Y010845D01*
X015519Y010903D01*
X015286Y010903D01*
X015286Y010535D02*
X015227Y010477D01*
X015227Y010360D01*
X015286Y010301D01*
X015519Y010301D01*
X015578Y010360D01*
X015578Y010477D01*
X015519Y010535D01*
X014099Y010233D02*
X014099Y010000D01*
X014041Y009941D01*
X013866Y009941D01*
X013866Y010292D01*
X014041Y010292D01*
X014099Y010233D01*
X013731Y010233D02*
X013673Y010292D01*
X013556Y010292D01*
X013498Y010233D01*
X013498Y010000D01*
X013556Y009941D01*
X013673Y009941D01*
X013731Y010000D01*
X013988Y008882D02*
X013988Y008823D01*
X014104Y008707D01*
X014104Y008531D01*
X014104Y008707D02*
X014221Y008823D01*
X014221Y008882D01*
X013601Y008402D02*
X013368Y008051D01*
X013601Y008051D02*
X013368Y008402D01*
X015121Y007083D02*
X015121Y006850D01*
X015179Y006791D01*
X015296Y006791D01*
X015354Y006850D01*
X015489Y006791D02*
X015664Y006791D01*
X015723Y006850D01*
X015723Y007083D01*
X015664Y007142D01*
X015489Y007142D01*
X015489Y006791D01*
X015354Y007083D02*
X015296Y007142D01*
X015179Y007142D01*
X015121Y007083D01*
X016824Y008951D02*
X016941Y008951D01*
X016999Y009010D01*
X017134Y008951D02*
X017309Y008951D01*
X017368Y009010D01*
X017368Y009243D01*
X017309Y009302D01*
X017134Y009302D01*
X017134Y008951D01*
X016824Y008951D02*
X016766Y009010D01*
X016766Y009243D01*
X016824Y009302D01*
X016941Y009302D01*
X016999Y009243D01*
X016933Y009451D02*
X016816Y009451D01*
X016758Y009510D01*
X016758Y009743D01*
X016816Y009802D01*
X016933Y009802D01*
X016991Y009743D01*
X017126Y009802D02*
X017301Y009802D01*
X017359Y009743D01*
X017359Y009510D01*
X017301Y009451D01*
X017126Y009451D01*
X017126Y009802D01*
X016991Y009510D02*
X016933Y009451D01*
X018227Y010350D02*
X018227Y010467D01*
X018286Y010525D01*
X018227Y010660D02*
X018227Y010835D01*
X018286Y010893D01*
X018344Y010893D01*
X018402Y010835D01*
X018402Y010660D01*
X018227Y010660D02*
X018578Y010660D01*
X018578Y010835D01*
X018519Y010893D01*
X018461Y010893D01*
X018402Y010835D01*
X018519Y010525D02*
X018578Y010467D01*
X018578Y010350D01*
X018519Y010291D01*
X018286Y010291D01*
X018227Y010350D01*
X017958Y012331D02*
X017724Y012565D01*
X017666Y012565D01*
X017607Y012507D01*
X017607Y012390D01*
X017666Y012331D01*
X017958Y012331D02*
X017958Y012565D01*
X017958Y012700D02*
X017724Y012933D01*
X017666Y012933D01*
X017607Y012875D01*
X017607Y012758D01*
X017666Y012700D01*
X017958Y012700D02*
X017958Y012933D01*
X017899Y013068D02*
X017666Y013302D01*
X017899Y013302D01*
X017958Y013243D01*
X017958Y013126D01*
X017899Y013068D01*
X017666Y013068D01*
X017607Y013126D01*
X017607Y013243D01*
X017666Y013302D01*
X017724Y013436D02*
X017724Y013611D01*
X017782Y013670D01*
X017958Y013670D01*
X017958Y013805D02*
X017607Y013805D01*
X017607Y014038D01*
X017782Y013921D02*
X017782Y013805D01*
X017724Y013436D02*
X017958Y013436D01*
X017799Y014781D02*
X017799Y015015D01*
X017683Y015132D01*
X017566Y015015D01*
X017566Y014781D01*
X017431Y014781D02*
X017314Y014898D01*
X017373Y014898D02*
X017198Y014898D01*
X017198Y014781D02*
X017198Y015132D01*
X017373Y015132D01*
X017431Y015073D01*
X017431Y014957D01*
X017373Y014898D01*
X017566Y014957D02*
X017799Y014957D01*
X017809Y016121D02*
X017809Y016355D01*
X017693Y016472D01*
X017576Y016355D01*
X017576Y016121D01*
X017441Y016121D02*
X017324Y016238D01*
X017383Y016238D02*
X017208Y016238D01*
X017208Y016121D02*
X017208Y016472D01*
X017383Y016472D01*
X017441Y016413D01*
X017441Y016297D01*
X017383Y016238D01*
X017576Y016297D02*
X017809Y016297D01*
X017809Y017471D02*
X017809Y017705D01*
X017693Y017822D01*
X017576Y017705D01*
X017576Y017471D01*
X017441Y017471D02*
X017324Y017588D01*
X017383Y017588D02*
X017208Y017588D01*
X017208Y017471D02*
X017208Y017822D01*
X017383Y017822D01*
X017441Y017763D01*
X017441Y017647D01*
X017383Y017588D01*
X017576Y017647D02*
X017809Y017647D01*
X017779Y018821D02*
X017779Y019055D01*
X017663Y019172D01*
X017546Y019055D01*
X017546Y018821D01*
X017411Y018821D02*
X017294Y018938D01*
X017353Y018938D02*
X017178Y018938D01*
X017178Y018821D02*
X017178Y019172D01*
X017353Y019172D01*
X017411Y019113D01*
X017411Y018997D01*
X017353Y018938D01*
X017546Y018997D02*
X017779Y018997D01*
X014389Y018965D02*
X014389Y018731D01*
X014389Y018907D02*
X014156Y018907D01*
X014156Y018965D02*
X014273Y019082D01*
X014389Y018965D01*
X014156Y018965D02*
X014156Y018731D01*
X014021Y018731D02*
X013904Y018848D01*
X013963Y018848D02*
X013788Y018848D01*
X013788Y018731D02*
X013788Y019082D01*
X013963Y019082D01*
X014021Y019023D01*
X014021Y018907D01*
X013963Y018848D01*
X014031Y020061D02*
X013914Y020178D01*
X013973Y020178D02*
X013798Y020178D01*
X013798Y020061D02*
X013798Y020412D01*
X013973Y020412D01*
X014031Y020353D01*
X014031Y020237D01*
X013973Y020178D01*
X014166Y020237D02*
X014399Y020237D01*
X014399Y020295D02*
X014399Y020061D01*
X014166Y020061D02*
X014166Y020295D01*
X014283Y020412D01*
X014399Y020295D01*
X003676Y008162D02*
X003559Y008045D01*
X003559Y007811D01*
X003424Y007811D02*
X003191Y007811D01*
X003191Y007870D01*
X003424Y008103D01*
X003424Y008162D01*
X003191Y008162D01*
X003559Y007987D02*
X003793Y007987D01*
X003793Y008045D02*
X003793Y007811D01*
X003793Y008045D02*
X003676Y008162D01*
X003941Y007261D02*
X004925Y007261D01*
X005196Y006952D02*
X005138Y006893D01*
X005138Y006660D01*
X005196Y006601D01*
X005313Y006601D01*
X005371Y006660D01*
X005506Y006601D02*
X005506Y006835D01*
X005623Y006952D01*
X005739Y006835D01*
X005739Y006601D01*
X005739Y006777D02*
X005506Y006777D01*
X005371Y006893D02*
X005313Y006952D01*
X005196Y006952D01*
X004759Y006775D02*
X004759Y006541D01*
X004759Y006717D02*
X004526Y006717D01*
X004526Y006775D02*
X004643Y006892D01*
X004759Y006775D01*
X004526Y006775D02*
X004526Y006541D01*
X004391Y006541D02*
X004158Y006541D01*
X004158Y006892D01*
D11*
X006306Y009016D02*
X006330Y009016D01*
X010716Y008011D02*
X010740Y008011D01*
X011141Y008011D02*
X011165Y008011D01*
X012613Y007003D02*
X012613Y006979D01*
X013153Y007596D02*
X013393Y007836D01*
X013153Y007596D02*
X012923Y007836D01*
X013153Y007596D02*
X013153Y009046D01*
X014653Y009046D01*
X014423Y008836D01*
X014653Y009046D02*
X014403Y009266D01*
X012804Y009036D02*
X012806Y009074D01*
X012812Y009111D01*
X012821Y009148D01*
X012835Y009184D01*
X012852Y009218D01*
X012872Y009250D01*
X012896Y009280D01*
X012922Y009307D01*
X012952Y009331D01*
X012983Y009352D01*
X013017Y009370D01*
X013052Y009385D01*
X013088Y009395D01*
X013126Y009402D01*
X013163Y009405D01*
X013201Y009404D01*
X013239Y009399D01*
X013276Y009390D01*
X013312Y009378D01*
X013346Y009362D01*
X013379Y009342D01*
X013409Y009319D01*
X013437Y009294D01*
X013462Y009265D01*
X013484Y009234D01*
X013503Y009201D01*
X013518Y009166D01*
X013530Y009130D01*
X013538Y009093D01*
X013542Y009055D01*
X013542Y009017D01*
X013538Y008979D01*
X013530Y008942D01*
X013518Y008906D01*
X013503Y008871D01*
X013484Y008838D01*
X013462Y008807D01*
X013437Y008778D01*
X013409Y008753D01*
X013379Y008730D01*
X013346Y008710D01*
X013312Y008694D01*
X013276Y008682D01*
X013239Y008673D01*
X013201Y008668D01*
X013163Y008667D01*
X013126Y008670D01*
X013088Y008677D01*
X013052Y008687D01*
X013017Y008702D01*
X012983Y008720D01*
X012952Y008741D01*
X012922Y008765D01*
X012896Y008792D01*
X012872Y008822D01*
X012852Y008854D01*
X012835Y008888D01*
X012821Y008924D01*
X012812Y008961D01*
X012806Y008998D01*
X012804Y009036D01*
X013087Y009036D02*
X013089Y009053D01*
X013095Y009069D01*
X013104Y009083D01*
X013116Y009095D01*
X013130Y009104D01*
X013146Y009110D01*
X013163Y009112D01*
X013180Y009110D01*
X013196Y009104D01*
X013210Y009095D01*
X013222Y009083D01*
X013231Y009069D01*
X013237Y009053D01*
X013239Y009036D01*
X013237Y009019D01*
X013231Y009003D01*
X013222Y008989D01*
X013210Y008977D01*
X013196Y008968D01*
X013180Y008962D01*
X013163Y008960D01*
X013146Y008962D01*
X013130Y008968D01*
X013116Y008977D01*
X013104Y008989D01*
X013095Y009003D01*
X013089Y009019D01*
X013087Y009036D01*
X012598Y010089D02*
X012598Y010113D01*
X011350Y010846D02*
X011326Y010846D01*
X011350Y012391D02*
X011326Y012391D01*
X014331Y011096D02*
X014355Y011096D01*
X015396Y011601D02*
X015420Y011601D01*
X017801Y011556D02*
X017825Y011556D01*
X018491Y011576D02*
X018515Y011576D01*
X018023Y009683D02*
X018023Y009659D01*
X018023Y009213D02*
X018023Y009189D01*
D12*
X014372Y020821D02*
X014209Y020821D01*
X014127Y020903D01*
X013938Y020821D02*
X013611Y020821D01*
X013775Y020821D02*
X013775Y021312D01*
X013611Y021148D01*
X013423Y021230D02*
X013423Y020903D01*
X013341Y020821D01*
X013177Y020821D01*
X013096Y020903D01*
X013423Y021230D01*
X013341Y021312D01*
X013177Y021312D01*
X013096Y021230D01*
X013096Y020903D01*
X012907Y020821D02*
X012580Y020821D01*
X012907Y021148D01*
X012907Y021230D01*
X012825Y021312D01*
X012662Y021312D01*
X012580Y021230D01*
X012405Y021571D02*
X012160Y021571D01*
X012160Y022062D01*
X012405Y022062D01*
X012487Y021980D01*
X012487Y021898D01*
X012405Y021817D01*
X012160Y021817D01*
X012405Y021817D02*
X012487Y021735D01*
X012487Y021653D01*
X012405Y021571D01*
X012676Y021653D02*
X012676Y021817D01*
X012758Y021898D01*
X012921Y021898D01*
X013003Y021817D01*
X013003Y021653D01*
X012921Y021571D01*
X012758Y021571D01*
X012676Y021653D01*
X013191Y021653D02*
X013273Y021735D01*
X013518Y021735D01*
X013518Y021817D02*
X013518Y021571D01*
X013273Y021571D01*
X013191Y021653D01*
X013273Y021898D02*
X013437Y021898D01*
X013518Y021817D01*
X013707Y021898D02*
X013707Y021571D01*
X013707Y021735D02*
X013871Y021898D01*
X013952Y021898D01*
X014137Y021817D02*
X014137Y021653D01*
X014219Y021571D01*
X014464Y021571D01*
X014464Y022062D01*
X014464Y021898D02*
X014219Y021898D01*
X014137Y021817D01*
X014209Y021312D02*
X014127Y021230D01*
X014209Y021312D02*
X014372Y021312D01*
X014454Y021230D01*
X014454Y021148D01*
X014372Y021067D01*
X014454Y020985D01*
X014454Y020903D01*
X014372Y020821D01*
X014372Y021067D02*
X014290Y021067D01*
X015168Y021735D02*
X015168Y022062D01*
X015495Y022062D02*
X015495Y021735D01*
X015332Y021571D01*
X015168Y021735D01*
X015684Y021898D02*
X015847Y022062D01*
X015847Y021571D01*
X015684Y021571D02*
X016011Y021571D01*
X016199Y021571D02*
X016281Y021571D01*
X016281Y021653D01*
X016199Y021653D01*
X016199Y021571D01*
X016457Y021571D02*
X016784Y021571D01*
X016621Y021571D02*
X016621Y022062D01*
X016457Y021898D01*
X011876Y021067D02*
X011876Y020821D01*
X011876Y021067D02*
X011794Y021148D01*
X011549Y021148D01*
X011549Y020821D01*
X011360Y020821D02*
X011360Y021067D01*
X011278Y021148D01*
X011115Y021148D01*
X011115Y020985D02*
X011360Y020985D01*
X011360Y020821D02*
X011115Y020821D01*
X011033Y020903D01*
X011115Y020985D01*
X010844Y021312D02*
X010681Y021312D01*
X010763Y021312D02*
X010763Y020903D01*
X010681Y020821D01*
X010599Y020821D01*
X010518Y020903D01*
X010433Y021571D02*
X010270Y021571D01*
X010351Y021571D02*
X010351Y021898D01*
X010270Y021898D01*
X010351Y022062D02*
X010351Y022144D01*
X010085Y021898D02*
X010003Y021898D01*
X009840Y021735D01*
X009840Y021898D02*
X009840Y021571D01*
X009651Y021571D02*
X009406Y021571D01*
X009324Y021653D01*
X009324Y021817D01*
X009406Y021898D01*
X009651Y021898D01*
X009651Y021490D01*
X009569Y021408D01*
X009488Y021408D01*
X009054Y021571D02*
X008890Y021571D01*
X008809Y021653D01*
X008809Y021817D01*
X008890Y021898D01*
X009054Y021898D01*
X009135Y021817D01*
X009135Y021735D01*
X008809Y021735D01*
X008624Y021898D02*
X008542Y021898D01*
X008379Y021735D01*
X008379Y021898D02*
X008379Y021571D01*
X008190Y021735D02*
X007863Y021735D01*
X007863Y021817D02*
X007945Y021898D01*
X008108Y021898D01*
X008190Y021817D01*
X008190Y021735D01*
X008108Y021571D02*
X007945Y021571D01*
X007863Y021653D01*
X007863Y021817D01*
X007674Y021817D02*
X007593Y021735D01*
X007348Y021735D01*
X007348Y021571D02*
X007348Y022062D01*
X007593Y022062D01*
X007674Y021980D01*
X007674Y021817D01*
X010613Y021898D02*
X010613Y021571D01*
X010940Y021571D02*
X010940Y021817D01*
X010858Y021898D01*
X010613Y021898D01*
X011129Y021817D02*
X011129Y021653D01*
X011211Y021571D01*
X011374Y021571D01*
X011456Y021735D02*
X011129Y021735D01*
X011129Y021817D02*
X011211Y021898D01*
X011374Y021898D01*
X011456Y021817D01*
X011456Y021735D01*
X004296Y020812D02*
X003969Y020321D01*
X003780Y020403D02*
X003780Y020812D01*
X003969Y020812D02*
X004296Y020321D01*
X003780Y020403D02*
X003698Y020321D01*
X003535Y020321D01*
X003453Y020403D01*
X003453Y020812D01*
X003264Y020648D02*
X003264Y020321D01*
X003264Y020567D02*
X002938Y020567D01*
X002938Y020648D02*
X003101Y020812D01*
X003264Y020648D01*
X002938Y020648D02*
X002938Y020321D01*
X002949Y018963D02*
X002867Y018882D01*
X002867Y018636D01*
X003358Y018636D01*
X003194Y018636D02*
X003194Y018882D01*
X003112Y018963D01*
X002949Y018963D01*
X002949Y018448D02*
X002867Y018366D01*
X002867Y018203D01*
X002949Y018121D01*
X003031Y018121D01*
X003112Y018203D01*
X003112Y018366D01*
X003194Y018448D01*
X003276Y018448D01*
X003358Y018366D01*
X003358Y018203D01*
X003276Y018121D01*
X003276Y017932D02*
X003358Y017850D01*
X003358Y017687D01*
X003276Y017605D01*
X002949Y017605D01*
X002867Y017687D01*
X002867Y017850D01*
X002949Y017932D01*
X002867Y017425D02*
X002867Y017261D01*
X002867Y017343D02*
X003358Y017343D01*
X003358Y017261D02*
X003358Y017425D01*
D13*
X005463Y018569D02*
X005463Y015104D01*
X005620Y014947D01*
X009085Y014947D01*
X009242Y015104D01*
X009242Y018569D01*
X009085Y018726D01*
X005620Y018726D01*
X005463Y018569D01*
X011153Y023136D02*
X011153Y023636D01*
X011403Y023886D01*
X011903Y023886D01*
X012153Y023636D01*
X012403Y023886D01*
X012903Y023886D01*
X013153Y023636D01*
X013153Y023136D01*
X012903Y022886D01*
X012403Y022886D01*
X012153Y023136D01*
X011903Y022886D01*
X011403Y022886D01*
X011153Y023136D01*
X013793Y023161D02*
X013793Y023661D01*
X014043Y023911D01*
X014543Y023911D01*
X014793Y023661D01*
X015043Y023911D01*
X015543Y023911D01*
X015793Y023661D01*
X016043Y023911D01*
X016543Y023911D01*
X016793Y023661D01*
X017043Y023911D01*
X017543Y023911D01*
X017793Y023661D01*
X018043Y023911D01*
X018543Y023911D01*
X018793Y023661D01*
X019043Y023911D01*
X019543Y023911D01*
X019793Y023661D01*
X019793Y023161D01*
X019543Y022911D01*
X019043Y022911D01*
X018793Y023161D01*
X018543Y022911D01*
X018043Y022911D01*
X017793Y023161D01*
X017543Y022911D01*
X017043Y022911D01*
X016793Y023161D01*
X016543Y022911D01*
X016043Y022911D01*
X015793Y023161D01*
X015543Y022911D01*
X015043Y022911D01*
X014793Y023161D01*
X014543Y022911D01*
X014043Y022911D01*
X013793Y023161D01*
X013492Y012429D02*
X013630Y012291D01*
X013630Y010992D02*
X013630Y010854D01*
X013492Y010854D01*
X012193Y010854D02*
X012055Y010854D01*
X012055Y010992D01*
X012055Y012291D02*
X012055Y012429D01*
X012193Y012429D01*
X015267Y009826D02*
X015582Y009826D01*
X016133Y009826D02*
X016448Y009826D01*
X016184Y010982D02*
X015948Y010982D01*
X015948Y011218D01*
X015974Y012147D02*
X016114Y012295D01*
X017051Y012321D02*
X017287Y012321D01*
X017287Y012084D01*
X017287Y011218D02*
X017287Y010982D01*
X017051Y010982D01*
X015819Y008448D02*
X015821Y008460D01*
X015826Y008471D01*
X015835Y008480D01*
X015846Y008485D01*
X015858Y008487D01*
X015870Y008485D01*
X015881Y008480D01*
X015890Y008471D01*
X015895Y008460D01*
X015897Y008448D01*
X015895Y008436D01*
X015890Y008425D01*
X015881Y008416D01*
X015870Y008411D01*
X015858Y008409D01*
X015846Y008411D01*
X015835Y008416D01*
X015826Y008425D01*
X015821Y008436D01*
X015819Y008448D01*
X015582Y007857D02*
X015267Y007857D01*
X016133Y007857D02*
X016448Y007857D01*
X012162Y006121D02*
X012162Y005884D01*
X012162Y006121D02*
X011926Y006121D01*
X010430Y006121D02*
X010193Y006121D01*
X010193Y005845D01*
X009193Y005716D02*
X009193Y008296D01*
X007793Y008296D01*
X007793Y005716D01*
X009193Y005716D01*
X010193Y004428D02*
X010193Y004152D01*
X010430Y004152D01*
X011926Y004152D02*
X012162Y004152D01*
X012162Y004388D01*
X004399Y003340D02*
X004006Y003340D01*
X004203Y003733D01*
X004399Y003340D01*
X002350Y007998D02*
X001720Y007998D01*
X001798Y008470D02*
X002350Y008470D01*
X002350Y007998D01*
X001798Y008470D02*
X001798Y010203D01*
X002350Y010203D01*
X002350Y010675D01*
X001720Y010675D01*
X000657Y010675D02*
X000657Y007998D01*
D14*
X005667Y015262D02*
X005669Y015282D01*
X005674Y015302D01*
X005684Y015320D01*
X005696Y015337D01*
X005711Y015351D01*
X005729Y015361D01*
X005748Y015369D01*
X005768Y015373D01*
X005788Y015373D01*
X005808Y015369D01*
X005827Y015361D01*
X005845Y015351D01*
X005860Y015337D01*
X005872Y015320D01*
X005882Y015302D01*
X005887Y015282D01*
X005889Y015262D01*
X005887Y015242D01*
X005882Y015222D01*
X005872Y015204D01*
X005860Y015187D01*
X005845Y015173D01*
X005827Y015163D01*
X005808Y015155D01*
X005788Y015151D01*
X005768Y015151D01*
X005748Y015155D01*
X005729Y015163D01*
X005711Y015173D01*
X005696Y015187D01*
X005684Y015204D01*
X005674Y015222D01*
X005669Y015242D01*
X005667Y015262D01*
X014988Y006136D02*
X014988Y004530D01*
X015838Y003830D02*
X016388Y003830D01*
X016388Y004230D01*
X016388Y006436D02*
X016388Y006836D01*
X015838Y006836D01*
D15*
X020028Y009036D02*
X020028Y010036D01*
X020030Y010053D01*
X020034Y010070D01*
X020041Y010086D01*
X020051Y010100D01*
X020064Y010113D01*
X020078Y010123D01*
X020094Y010130D01*
X020111Y010134D01*
X020128Y010136D01*
X020728Y010136D01*
X020745Y010134D01*
X020762Y010130D01*
X020778Y010123D01*
X020792Y010113D01*
X020805Y010100D01*
X020815Y010086D01*
X020822Y010070D01*
X020826Y010053D01*
X020828Y010036D01*
X020828Y009036D01*
X020826Y009019D01*
X020822Y009002D01*
X020815Y008986D01*
X020805Y008972D01*
X020792Y008959D01*
X020778Y008949D01*
X020762Y008942D01*
X020745Y008938D01*
X020728Y008936D01*
X020128Y008936D01*
X020111Y008938D01*
X020094Y008942D01*
X020078Y008949D01*
X020064Y008959D01*
X020051Y008972D01*
X020041Y008986D01*
X020034Y009002D01*
X020030Y009019D01*
X020028Y009036D01*
X021028Y009386D02*
X021028Y010386D01*
X021030Y010403D01*
X021034Y010420D01*
X021041Y010436D01*
X021051Y010450D01*
X021064Y010463D01*
X021078Y010473D01*
X021094Y010480D01*
X021111Y010484D01*
X021128Y010486D01*
X021728Y010486D01*
X021745Y010484D01*
X021762Y010480D01*
X021778Y010473D01*
X021792Y010463D01*
X021805Y010450D01*
X021815Y010436D01*
X021822Y010420D01*
X021826Y010403D01*
X021828Y010386D01*
X021828Y009386D01*
X021826Y009369D01*
X021822Y009352D01*
X021815Y009336D01*
X021805Y009322D01*
X021792Y009309D01*
X021778Y009299D01*
X021762Y009292D01*
X021745Y009288D01*
X021728Y009286D01*
X021128Y009286D01*
X021111Y009288D01*
X021094Y009292D01*
X021078Y009299D01*
X021064Y009309D01*
X021051Y009322D01*
X021041Y009336D01*
X021034Y009352D01*
X021030Y009369D01*
X021028Y009386D01*
X020453Y010961D02*
X021953Y010961D01*
X022203Y011211D01*
X022203Y011711D01*
X021953Y011961D01*
X020453Y011961D01*
X020203Y011711D01*
X020203Y011211D01*
X020453Y010961D01*
X020453Y011961D02*
X020203Y012211D01*
X020203Y012711D01*
X020453Y012961D01*
X021953Y012961D01*
X022203Y012711D01*
X022203Y012211D01*
X021953Y011961D01*
X021953Y012961D02*
X022203Y013211D01*
X022203Y013711D01*
X021953Y013961D01*
X020453Y013961D01*
X020203Y014211D01*
X020203Y014711D01*
X020453Y014961D01*
X021953Y014961D01*
X022203Y014711D01*
X022203Y014211D01*
X021953Y013961D01*
X021953Y014961D02*
X022203Y015211D01*
X022203Y015711D01*
X021953Y015961D01*
X020453Y015961D01*
X020203Y016211D01*
X020203Y016711D01*
X020453Y016961D01*
X021953Y016961D01*
X022203Y016711D01*
X022203Y016211D01*
X021953Y015961D01*
X021953Y016961D02*
X022203Y017211D01*
X022203Y017711D01*
X021953Y017961D01*
X020453Y017961D01*
X020203Y017711D01*
X020203Y017211D01*
X020453Y016961D01*
X020453Y015961D02*
X020203Y015711D01*
X020203Y015211D01*
X020453Y014961D01*
X020453Y013961D02*
X020203Y013711D01*
X020203Y013211D01*
X020453Y012961D01*
X020453Y017961D02*
X020203Y018211D01*
X020203Y018711D01*
X020453Y018961D01*
X021953Y018961D01*
X022203Y018711D01*
X022203Y018211D01*
X021953Y017961D01*
X021953Y018961D02*
X022203Y019211D01*
X022203Y019711D01*
X021953Y019961D01*
X020453Y019961D01*
X020203Y019711D01*
X020203Y019211D01*
X020453Y018961D01*
X020453Y019961D02*
X020203Y020211D01*
X020203Y020711D01*
X020453Y020961D01*
X021953Y020961D01*
X022203Y020711D01*
X022203Y020211D01*
X021953Y019961D01*
X021953Y020961D02*
X022203Y021211D01*
X022203Y021711D01*
X021953Y021961D01*
X020453Y021961D01*
X020203Y021711D01*
X020203Y021211D01*
X020453Y020961D01*
X019978Y021161D02*
X019978Y021761D01*
X019976Y021778D01*
X019972Y021795D01*
X019965Y021811D01*
X019955Y021825D01*
X019942Y021838D01*
X019928Y021848D01*
X019912Y021855D01*
X019895Y021859D01*
X019878Y021861D01*
X018778Y021861D01*
X018761Y021859D01*
X018744Y021855D01*
X018728Y021848D01*
X018714Y021838D01*
X018701Y021825D01*
X018691Y021811D01*
X018684Y021795D01*
X018680Y021778D01*
X018678Y021761D01*
X018678Y021161D01*
X018680Y021144D01*
X018684Y021127D01*
X018691Y021111D01*
X018701Y021097D01*
X018714Y021084D01*
X018728Y021074D01*
X018744Y021067D01*
X018761Y021063D01*
X018778Y021061D01*
X019878Y021061D01*
X019895Y021063D01*
X019912Y021067D01*
X019928Y021074D01*
X019942Y021084D01*
X019955Y021097D01*
X019965Y021111D01*
X019972Y021127D01*
X019976Y021144D01*
X019978Y021161D01*
X019878Y021961D02*
X018778Y021961D01*
X018761Y021963D01*
X018744Y021967D01*
X018728Y021974D01*
X018714Y021984D01*
X018701Y021997D01*
X018691Y022011D01*
X018684Y022027D01*
X018680Y022044D01*
X018678Y022061D01*
X018678Y022661D01*
X018680Y022678D01*
X018684Y022695D01*
X018691Y022711D01*
X018701Y022725D01*
X018714Y022738D01*
X018728Y022748D01*
X018744Y022755D01*
X018761Y022759D01*
X018778Y022761D01*
X019878Y022761D01*
X019895Y022759D01*
X019912Y022755D01*
X019928Y022748D01*
X019942Y022738D01*
X019955Y022725D01*
X019965Y022711D01*
X019972Y022695D01*
X019976Y022678D01*
X019978Y022661D01*
X019978Y022061D01*
X019976Y022044D01*
X019972Y022027D01*
X019965Y022011D01*
X019955Y021997D01*
X019942Y021984D01*
X019928Y021974D01*
X019912Y021967D01*
X019895Y021963D01*
X019878Y021961D01*
X020203Y022211D02*
X020453Y021961D01*
X020203Y022211D02*
X020203Y022711D01*
X020453Y022961D01*
X021953Y022961D01*
X022203Y022711D01*
X022203Y022211D01*
X021953Y021961D01*
X021953Y022961D02*
X022203Y023211D01*
X022203Y023711D01*
X021953Y023961D01*
X020453Y023961D01*
X020203Y023711D01*
X020203Y023211D01*
X020453Y022961D01*
X006653Y022711D02*
X006653Y022211D01*
X006403Y021961D01*
X004903Y021961D01*
X004653Y022211D01*
X004653Y022711D01*
X004403Y022961D01*
X004653Y023211D01*
X004653Y023711D01*
X004403Y023961D01*
X002903Y023961D01*
X002653Y023711D01*
X002653Y023211D01*
X002403Y022961D01*
X000903Y022961D01*
X000653Y023211D01*
X000653Y023711D01*
X000903Y023961D01*
X002403Y023961D01*
X002653Y023711D01*
X002653Y023211D01*
X002903Y022961D01*
X004403Y022961D01*
X004653Y022711D02*
X004903Y022961D01*
X004653Y023211D01*
X004653Y023711D01*
X004903Y023961D01*
X006403Y023961D01*
X006653Y023711D01*
X006653Y023211D01*
X006403Y022961D01*
X004903Y022961D01*
X004653Y022711D02*
X004653Y022211D01*
X004403Y021961D01*
X002903Y021961D01*
X002653Y022211D01*
X002653Y022711D01*
X002403Y022961D01*
X002653Y022711D02*
X002903Y022961D01*
X002653Y022711D02*
X002653Y022211D01*
X002403Y021961D01*
X000903Y021961D01*
X000653Y022211D01*
X000653Y022711D01*
X000903Y022961D01*
X000903Y021961D02*
X000653Y021711D01*
X000653Y021211D01*
X000903Y020961D01*
X002403Y020961D01*
X002653Y021211D01*
X002653Y021711D01*
X002403Y021961D01*
X002653Y021711D02*
X002903Y021961D01*
X002653Y021711D02*
X002653Y021211D01*
X002903Y020961D01*
X004403Y020961D01*
X004653Y021211D01*
X004653Y021711D01*
X004403Y021961D01*
X004653Y021711D02*
X004903Y021961D01*
X004653Y021711D02*
X004653Y021211D01*
X004903Y020961D01*
X006403Y020961D01*
X006653Y021211D01*
X006653Y021711D01*
X006403Y021961D01*
X006653Y022711D02*
X006403Y022961D01*
X002653Y019361D02*
X002653Y018861D01*
X002403Y018611D01*
X000903Y018611D01*
X000653Y018361D01*
X000653Y017861D01*
X000903Y017611D01*
X000653Y017361D01*
X000653Y016861D01*
X000903Y016611D01*
X002403Y016611D01*
X002653Y016861D01*
X002653Y017361D01*
X002403Y017611D01*
X000903Y017611D01*
X000903Y018611D02*
X000653Y018861D01*
X000653Y019361D01*
X000903Y019611D01*
X002403Y019611D01*
X002653Y019361D01*
X002403Y018611D02*
X002653Y018361D01*
X002653Y017861D01*
X002403Y017611D01*
D16*
X008183Y010906D03*
X008823Y010901D03*
X009458Y010896D03*
X010103Y010891D03*
D17*
X004769Y013523D02*
X004769Y014310D01*
X004276Y014310D02*
X004276Y013523D01*
X004059Y007507D02*
X004846Y007507D01*
X004846Y007015D02*
X004059Y007015D01*
D18*
X004453Y007261D03*
D19*
X004523Y013916D03*
D20*
X004203Y003756D03*
D21*
X020703Y011461D03*
X020703Y012461D03*
X020703Y013461D03*
X020703Y014461D03*
X020703Y015461D03*
X020703Y016461D03*
X020703Y017461D03*
X020703Y018461D03*
X020703Y019461D03*
X021703Y019461D03*
X021703Y018461D03*
X021703Y017461D03*
X021703Y016461D03*
X021703Y015461D03*
X021703Y014461D03*
X021703Y013461D03*
X021703Y012461D03*
X021703Y011461D03*
X021703Y020461D03*
X021703Y021461D03*
X021703Y022461D03*
X021703Y023461D03*
X020703Y023461D03*
X020703Y022461D03*
X020703Y021461D03*
X020703Y020461D03*
D22*
X017428Y019611D03*
X017428Y018261D03*
X017428Y016911D03*
X017428Y015586D03*
X014053Y015586D03*
X014053Y016911D03*
X014053Y018261D03*
X014053Y019611D03*
X004128Y009761D03*
X004128Y008911D03*
M02*
