G75*
G70*
%OFA0B0*%
%FSLAX24Y24*%
%IPPOS*%
%LPD*%
%AMOC8*
5,1,8,0,0,1.08239X$1,22.5*
%
%ADD10C,0.0740*%
%ADD11OC8,0.0610*%
%ADD12OC8,0.0600*%
%ADD13R,0.0460X0.0630*%
%ADD14C,0.0100*%
%ADD15C,0.0396*%
%ADD16C,0.0240*%
%ADD17C,0.0475*%
%ADD18C,0.0400*%
%ADD19C,0.0120*%
%ADD20C,0.0080*%
%ADD21C,0.0160*%
%ADD22C,0.0650*%
%ADD23C,0.0357*%
%ADD24C,0.1660*%
D10*
X011653Y023386D03*
X012653Y023386D03*
X014293Y023411D03*
X015293Y023411D03*
X016293Y023411D03*
X017293Y023411D03*
X018293Y023411D03*
X019293Y023411D03*
D11*
X002153Y019111D03*
X002153Y018111D03*
X002153Y017111D03*
X001153Y017111D03*
X001153Y018111D03*
X001153Y019111D03*
D12*
X001153Y021461D03*
X002153Y021461D03*
X003153Y021461D03*
X003153Y022461D03*
X003153Y023461D03*
X002153Y023461D03*
X002153Y022461D03*
X001153Y022461D03*
X001153Y023461D03*
X004153Y023461D03*
X005153Y023461D03*
X005153Y022461D03*
X005153Y021461D03*
X004153Y021461D03*
X004153Y022461D03*
X006153Y022461D03*
X006153Y021461D03*
X006153Y023461D03*
X020703Y023461D03*
X020703Y022461D03*
X020703Y021461D03*
X020703Y020461D03*
X021703Y020461D03*
X021703Y021461D03*
X021703Y022461D03*
X021703Y023461D03*
X021703Y019461D03*
X021703Y018461D03*
X021703Y017461D03*
X021703Y016461D03*
X021703Y015461D03*
X021703Y014461D03*
X021703Y013461D03*
X021703Y012461D03*
X021703Y011461D03*
X020703Y011461D03*
X020703Y012461D03*
X020703Y013461D03*
X020703Y014461D03*
X020703Y015461D03*
X020703Y016461D03*
X020703Y017461D03*
X020703Y018461D03*
X020703Y019461D03*
D13*
X019628Y022371D03*
X019028Y022371D03*
D14*
X000903Y016689D02*
X000903Y002686D01*
X017103Y002686D01*
X017103Y008211D01*
X017179Y008395D01*
X017319Y008535D01*
X017503Y008611D01*
X021903Y008611D01*
X021903Y010997D01*
X021897Y010991D01*
X021521Y010991D01*
X021521Y010863D01*
X021465Y010728D01*
X021361Y010624D01*
X021226Y010568D01*
X021173Y010568D01*
X021173Y010170D01*
X021044Y010041D01*
X020719Y009716D01*
X020028Y009716D01*
X019936Y009624D01*
X019801Y009568D01*
X019654Y009568D01*
X019547Y009613D01*
X019565Y009595D01*
X019621Y009460D01*
X019621Y009313D01*
X019565Y009178D01*
X019461Y009074D01*
X019326Y009018D01*
X019179Y009018D01*
X019044Y009074D01*
X018940Y009178D01*
X018884Y009313D01*
X018884Y009460D01*
X018940Y009595D01*
X019033Y009687D01*
X019033Y010302D01*
X019383Y010652D01*
X019511Y010781D01*
X019893Y010781D01*
X019940Y010895D01*
X020044Y010998D01*
X020179Y011054D01*
X020326Y011054D01*
X020461Y010998D01*
X020565Y010895D01*
X020621Y010760D01*
X020621Y010613D01*
X020565Y010478D01*
X020461Y010374D01*
X020326Y010318D01*
X020179Y010318D01*
X020124Y010341D01*
X019694Y010341D01*
X019657Y010304D01*
X019801Y010304D01*
X019936Y010248D01*
X020028Y010156D01*
X020536Y010156D01*
X020733Y010352D01*
X020733Y010827D01*
X020784Y010879D01*
X020784Y011010D01*
X020785Y011011D01*
X020753Y011011D01*
X020753Y011411D01*
X020753Y011511D01*
X021153Y011511D01*
X021153Y011648D01*
X020889Y011911D01*
X020753Y011911D01*
X020753Y011511D01*
X020653Y011511D01*
X020653Y011411D01*
X020753Y011411D01*
X021153Y011411D01*
X021153Y011304D01*
X021226Y011304D01*
X021233Y011302D01*
X021233Y011656D01*
X021508Y011931D01*
X021897Y011931D01*
X021903Y011926D01*
X021903Y011997D01*
X021897Y011991D01*
X021508Y011991D01*
X021233Y012267D01*
X021233Y012656D01*
X021508Y012931D01*
X021897Y012931D01*
X021903Y012926D01*
X021903Y012997D01*
X021897Y012991D01*
X021508Y012991D01*
X021233Y013267D01*
X021233Y013656D01*
X021508Y013931D01*
X021897Y013931D01*
X021903Y013926D01*
X021903Y014025D01*
X021889Y014011D01*
X021753Y014011D01*
X021753Y014411D01*
X021653Y014411D01*
X021653Y014011D01*
X021516Y014011D01*
X021253Y014275D01*
X021253Y014411D01*
X021653Y014411D01*
X021653Y014511D01*
X021253Y014511D01*
X021253Y014648D01*
X021516Y014911D01*
X021653Y014911D01*
X021653Y014511D01*
X021753Y014511D01*
X021753Y014911D01*
X021889Y014911D01*
X021903Y014898D01*
X021903Y014997D01*
X021897Y014991D01*
X021508Y014991D01*
X021233Y015267D01*
X021233Y015656D01*
X021508Y015931D01*
X021897Y015931D01*
X021903Y015926D01*
X021903Y015997D01*
X021897Y015991D01*
X021508Y015991D01*
X021233Y016267D01*
X021233Y016656D01*
X021508Y016931D01*
X021897Y016931D01*
X021903Y016926D01*
X021903Y017025D01*
X021889Y017011D01*
X021753Y017011D01*
X021753Y017411D01*
X021653Y017411D01*
X021653Y017011D01*
X021516Y017011D01*
X021253Y017275D01*
X021253Y017411D01*
X021653Y017411D01*
X021653Y017511D01*
X021253Y017511D01*
X021253Y017648D01*
X021516Y017911D01*
X021653Y017911D01*
X021653Y017511D01*
X021753Y017511D01*
X021753Y017911D01*
X021889Y017911D01*
X021903Y017898D01*
X021903Y017997D01*
X021897Y017991D01*
X021508Y017991D01*
X021233Y018267D01*
X021233Y018656D01*
X021508Y018931D01*
X021897Y018931D01*
X021903Y018926D01*
X021903Y018997D01*
X021897Y018991D01*
X021508Y018991D01*
X021233Y019267D01*
X021233Y019656D01*
X021508Y019931D01*
X021897Y019931D01*
X021903Y019926D01*
X021903Y019997D01*
X021897Y019991D01*
X021508Y019991D01*
X021233Y020267D01*
X021233Y020656D01*
X021508Y020931D01*
X021897Y020931D01*
X021903Y020926D01*
X021903Y020997D01*
X021897Y020991D01*
X021508Y020991D01*
X021233Y021267D01*
X021233Y021656D01*
X021318Y021742D01*
X021257Y021716D01*
X021112Y021716D01*
X021173Y021656D01*
X021173Y021267D01*
X020897Y020991D01*
X020508Y020991D01*
X020233Y021267D01*
X020233Y021656D01*
X020293Y021716D01*
X019983Y021716D01*
X019891Y021754D01*
X019821Y021825D01*
X019759Y021886D01*
X018727Y021886D01*
X018628Y021986D01*
X018628Y022081D01*
X015868Y022081D01*
X015261Y021474D01*
X015261Y021443D01*
X015205Y021308D01*
X015183Y021286D01*
X015183Y015067D01*
X015205Y015045D01*
X015261Y014910D01*
X015261Y014763D01*
X015205Y014628D01*
X015101Y014524D01*
X014966Y014468D01*
X014819Y014468D01*
X014684Y014524D01*
X014580Y014628D01*
X014524Y014763D01*
X014524Y014910D01*
X014580Y015045D01*
X014603Y015067D01*
X014603Y017286D01*
X014601Y017284D01*
X014466Y017228D01*
X014319Y017228D01*
X014184Y017284D01*
X014080Y017388D01*
X014024Y017523D01*
X014024Y017670D01*
X014080Y017805D01*
X014184Y017908D01*
X014319Y017964D01*
X014466Y017964D01*
X014601Y017908D01*
X014603Y017907D01*
X014603Y021286D01*
X014580Y021308D01*
X014524Y021443D01*
X014524Y021590D01*
X014580Y021725D01*
X014684Y021828D01*
X014819Y021884D01*
X014851Y021884D01*
X015583Y022617D01*
X015690Y022661D01*
X018628Y022661D01*
X018628Y022757D01*
X018727Y022856D01*
X019928Y022856D01*
X020028Y022757D01*
X020028Y022325D01*
X020136Y022216D01*
X020283Y022216D01*
X020233Y022267D01*
X020233Y022656D01*
X020508Y022931D01*
X020897Y022931D01*
X021173Y022656D01*
X021173Y022285D01*
X021233Y022345D01*
X021233Y022656D01*
X021453Y022876D01*
X021453Y023047D01*
X021233Y023267D01*
X021233Y023656D01*
X021263Y023686D01*
X021142Y023686D01*
X021173Y023656D01*
X021173Y023267D01*
X020897Y022991D01*
X020508Y022991D01*
X020233Y023267D01*
X020233Y023656D01*
X020263Y023686D01*
X019763Y023686D01*
X019833Y023519D01*
X019833Y023304D01*
X019750Y023105D01*
X019598Y022954D01*
X019400Y022871D01*
X019185Y022871D01*
X018987Y022954D01*
X018835Y023105D01*
X018793Y023207D01*
X018750Y023105D01*
X018598Y022954D01*
X018400Y022871D01*
X018185Y022871D01*
X017987Y022954D01*
X017835Y023105D01*
X017793Y023207D01*
X017750Y023105D01*
X017598Y022954D01*
X017400Y022871D01*
X017185Y022871D01*
X016987Y022954D01*
X016835Y023105D01*
X016793Y023207D01*
X016750Y023105D01*
X016598Y022954D01*
X016400Y022871D01*
X016185Y022871D01*
X015987Y022954D01*
X015835Y023105D01*
X015793Y023207D01*
X015750Y023105D01*
X015598Y022954D01*
X015400Y022871D01*
X015185Y022871D01*
X014987Y022954D01*
X014835Y023105D01*
X014793Y023207D01*
X014750Y023105D01*
X014598Y022954D01*
X014400Y022871D01*
X014185Y022871D01*
X013987Y022954D01*
X013835Y023105D01*
X013753Y023304D01*
X013753Y023519D01*
X013822Y023686D01*
X013077Y023686D01*
X013097Y023659D01*
X013134Y023586D01*
X013160Y023508D01*
X013171Y023436D01*
X012703Y023436D01*
X012703Y023336D01*
X013171Y023336D01*
X013160Y023265D01*
X013769Y023265D01*
X013753Y023364D02*
X012703Y023364D01*
X012703Y023336D02*
X012603Y023336D01*
X012603Y022868D01*
X012531Y022879D01*
X012453Y022904D01*
X012380Y022942D01*
X012314Y022990D01*
X012256Y023048D01*
X012208Y023114D01*
X012171Y023187D01*
X012163Y023209D01*
X012110Y023080D01*
X011958Y022929D01*
X011760Y022846D01*
X011545Y022846D01*
X011491Y022869D01*
X010553Y021923D01*
X010553Y020997D01*
X010615Y020935D01*
X010671Y020800D01*
X010671Y020653D01*
X010615Y020518D01*
X010511Y020414D01*
X010376Y020358D01*
X010229Y020358D01*
X010094Y020414D01*
X010072Y020436D01*
X007830Y020436D01*
X007723Y020481D01*
X007642Y020562D01*
X006623Y021581D01*
X006623Y021267D01*
X006347Y020991D01*
X005958Y020991D01*
X005683Y021267D01*
X005683Y021656D01*
X005958Y021931D01*
X006272Y021931D01*
X006212Y021991D01*
X005958Y021991D01*
X005683Y022267D01*
X005683Y022656D01*
X005958Y022931D01*
X006347Y022931D01*
X006623Y022656D01*
X006623Y022401D01*
X008008Y021016D01*
X010053Y021016D01*
X010053Y022026D01*
X010052Y022075D01*
X010053Y022076D01*
X010053Y022076D01*
X010071Y022122D01*
X010090Y022167D01*
X010090Y022168D01*
X010091Y022168D01*
X010125Y022203D01*
X011136Y023221D01*
X011113Y023279D01*
X011113Y023494D01*
X011192Y023686D01*
X009167Y023686D01*
X009250Y023603D01*
X009402Y023235D01*
X009402Y022837D01*
X009250Y022470D01*
X008969Y022189D01*
X008601Y022036D01*
X008204Y022036D01*
X007836Y022189D01*
X007555Y022470D01*
X007403Y022837D01*
X007403Y023235D01*
X007555Y023603D01*
X007638Y023686D01*
X006564Y023686D01*
X006603Y023648D01*
X006603Y023511D01*
X006203Y023511D01*
X006203Y023411D01*
X006603Y023411D01*
X006603Y023275D01*
X006339Y023011D01*
X006203Y023011D01*
X006203Y023411D01*
X006103Y023411D01*
X006103Y023011D01*
X005966Y023011D01*
X005703Y023275D01*
X005703Y023411D01*
X006103Y023411D01*
X006103Y023511D01*
X005703Y023511D01*
X005703Y023648D01*
X005741Y023686D01*
X005564Y023686D01*
X005603Y023648D01*
X005603Y023511D01*
X005203Y023511D01*
X005203Y023411D01*
X005603Y023411D01*
X005603Y023275D01*
X005339Y023011D01*
X005203Y023011D01*
X005203Y023411D01*
X005103Y023411D01*
X005103Y023011D01*
X004966Y023011D01*
X004703Y023275D01*
X004703Y023411D01*
X005103Y023411D01*
X005103Y023511D01*
X004703Y023511D01*
X004703Y023648D01*
X004741Y023686D01*
X004564Y023686D01*
X004603Y023648D01*
X004603Y023511D01*
X004203Y023511D01*
X004203Y023411D01*
X004603Y023411D01*
X004603Y023275D01*
X004339Y023011D01*
X004203Y023011D01*
X004203Y023411D01*
X004103Y023411D01*
X004103Y023011D01*
X003966Y023011D01*
X003703Y023275D01*
X003703Y023411D01*
X004103Y023411D01*
X004103Y023511D01*
X003703Y023511D01*
X003703Y023648D01*
X003741Y023686D01*
X003564Y023686D01*
X003603Y023648D01*
X003603Y023511D01*
X003203Y023511D01*
X003203Y023411D01*
X003603Y023411D01*
X003603Y023275D01*
X003339Y023011D01*
X003203Y023011D01*
X003203Y023411D01*
X003103Y023411D01*
X003103Y023011D01*
X002966Y023011D01*
X002703Y023275D01*
X002703Y023411D01*
X003103Y023411D01*
X003103Y023511D01*
X002703Y023511D01*
X002703Y023648D01*
X002741Y023686D01*
X002564Y023686D01*
X002603Y023648D01*
X002603Y023511D01*
X002203Y023511D01*
X002203Y023411D01*
X002603Y023411D01*
X002603Y023275D01*
X002339Y023011D01*
X002203Y023011D01*
X002203Y023411D01*
X002103Y023411D01*
X002103Y023011D01*
X001966Y023011D01*
X001703Y023275D01*
X001703Y023411D01*
X002103Y023411D01*
X002103Y023511D01*
X001703Y023511D01*
X001703Y023648D01*
X001741Y023686D01*
X001564Y023686D01*
X001603Y023648D01*
X001603Y023511D01*
X001203Y023511D01*
X001203Y023411D01*
X001603Y023411D01*
X001603Y023275D01*
X001339Y023011D01*
X001203Y023011D01*
X001203Y023411D01*
X001103Y023411D01*
X001103Y023011D01*
X000966Y023011D01*
X000903Y023075D01*
X000903Y022876D01*
X000958Y022931D01*
X001347Y022931D01*
X001623Y022656D01*
X001623Y022285D01*
X001683Y022345D01*
X001683Y022656D01*
X001958Y022931D01*
X002347Y022931D01*
X002623Y022656D01*
X002623Y022267D01*
X002347Y021991D01*
X002036Y021991D01*
X001976Y021931D01*
X002347Y021931D01*
X002623Y021656D01*
X002623Y021267D01*
X002347Y020991D01*
X002176Y020991D01*
X002364Y020803D01*
X002403Y020711D01*
X002403Y019533D01*
X002574Y019361D01*
X003967Y019361D01*
X004024Y019418D01*
X004159Y019474D01*
X004306Y019474D01*
X004441Y019418D01*
X004545Y019315D01*
X004601Y019180D01*
X004601Y019033D01*
X004545Y018898D01*
X004473Y018826D01*
X007730Y018826D01*
X008726Y017830D01*
X008847Y017830D01*
X008975Y017777D01*
X009003Y017748D01*
X009061Y017806D01*
X009233Y017977D01*
X009233Y018636D01*
X009140Y018728D01*
X009084Y018863D01*
X009084Y019010D01*
X009140Y019145D01*
X009244Y019248D01*
X009379Y019304D01*
X009526Y019304D01*
X009661Y019248D01*
X009765Y019145D01*
X009821Y019010D01*
X009821Y018863D01*
X009765Y018728D01*
X009673Y018636D01*
X014603Y018636D01*
X014603Y018734D02*
X009767Y018734D01*
X009808Y018833D02*
X014603Y018833D01*
X014603Y018931D02*
X009821Y018931D01*
X009812Y019030D02*
X014603Y019030D01*
X014603Y019128D02*
X009771Y019128D01*
X009683Y019227D02*
X014603Y019227D01*
X014603Y019325D02*
X004534Y019325D01*
X004581Y019227D02*
X009223Y019227D01*
X009134Y019128D02*
X004601Y019128D01*
X004599Y019030D02*
X009093Y019030D01*
X009084Y018931D02*
X004559Y018931D01*
X004480Y018833D02*
X009097Y018833D01*
X009138Y018734D02*
X007821Y018734D01*
X007920Y018636D02*
X009232Y018636D01*
X009233Y018537D02*
X008018Y018537D01*
X008117Y018439D02*
X009233Y018439D01*
X009233Y018340D02*
X008215Y018340D01*
X008314Y018242D02*
X009233Y018242D01*
X009233Y018143D02*
X008412Y018143D01*
X008511Y018045D02*
X009233Y018045D01*
X009201Y017946D02*
X008609Y017946D01*
X008708Y017848D02*
X009103Y017848D01*
X009004Y017749D02*
X009002Y017749D01*
X009153Y017586D02*
X009153Y015946D01*
X009333Y015766D01*
X009333Y014806D01*
X009654Y014991D02*
X014558Y014991D01*
X014524Y014893D02*
X009695Y014893D01*
X009701Y014880D02*
X009645Y015015D01*
X009553Y015107D01*
X009553Y015857D01*
X009424Y015986D01*
X009373Y016037D01*
X009373Y017495D01*
X009673Y017795D01*
X009673Y018636D01*
X009673Y018537D02*
X014603Y018537D01*
X014603Y018439D02*
X009673Y018439D01*
X009673Y018340D02*
X014603Y018340D01*
X014603Y018242D02*
X009673Y018242D01*
X009673Y018143D02*
X014603Y018143D01*
X014603Y018045D02*
X009673Y018045D01*
X009673Y017946D02*
X014276Y017946D01*
X014124Y017848D02*
X009673Y017848D01*
X009627Y017749D02*
X014058Y017749D01*
X014024Y017651D02*
X009528Y017651D01*
X009430Y017552D02*
X014024Y017552D01*
X014053Y017454D02*
X009373Y017454D01*
X009373Y017355D02*
X014113Y017355D01*
X014250Y017257D02*
X009373Y017257D01*
X009373Y017158D02*
X014603Y017158D01*
X014603Y017060D02*
X009373Y017060D01*
X009373Y016961D02*
X014603Y016961D01*
X014603Y016863D02*
X009373Y016863D01*
X009373Y016764D02*
X014603Y016764D01*
X014603Y016666D02*
X009373Y016666D01*
X009373Y016567D02*
X014603Y016567D01*
X014603Y016469D02*
X009373Y016469D01*
X009373Y016370D02*
X014603Y016370D01*
X014603Y016272D02*
X009373Y016272D01*
X009373Y016173D02*
X014603Y016173D01*
X014603Y016075D02*
X009373Y016075D01*
X009434Y015976D02*
X014603Y015976D01*
X014603Y015878D02*
X009532Y015878D01*
X009553Y015779D02*
X014603Y015779D01*
X014603Y015681D02*
X009553Y015681D01*
X009553Y015582D02*
X014603Y015582D01*
X014603Y015484D02*
X009553Y015484D01*
X009553Y015385D02*
X014603Y015385D01*
X014603Y015287D02*
X009553Y015287D01*
X009553Y015188D02*
X014603Y015188D01*
X014603Y015090D02*
X009570Y015090D01*
X009701Y014880D02*
X009701Y014794D01*
X009816Y014794D01*
X014524Y014794D01*
X014552Y014696D02*
X009994Y014696D01*
X009951Y014738D02*
X009816Y014794D01*
X009951Y014738D02*
X010055Y014635D01*
X010111Y014500D01*
X010111Y014353D01*
X010055Y014218D01*
X009951Y014114D01*
X009816Y014058D01*
X009669Y014058D01*
X009534Y014114D01*
X009442Y014206D01*
X008981Y014206D01*
X008853Y014335D01*
X008443Y014745D01*
X008443Y015675D01*
X008281Y015836D01*
X008101Y015836D01*
X007973Y015965D01*
X007443Y016495D01*
X007443Y017195D01*
X007271Y017366D01*
X006603Y017366D01*
X006511Y017274D01*
X006376Y017218D01*
X006229Y017218D01*
X006094Y017274D01*
X005990Y017378D01*
X005934Y017513D01*
X005934Y017660D01*
X005990Y017795D01*
X005992Y017796D01*
X003470Y017796D01*
X002923Y017249D01*
X002923Y016779D01*
X002673Y016529D01*
X002550Y016406D01*
X001561Y016406D01*
X001363Y016604D01*
X001363Y013603D01*
X001656Y013896D01*
X002142Y013896D01*
X002244Y013998D01*
X002379Y014054D01*
X002526Y014054D01*
X002661Y013998D01*
X002765Y013895D01*
X002821Y013760D01*
X002821Y013613D01*
X002765Y013478D01*
X002661Y013374D01*
X002526Y013318D01*
X002379Y013318D01*
X002244Y013374D01*
X002142Y013476D01*
X001830Y013476D01*
X001563Y013209D01*
X001563Y011653D01*
X001630Y011586D01*
X002190Y011586D01*
X002275Y011588D01*
X002277Y011586D01*
X002280Y011586D01*
X002339Y011527D01*
X002947Y010946D01*
X002950Y010946D01*
X003009Y010887D01*
X003071Y010828D01*
X003071Y010825D01*
X003073Y010823D01*
X003073Y010739D01*
X003074Y010654D01*
X003073Y010652D01*
X003073Y008208D01*
X003315Y007941D01*
X003373Y007883D01*
X003373Y007878D01*
X003376Y007873D01*
X003373Y007791D01*
X003373Y007427D01*
X003475Y007325D01*
X003531Y007190D01*
X003531Y007043D01*
X003475Y006908D01*
X003371Y006804D01*
X003236Y006748D01*
X003089Y006748D01*
X002954Y006804D01*
X002850Y006908D01*
X002794Y007043D01*
X002794Y007190D01*
X002831Y007278D01*
X002719Y007278D01*
X002584Y007334D01*
X002480Y007438D01*
X002424Y007573D01*
X002424Y007720D01*
X002448Y007778D01*
X002453Y007817D01*
X002453Y010556D01*
X002019Y010966D01*
X001366Y010966D01*
X001066Y011266D01*
X000943Y011389D01*
X000943Y016649D01*
X000903Y016689D01*
X000903Y016666D02*
X000926Y016666D01*
X000943Y016567D02*
X000903Y016567D01*
X000903Y016469D02*
X000943Y016469D01*
X000943Y016370D02*
X000903Y016370D01*
X000903Y016272D02*
X000943Y016272D01*
X000943Y016173D02*
X000903Y016173D01*
X000903Y016075D02*
X000943Y016075D01*
X000943Y015976D02*
X000903Y015976D01*
X000903Y015878D02*
X000943Y015878D01*
X000943Y015779D02*
X000903Y015779D01*
X000903Y015681D02*
X000943Y015681D01*
X000943Y015582D02*
X000903Y015582D01*
X000903Y015484D02*
X000943Y015484D01*
X000943Y015385D02*
X000903Y015385D01*
X000903Y015287D02*
X000943Y015287D01*
X000943Y015188D02*
X000903Y015188D01*
X000903Y015090D02*
X000943Y015090D01*
X000943Y014991D02*
X000903Y014991D01*
X000903Y014893D02*
X000943Y014893D01*
X000943Y014794D02*
X000903Y014794D01*
X000903Y014696D02*
X000943Y014696D01*
X000943Y014597D02*
X000903Y014597D01*
X000903Y014499D02*
X000943Y014499D01*
X000943Y014400D02*
X000903Y014400D01*
X000903Y014302D02*
X000943Y014302D01*
X000943Y014203D02*
X000903Y014203D01*
X000903Y014105D02*
X000943Y014105D01*
X000943Y014006D02*
X000903Y014006D01*
X000903Y013908D02*
X000943Y013908D01*
X000943Y013809D02*
X000903Y013809D01*
X000903Y013711D02*
X000943Y013711D01*
X000943Y013612D02*
X000903Y013612D01*
X000903Y013514D02*
X000943Y013514D01*
X000943Y013415D02*
X000903Y013415D01*
X000903Y013317D02*
X000943Y013317D01*
X000943Y013218D02*
X000903Y013218D01*
X000903Y013120D02*
X000943Y013120D01*
X000943Y013021D02*
X000903Y013021D01*
X000903Y012923D02*
X000943Y012923D01*
X000943Y012824D02*
X000903Y012824D01*
X000903Y012726D02*
X000943Y012726D01*
X000943Y012627D02*
X000903Y012627D01*
X000903Y012529D02*
X000943Y012529D01*
X000943Y012430D02*
X000903Y012430D01*
X000903Y012332D02*
X000943Y012332D01*
X000943Y012233D02*
X000903Y012233D01*
X000903Y012135D02*
X000943Y012135D01*
X000943Y012036D02*
X000903Y012036D01*
X000903Y011938D02*
X000943Y011938D01*
X000943Y011839D02*
X000903Y011839D01*
X000903Y011741D02*
X000943Y011741D01*
X000943Y011642D02*
X000903Y011642D01*
X000903Y011544D02*
X000943Y011544D01*
X000943Y011445D02*
X000903Y011445D01*
X000903Y011347D02*
X000985Y011347D01*
X000903Y011248D02*
X001084Y011248D01*
X001182Y011150D02*
X000903Y011150D01*
X000903Y011051D02*
X001281Y011051D01*
X000903Y010953D02*
X002033Y010953D01*
X002137Y010854D02*
X000903Y010854D01*
X000903Y010756D02*
X002241Y010756D01*
X002345Y010657D02*
X000903Y010657D01*
X000903Y010559D02*
X002449Y010559D01*
X002453Y010460D02*
X000903Y010460D01*
X000903Y010362D02*
X002453Y010362D01*
X002453Y010263D02*
X000903Y010263D01*
X000903Y010165D02*
X002453Y010165D01*
X002453Y010066D02*
X000903Y010066D01*
X000903Y009968D02*
X002453Y009968D01*
X002453Y009869D02*
X000903Y009869D01*
X000903Y009771D02*
X002453Y009771D01*
X002453Y009672D02*
X000903Y009672D01*
X000903Y009574D02*
X002453Y009574D01*
X002453Y009475D02*
X000903Y009475D01*
X000903Y009377D02*
X002453Y009377D01*
X002453Y009278D02*
X000903Y009278D01*
X000903Y009180D02*
X002453Y009180D01*
X002453Y009081D02*
X000903Y009081D01*
X000903Y008983D02*
X002453Y008983D01*
X002453Y008884D02*
X000903Y008884D01*
X000903Y008786D02*
X002453Y008786D01*
X002453Y008687D02*
X000903Y008687D01*
X000903Y008589D02*
X002453Y008589D01*
X002453Y008490D02*
X000903Y008490D01*
X000903Y008392D02*
X002453Y008392D01*
X002453Y008293D02*
X000903Y008293D01*
X000903Y008195D02*
X002453Y008195D01*
X002453Y008096D02*
X000903Y008096D01*
X000903Y007998D02*
X002453Y007998D01*
X002453Y007899D02*
X000903Y007899D01*
X000903Y007801D02*
X002451Y007801D01*
X002424Y007702D02*
X000903Y007702D01*
X000903Y007604D02*
X002424Y007604D01*
X002453Y007505D02*
X000903Y007505D01*
X000903Y007407D02*
X002511Y007407D01*
X002647Y007308D02*
X000903Y007308D01*
X000903Y007210D02*
X002803Y007210D01*
X002794Y007111D02*
X000903Y007111D01*
X000903Y007013D02*
X002807Y007013D01*
X002848Y006914D02*
X000903Y006914D01*
X000903Y006816D02*
X002942Y006816D01*
X003383Y006816D02*
X008173Y006816D01*
X008173Y006914D02*
X003477Y006914D01*
X003518Y007013D02*
X008173Y007013D01*
X008173Y007111D02*
X003531Y007111D01*
X003522Y007210D02*
X008173Y007210D01*
X008173Y007308D02*
X003481Y007308D01*
X003393Y007407D02*
X008173Y007407D01*
X008173Y007505D02*
X003373Y007505D01*
X003373Y007604D02*
X008173Y007604D01*
X008173Y007646D02*
X008173Y006327D01*
X008150Y006305D01*
X008094Y006170D01*
X008094Y006023D01*
X008150Y005888D01*
X008254Y005784D01*
X008389Y005728D01*
X008536Y005728D01*
X008671Y005784D01*
X008775Y005888D01*
X008831Y006023D01*
X008831Y006170D01*
X008775Y006305D01*
X008753Y006327D01*
X008753Y007646D01*
X008775Y007668D01*
X008831Y007803D01*
X008831Y007950D01*
X008775Y008085D01*
X008671Y008188D01*
X008536Y008244D01*
X008389Y008244D01*
X008254Y008188D01*
X008150Y008085D01*
X008094Y007950D01*
X008094Y007803D01*
X008150Y007668D01*
X008173Y007646D01*
X008136Y007702D02*
X003373Y007702D01*
X003373Y007801D02*
X008095Y007801D01*
X008094Y007899D02*
X003357Y007899D01*
X003263Y007998D02*
X008114Y007998D01*
X008162Y008096D02*
X003174Y008096D01*
X003084Y008195D02*
X008270Y008195D01*
X008656Y008195D02*
X013833Y008195D01*
X013833Y008293D02*
X003073Y008293D01*
X003073Y008392D02*
X013833Y008392D01*
X013833Y008490D02*
X003073Y008490D01*
X003073Y008589D02*
X013833Y008589D01*
X013833Y008687D02*
X003073Y008687D01*
X003073Y008786D02*
X013833Y008786D01*
X013833Y008884D02*
X003073Y008884D01*
X003073Y008983D02*
X013833Y008983D01*
X013833Y009081D02*
X003073Y009081D01*
X003073Y009180D02*
X013833Y009180D01*
X013833Y009278D02*
X003073Y009278D01*
X003073Y009377D02*
X013833Y009377D01*
X013833Y009475D02*
X003073Y009475D01*
X003073Y009574D02*
X013833Y009574D01*
X013833Y009672D02*
X003073Y009672D01*
X003073Y009771D02*
X013916Y009771D01*
X013833Y009687D02*
X013833Y008079D01*
X013757Y008004D01*
X013704Y007876D01*
X013704Y007737D01*
X013757Y007609D01*
X013833Y007534D01*
X013833Y007255D01*
X013961Y007126D01*
X014151Y006936D01*
X015384Y006936D01*
X015405Y006958D01*
X015512Y006958D01*
X015640Y007011D01*
X015738Y007109D01*
X015791Y007237D01*
X015791Y007376D01*
X015738Y007504D01*
X015640Y007602D01*
X015512Y007655D01*
X015373Y007655D01*
X015245Y007602D01*
X015201Y007558D01*
X015201Y007576D01*
X015148Y007704D01*
X015050Y007802D01*
X014922Y007855D01*
X014815Y007855D01*
X014503Y008167D01*
X014503Y009425D01*
X015664Y010586D01*
X015793Y010715D01*
X015793Y012025D01*
X015913Y012145D01*
X015913Y012415D01*
X017254Y013756D01*
X018200Y013756D01*
X018275Y013681D01*
X018403Y013628D01*
X018542Y013628D01*
X018670Y013681D01*
X018768Y013779D01*
X018821Y013907D01*
X018821Y014046D01*
X018768Y014174D01*
X018693Y014249D01*
X018693Y015978D01*
X018756Y015978D01*
X018891Y016034D01*
X018995Y016138D01*
X019051Y016273D01*
X019051Y016420D01*
X019037Y016451D01*
X019141Y016494D01*
X019245Y016598D01*
X019301Y016733D01*
X019301Y016880D01*
X019283Y016922D01*
X019361Y016954D01*
X019465Y017058D01*
X019521Y017193D01*
X019521Y017340D01*
X019465Y017475D01*
X019373Y017567D01*
X019373Y017628D01*
X019466Y017628D01*
X019601Y017684D01*
X019705Y017788D01*
X019761Y017923D01*
X019761Y018070D01*
X019705Y018205D01*
X019601Y018308D01*
X019512Y018345D01*
X019663Y018495D01*
X019663Y018966D01*
X019755Y019058D01*
X019811Y019193D01*
X019811Y019340D01*
X019755Y019475D01*
X019651Y019578D01*
X019516Y019634D01*
X019369Y019634D01*
X019283Y019599D01*
X019283Y020385D01*
X019284Y020475D01*
X019283Y020476D01*
X019283Y020477D01*
X019219Y020541D01*
X019001Y020764D01*
X019001Y020900D01*
X018945Y021035D01*
X018841Y021138D01*
X018706Y021194D01*
X018559Y021194D01*
X018424Y021138D01*
X018320Y021035D01*
X018264Y020900D01*
X018264Y020753D01*
X018320Y020618D01*
X018424Y020514D01*
X018559Y020458D01*
X018685Y020458D01*
X018843Y020297D01*
X018843Y018617D01*
X018461Y018236D01*
X018333Y018107D01*
X018333Y016463D01*
X018314Y016420D01*
X018314Y016289D01*
X018253Y016227D01*
X018253Y014249D01*
X018200Y014196D01*
X017994Y014196D01*
X018103Y014305D01*
X018103Y014674D01*
X018178Y014749D01*
X018231Y014877D01*
X018231Y015016D01*
X018178Y015144D01*
X018080Y015242D01*
X017952Y015295D01*
X017813Y015295D01*
X017685Y015242D01*
X017587Y015144D01*
X017534Y015016D01*
X017534Y014877D01*
X017587Y014749D01*
X017663Y014674D01*
X017663Y014487D01*
X017591Y014416D01*
X016981Y014416D01*
X015300Y012735D01*
X015243Y012735D01*
X015115Y012682D01*
X015017Y012584D01*
X014964Y012456D01*
X014964Y012317D01*
X015017Y012189D01*
X015093Y012114D01*
X015093Y010947D01*
X013833Y009687D01*
X014053Y009596D02*
X015313Y010856D01*
X015313Y012386D01*
X015313Y012436D01*
X017073Y014196D01*
X017683Y014196D01*
X017883Y014396D01*
X017883Y014946D01*
X018125Y014696D02*
X018253Y014696D01*
X018253Y014794D02*
X018197Y014794D01*
X018231Y014893D02*
X018253Y014893D01*
X018253Y014991D02*
X018231Y014991D01*
X018253Y015090D02*
X018200Y015090D01*
X018253Y015188D02*
X018133Y015188D01*
X018253Y015287D02*
X017971Y015287D01*
X017794Y015287D02*
X017133Y015287D01*
X017133Y015385D02*
X018253Y015385D01*
X018253Y015484D02*
X017133Y015484D01*
X017133Y015582D02*
X018253Y015582D01*
X018253Y015681D02*
X017133Y015681D01*
X017133Y015779D02*
X018253Y015779D01*
X018253Y015878D02*
X017133Y015878D01*
X017133Y015976D02*
X018253Y015976D01*
X018253Y016075D02*
X017158Y016075D01*
X017155Y016068D02*
X017211Y016203D01*
X017211Y016350D01*
X017155Y016485D01*
X017133Y016507D01*
X017133Y017396D01*
X017155Y017418D01*
X017211Y017553D01*
X017211Y017700D01*
X017155Y017835D01*
X017133Y017857D01*
X017133Y018756D01*
X017155Y018778D01*
X017211Y018913D01*
X017211Y019060D01*
X017155Y019195D01*
X017051Y019298D01*
X016916Y019354D01*
X016769Y019354D01*
X016634Y019298D01*
X016530Y019195D01*
X016474Y019060D01*
X016474Y018913D01*
X016530Y018778D01*
X016553Y018756D01*
X016553Y017857D01*
X016530Y017835D01*
X016474Y017700D01*
X016474Y017553D01*
X016530Y017418D01*
X016553Y017396D01*
X016553Y016507D01*
X016530Y016485D01*
X016474Y016350D01*
X016474Y016203D01*
X016530Y016068D01*
X016553Y016046D01*
X016553Y015037D01*
X016530Y015015D01*
X016474Y014880D01*
X016474Y014733D01*
X016530Y014598D01*
X016634Y014494D01*
X016769Y014438D01*
X016916Y014438D01*
X017051Y014494D01*
X017155Y014598D01*
X017211Y014733D01*
X017211Y014880D01*
X017155Y015015D01*
X017133Y015037D01*
X017133Y016046D01*
X017155Y016068D01*
X017198Y016173D02*
X018253Y016173D01*
X018297Y016272D02*
X017211Y016272D01*
X017202Y016370D02*
X018314Y016370D01*
X018333Y016469D02*
X017161Y016469D01*
X017133Y016567D02*
X018333Y016567D01*
X018333Y016666D02*
X017133Y016666D01*
X017133Y016764D02*
X018333Y016764D01*
X018333Y016863D02*
X017133Y016863D01*
X017133Y016961D02*
X018333Y016961D01*
X018333Y017060D02*
X017133Y017060D01*
X017133Y017158D02*
X018333Y017158D01*
X018333Y017257D02*
X017133Y017257D01*
X017133Y017355D02*
X018333Y017355D01*
X018333Y017454D02*
X017170Y017454D01*
X017210Y017552D02*
X018333Y017552D01*
X018333Y017651D02*
X017211Y017651D01*
X017190Y017749D02*
X018333Y017749D01*
X018333Y017848D02*
X017142Y017848D01*
X017133Y017946D02*
X018333Y017946D01*
X018333Y018045D02*
X017133Y018045D01*
X017133Y018143D02*
X018368Y018143D01*
X018467Y018242D02*
X017133Y018242D01*
X017133Y018340D02*
X018565Y018340D01*
X018664Y018439D02*
X017133Y018439D01*
X017133Y018537D02*
X018762Y018537D01*
X018843Y018636D02*
X017133Y018636D01*
X017133Y018734D02*
X018843Y018734D01*
X018843Y018833D02*
X017177Y018833D01*
X017211Y018931D02*
X018843Y018931D01*
X018843Y019030D02*
X017211Y019030D01*
X017182Y019128D02*
X018843Y019128D01*
X018843Y019227D02*
X017123Y019227D01*
X016986Y019325D02*
X018843Y019325D01*
X018843Y019424D02*
X015183Y019424D01*
X015183Y019522D02*
X018843Y019522D01*
X018843Y019621D02*
X015183Y019621D01*
X015183Y019719D02*
X018843Y019719D01*
X018843Y019818D02*
X015183Y019818D01*
X015183Y019916D02*
X018843Y019916D01*
X018843Y020015D02*
X015183Y020015D01*
X015183Y020113D02*
X018843Y020113D01*
X018843Y020212D02*
X015183Y020212D01*
X015183Y020310D02*
X018829Y020310D01*
X018733Y020409D02*
X015183Y020409D01*
X015183Y020507D02*
X018441Y020507D01*
X018332Y020606D02*
X015183Y020606D01*
X015183Y020704D02*
X018285Y020704D01*
X018264Y020803D02*
X015183Y020803D01*
X015183Y020901D02*
X018265Y020901D01*
X018306Y021000D02*
X015183Y021000D01*
X015183Y021098D02*
X018384Y021098D01*
X018633Y020826D02*
X019063Y020386D01*
X019063Y018526D01*
X018553Y018016D01*
X018553Y016476D01*
X018683Y016346D01*
X018473Y016136D01*
X018473Y013976D01*
X017163Y013976D01*
X015693Y012506D01*
X015693Y012236D01*
X015573Y012116D01*
X015573Y010806D01*
X014283Y009516D01*
X014283Y008076D01*
X014853Y007506D01*
X015189Y007604D02*
X015250Y007604D01*
X015148Y007702D02*
X017103Y007702D01*
X017103Y007604D02*
X015635Y007604D01*
X015736Y007505D02*
X017103Y007505D01*
X017103Y007407D02*
X015778Y007407D01*
X015791Y007308D02*
X017103Y007308D01*
X017103Y007210D02*
X015780Y007210D01*
X015739Y007111D02*
X017103Y007111D01*
X017103Y007013D02*
X015642Y007013D01*
X015443Y007306D02*
X015293Y007156D01*
X014243Y007156D01*
X014053Y007346D01*
X014053Y007806D01*
X014053Y009596D01*
X014014Y009869D02*
X003073Y009869D01*
X003073Y009968D02*
X014113Y009968D01*
X014211Y010066D02*
X003073Y010066D01*
X003073Y010165D02*
X014310Y010165D01*
X014408Y010263D02*
X003073Y010263D01*
X003073Y010362D02*
X014507Y010362D01*
X014605Y010460D02*
X003073Y010460D01*
X003073Y010559D02*
X014704Y010559D01*
X014802Y010657D02*
X003074Y010657D01*
X003073Y010756D02*
X014901Y010756D01*
X014999Y010854D02*
X003043Y010854D01*
X002940Y010953D02*
X015093Y010953D01*
X015093Y011051D02*
X002837Y011051D01*
X002734Y011150D02*
X015093Y011150D01*
X015093Y011248D02*
X002631Y011248D01*
X002527Y011347D02*
X015093Y011347D01*
X015093Y011445D02*
X002424Y011445D01*
X002322Y011544D02*
X015093Y011544D01*
X015093Y011642D02*
X007548Y011642D01*
X007533Y011627D02*
X007672Y011766D01*
X007747Y011948D01*
X007747Y012131D01*
X007873Y012256D01*
X010052Y012256D01*
X010074Y012234D01*
X010209Y012178D01*
X010356Y012178D01*
X010491Y012234D01*
X010595Y012338D01*
X010651Y012473D01*
X010651Y012620D01*
X010595Y012755D01*
X010491Y012858D01*
X010356Y012914D01*
X010209Y012914D01*
X010074Y012858D01*
X010052Y012836D01*
X007695Y012836D01*
X007588Y012792D01*
X007337Y012541D01*
X007154Y012541D01*
X006972Y012466D01*
X006923Y012416D01*
X006202Y012416D01*
X006153Y012466D01*
X005971Y012541D01*
X005774Y012541D01*
X005592Y012466D01*
X005453Y012327D01*
X005378Y012145D01*
X005378Y011948D01*
X005453Y011766D01*
X005592Y011627D01*
X005774Y011552D01*
X005971Y011552D01*
X006153Y011627D01*
X006202Y011676D01*
X006923Y011676D01*
X006972Y011627D01*
X007154Y011552D01*
X007351Y011552D01*
X007533Y011627D01*
X007647Y011741D02*
X015093Y011741D01*
X015093Y011839D02*
X007702Y011839D01*
X007743Y011938D02*
X015093Y011938D01*
X015093Y012036D02*
X007747Y012036D01*
X007751Y012135D02*
X015071Y012135D01*
X014999Y012233D02*
X010489Y012233D01*
X010589Y012332D02*
X014964Y012332D01*
X014964Y012430D02*
X010633Y012430D01*
X010651Y012529D02*
X014994Y012529D01*
X015061Y012627D02*
X010647Y012627D01*
X010607Y012726D02*
X015222Y012726D01*
X015389Y012824D02*
X010525Y012824D01*
X010076Y012233D02*
X007850Y012233D01*
X008183Y011796D02*
X008213Y011766D01*
X007423Y012627D02*
X001563Y012627D01*
X001563Y012529D02*
X005744Y012529D01*
X005557Y012430D02*
X001563Y012430D01*
X001563Y012332D02*
X005458Y012332D01*
X005414Y012233D02*
X001563Y012233D01*
X001563Y012135D02*
X005378Y012135D01*
X005378Y012036D02*
X001563Y012036D01*
X001563Y011938D02*
X005382Y011938D01*
X005423Y011839D02*
X001563Y011839D01*
X001563Y011741D02*
X005478Y011741D01*
X005577Y011642D02*
X001574Y011642D01*
X001563Y012726D02*
X007522Y012726D01*
X007666Y012824D02*
X001563Y012824D01*
X001563Y012923D02*
X015488Y012923D01*
X015586Y013021D02*
X001563Y013021D01*
X001563Y013120D02*
X015685Y013120D01*
X015783Y013218D02*
X001572Y013218D01*
X001670Y013317D02*
X015882Y013317D01*
X015980Y013415D02*
X002702Y013415D01*
X002780Y013514D02*
X016079Y013514D01*
X016177Y013612D02*
X002820Y013612D01*
X002821Y013711D02*
X003705Y013711D01*
X003735Y013681D02*
X003863Y013628D01*
X004002Y013628D01*
X004130Y013681D01*
X004195Y013746D01*
X005058Y013746D01*
X005998Y014686D01*
X006158Y014686D01*
X006428Y014956D01*
X006563Y015091D01*
X006563Y015374D01*
X006628Y015439D01*
X006681Y015567D01*
X006681Y015706D01*
X006628Y015834D01*
X006530Y015932D01*
X006402Y015985D01*
X006263Y015985D01*
X006135Y015932D01*
X006037Y015834D01*
X005984Y015706D01*
X005984Y015634D01*
X005982Y015635D01*
X005843Y015635D01*
X005715Y015582D01*
X005617Y015484D01*
X005564Y015356D01*
X005564Y015263D01*
X005207Y014906D01*
X004205Y014906D01*
X004140Y014972D01*
X004012Y015025D01*
X003873Y015025D01*
X003745Y014972D01*
X003647Y014874D01*
X003594Y014746D01*
X003594Y014607D01*
X003647Y014479D01*
X003745Y014381D01*
X003873Y014328D01*
X004012Y014328D01*
X004140Y014381D01*
X004205Y014446D01*
X005107Y014446D01*
X004867Y014206D01*
X004195Y014206D01*
X004130Y014272D01*
X004002Y014325D01*
X003863Y014325D01*
X003735Y014272D01*
X003637Y014174D01*
X003584Y014046D01*
X003584Y013907D01*
X003637Y013779D01*
X003735Y013681D01*
X003625Y013809D02*
X002800Y013809D01*
X002752Y013908D02*
X003584Y013908D01*
X003584Y014006D02*
X002642Y014006D01*
X002263Y014006D02*
X001363Y014006D01*
X001363Y013908D02*
X002153Y013908D01*
X002203Y013415D02*
X001769Y013415D01*
X001470Y013711D02*
X001363Y013711D01*
X001363Y013809D02*
X001569Y013809D01*
X001372Y013612D02*
X001363Y013612D01*
X001363Y014105D02*
X003609Y014105D01*
X003667Y014203D02*
X001363Y014203D01*
X001363Y014302D02*
X003808Y014302D01*
X003726Y014400D02*
X001363Y014400D01*
X001363Y014499D02*
X003639Y014499D01*
X003598Y014597D02*
X001363Y014597D01*
X001363Y014696D02*
X003594Y014696D01*
X003614Y014794D02*
X001363Y014794D01*
X001363Y014893D02*
X003666Y014893D01*
X003793Y014991D02*
X001363Y014991D01*
X001363Y015090D02*
X005391Y015090D01*
X005489Y015188D02*
X001363Y015188D01*
X001363Y015287D02*
X005564Y015287D01*
X005576Y015385D02*
X001363Y015385D01*
X001363Y015484D02*
X005617Y015484D01*
X005717Y015582D02*
X001363Y015582D01*
X001363Y015681D02*
X005984Y015681D01*
X006015Y015779D02*
X001363Y015779D01*
X001363Y015878D02*
X006081Y015878D01*
X006243Y015976D02*
X001363Y015976D01*
X001363Y016075D02*
X007863Y016075D01*
X007961Y015976D02*
X006422Y015976D01*
X006584Y015878D02*
X008060Y015878D01*
X008193Y016056D02*
X008373Y016056D01*
X008663Y015766D01*
X008663Y014836D01*
X009073Y014426D01*
X009743Y014426D01*
X010089Y014302D02*
X016867Y014302D01*
X016965Y014400D02*
X010111Y014400D01*
X010111Y014499D02*
X014745Y014499D01*
X014611Y014597D02*
X010070Y014597D01*
X010040Y014203D02*
X016768Y014203D01*
X016670Y014105D02*
X009928Y014105D01*
X009557Y014105D02*
X005416Y014105D01*
X005318Y014006D02*
X016571Y014006D01*
X016473Y013908D02*
X005219Y013908D01*
X005121Y013809D02*
X016374Y013809D01*
X016276Y013711D02*
X004160Y013711D01*
X004057Y014302D02*
X004963Y014302D01*
X005061Y014400D02*
X004159Y014400D01*
X004092Y014991D02*
X005292Y014991D01*
X005810Y014499D02*
X008689Y014499D01*
X008787Y014400D02*
X005712Y014400D01*
X005613Y014302D02*
X008886Y014302D01*
X008590Y014597D02*
X005909Y014597D01*
X006167Y014696D02*
X008492Y014696D01*
X008443Y014794D02*
X006266Y014794D01*
X006364Y014893D02*
X008443Y014893D01*
X008443Y014991D02*
X006463Y014991D01*
X006561Y015090D02*
X008443Y015090D01*
X008443Y015188D02*
X006563Y015188D01*
X006563Y015287D02*
X008443Y015287D01*
X008443Y015385D02*
X006574Y015385D01*
X006647Y015484D02*
X008443Y015484D01*
X008443Y015582D02*
X006681Y015582D01*
X006681Y015681D02*
X008437Y015681D01*
X008338Y015779D02*
X006650Y015779D01*
X007469Y016469D02*
X002612Y016469D01*
X002711Y016567D02*
X007443Y016567D01*
X007443Y016666D02*
X002809Y016666D01*
X002908Y016764D02*
X007443Y016764D01*
X007443Y016863D02*
X002923Y016863D01*
X002923Y016961D02*
X007443Y016961D01*
X007443Y017060D02*
X002923Y017060D01*
X002923Y017158D02*
X007443Y017158D01*
X007381Y017257D02*
X006469Y017257D01*
X006592Y017355D02*
X007282Y017355D01*
X007363Y017586D02*
X007663Y017286D01*
X007663Y016586D01*
X008193Y016056D01*
X007764Y016173D02*
X001363Y016173D01*
X001363Y016272D02*
X007666Y016272D01*
X007567Y016370D02*
X001363Y016370D01*
X001363Y016469D02*
X001498Y016469D01*
X001400Y016567D02*
X001363Y016567D01*
X001698Y016863D02*
X001757Y016863D01*
X001735Y016826D02*
X001628Y016933D01*
X001628Y017308D01*
X001349Y017586D01*
X000956Y017586D01*
X000903Y017533D01*
X000903Y017689D01*
X000956Y017636D01*
X001331Y017636D01*
X001561Y017406D01*
X001735Y017406D01*
X001804Y017406D01*
X001697Y017300D01*
X001697Y017155D01*
X002109Y017155D01*
X002109Y017068D01*
X001697Y017068D01*
X001697Y016923D01*
X001794Y016826D01*
X001735Y016826D01*
X001697Y016961D02*
X001628Y016961D01*
X001628Y017060D02*
X001697Y017060D01*
X001697Y017158D02*
X001628Y017158D01*
X001628Y017257D02*
X001697Y017257D01*
X001753Y017355D02*
X001580Y017355D01*
X001513Y017454D02*
X001482Y017454D01*
X001415Y017552D02*
X001383Y017552D01*
X000941Y017651D02*
X000903Y017651D01*
X000903Y017552D02*
X000922Y017552D01*
X002512Y019424D02*
X004037Y019424D01*
X004428Y019424D02*
X014603Y019424D01*
X014603Y019522D02*
X002413Y019522D01*
X002403Y019621D02*
X014603Y019621D01*
X014603Y019719D02*
X002403Y019719D01*
X002403Y019818D02*
X014603Y019818D01*
X014603Y019916D02*
X002403Y019916D01*
X002403Y020015D02*
X014603Y020015D01*
X014603Y020113D02*
X002403Y020113D01*
X002403Y020212D02*
X014603Y020212D01*
X014603Y020310D02*
X002403Y020310D01*
X002403Y020409D02*
X010107Y020409D01*
X010498Y020409D02*
X014603Y020409D01*
X014603Y020507D02*
X010604Y020507D01*
X010651Y020606D02*
X014603Y020606D01*
X014603Y020704D02*
X010671Y020704D01*
X010669Y020803D02*
X014603Y020803D01*
X014603Y020901D02*
X010628Y020901D01*
X010553Y021000D02*
X014603Y021000D01*
X014603Y021098D02*
X010553Y021098D01*
X010553Y021197D02*
X014603Y021197D01*
X014593Y021295D02*
X010553Y021295D01*
X010553Y021394D02*
X014545Y021394D01*
X014524Y021492D02*
X010553Y021492D01*
X010553Y021591D02*
X014525Y021591D01*
X014566Y021689D02*
X010553Y021689D01*
X010553Y021788D02*
X014644Y021788D01*
X014852Y021886D02*
X010553Y021886D01*
X010614Y021985D02*
X014951Y021985D01*
X015049Y022083D02*
X010711Y022083D01*
X010809Y022182D02*
X015148Y022182D01*
X015246Y022280D02*
X010907Y022280D01*
X011005Y022379D02*
X015345Y022379D01*
X015443Y022477D02*
X011103Y022477D01*
X011200Y022576D02*
X015542Y022576D01*
X015400Y022871D02*
X016185Y022871D01*
X016400Y022871D02*
X017185Y022871D01*
X017400Y022871D02*
X018185Y022871D01*
X018400Y022871D02*
X019185Y022871D01*
X019400Y022871D02*
X020448Y022871D01*
X020349Y022773D02*
X020011Y022773D01*
X020028Y022674D02*
X020251Y022674D01*
X020233Y022576D02*
X020028Y022576D01*
X020028Y022477D02*
X020233Y022477D01*
X020233Y022379D02*
X020028Y022379D01*
X020072Y022280D02*
X020233Y022280D01*
X020266Y021689D02*
X015476Y021689D01*
X015377Y021591D02*
X020233Y021591D01*
X020233Y021492D02*
X015279Y021492D01*
X015240Y021394D02*
X020233Y021394D01*
X020233Y021295D02*
X015192Y021295D01*
X015183Y021197D02*
X020302Y021197D01*
X020401Y021098D02*
X018881Y021098D01*
X018959Y021000D02*
X020499Y021000D01*
X020508Y020931D02*
X020233Y020656D01*
X020233Y020267D01*
X020508Y019991D01*
X020897Y019991D01*
X021173Y020267D01*
X021173Y020656D01*
X020897Y020931D01*
X020508Y020931D01*
X020478Y020901D02*
X019000Y020901D01*
X019001Y020803D02*
X020379Y020803D01*
X020281Y020704D02*
X019059Y020704D01*
X019156Y020606D02*
X020233Y020606D01*
X020233Y020507D02*
X019253Y020507D01*
X019283Y020409D02*
X020233Y020409D01*
X020233Y020310D02*
X019283Y020310D01*
X019283Y020212D02*
X020287Y020212D01*
X020386Y020113D02*
X019283Y020113D01*
X019283Y020015D02*
X020484Y020015D01*
X020516Y019911D02*
X020253Y019648D01*
X020253Y019511D01*
X020653Y019511D01*
X020653Y019411D01*
X020753Y019411D01*
X020753Y019511D01*
X021153Y019511D01*
X021153Y019648D01*
X020889Y019911D01*
X020753Y019911D01*
X020753Y019511D01*
X020653Y019511D01*
X020653Y019911D01*
X020516Y019911D01*
X020423Y019818D02*
X019283Y019818D01*
X019283Y019916D02*
X021493Y019916D01*
X021484Y020015D02*
X020921Y020015D01*
X021019Y020113D02*
X021386Y020113D01*
X021287Y020212D02*
X021118Y020212D01*
X021173Y020310D02*
X021233Y020310D01*
X021233Y020409D02*
X021173Y020409D01*
X021173Y020507D02*
X021233Y020507D01*
X021233Y020606D02*
X021173Y020606D01*
X021124Y020704D02*
X021281Y020704D01*
X021379Y020803D02*
X021026Y020803D01*
X020927Y020901D02*
X021478Y020901D01*
X021499Y021000D02*
X020906Y021000D01*
X021004Y021098D02*
X021401Y021098D01*
X021302Y021197D02*
X021103Y021197D01*
X021173Y021295D02*
X021233Y021295D01*
X021233Y021394D02*
X021173Y021394D01*
X021173Y021492D02*
X021233Y021492D01*
X021233Y021591D02*
X021173Y021591D01*
X021139Y021689D02*
X021266Y021689D01*
X021233Y022379D02*
X021173Y022379D01*
X021173Y022477D02*
X021233Y022477D01*
X021233Y022576D02*
X021173Y022576D01*
X021154Y022674D02*
X021251Y022674D01*
X021349Y022773D02*
X021056Y022773D01*
X020957Y022871D02*
X021448Y022871D01*
X021453Y022970D02*
X019615Y022970D01*
X019713Y023068D02*
X020431Y023068D01*
X020332Y023167D02*
X019776Y023167D01*
X019817Y023265D02*
X020234Y023265D01*
X020233Y023364D02*
X019833Y023364D01*
X019833Y023462D02*
X020233Y023462D01*
X020233Y023561D02*
X019815Y023561D01*
X019774Y023659D02*
X020236Y023659D01*
X021169Y023659D02*
X021236Y023659D01*
X021233Y023561D02*
X021173Y023561D01*
X021173Y023462D02*
X021233Y023462D01*
X021233Y023364D02*
X021173Y023364D01*
X021171Y023265D02*
X021234Y023265D01*
X021332Y023167D02*
X021073Y023167D01*
X020974Y023068D02*
X021431Y023068D01*
X019857Y021788D02*
X015574Y021788D01*
X015673Y021886D02*
X018727Y021886D01*
X018629Y021985D02*
X015771Y021985D01*
X015185Y022871D02*
X014400Y022871D01*
X014185Y022871D02*
X012725Y022871D01*
X012703Y022871D02*
X012603Y022871D01*
X012580Y022871D02*
X011820Y022871D01*
X012000Y022970D02*
X012341Y022970D01*
X012241Y023068D02*
X012098Y023068D01*
X012146Y023167D02*
X012181Y023167D01*
X012603Y023167D02*
X012703Y023167D01*
X012703Y023265D02*
X012603Y023265D01*
X012703Y023336D02*
X012703Y022868D01*
X012774Y022879D01*
X012852Y022904D01*
X012925Y022942D01*
X012991Y022990D01*
X013049Y023048D01*
X013097Y023114D01*
X013134Y023187D01*
X013160Y023265D01*
X013124Y023167D02*
X013809Y023167D01*
X013872Y023068D02*
X013064Y023068D01*
X012964Y022970D02*
X013970Y022970D01*
X013753Y023462D02*
X013167Y023462D01*
X013143Y023561D02*
X013770Y023561D01*
X013811Y023659D02*
X013097Y023659D01*
X012703Y023068D02*
X012603Y023068D01*
X012603Y022970D02*
X012703Y022970D01*
X011396Y022773D02*
X018644Y022773D01*
X018628Y022674D02*
X011298Y022674D01*
X010985Y023068D02*
X009402Y023068D01*
X009402Y022970D02*
X010887Y022970D01*
X010789Y022871D02*
X009402Y022871D01*
X009376Y022773D02*
X010691Y022773D01*
X010594Y022674D02*
X009335Y022674D01*
X009294Y022576D02*
X010496Y022576D01*
X010398Y022477D02*
X009253Y022477D01*
X009159Y022379D02*
X010300Y022379D01*
X010202Y022280D02*
X009061Y022280D01*
X008953Y022182D02*
X010105Y022182D01*
X010056Y022083D02*
X008715Y022083D01*
X008090Y022083D02*
X006941Y022083D01*
X007039Y021985D02*
X010053Y021985D01*
X010053Y021886D02*
X007138Y021886D01*
X007236Y021788D02*
X010053Y021788D01*
X010053Y021689D02*
X007335Y021689D01*
X007433Y021591D02*
X010053Y021591D01*
X010053Y021492D02*
X007532Y021492D01*
X007630Y021394D02*
X010053Y021394D01*
X010053Y021295D02*
X007729Y021295D01*
X007827Y021197D02*
X010053Y021197D01*
X010053Y021098D02*
X007926Y021098D01*
X007499Y020704D02*
X002403Y020704D01*
X002403Y020606D02*
X007598Y020606D01*
X007696Y020507D02*
X002403Y020507D01*
X002365Y020803D02*
X007401Y020803D01*
X007302Y020901D02*
X002266Y020901D01*
X002356Y021000D02*
X002949Y021000D01*
X002958Y020991D02*
X003347Y020991D01*
X003623Y021267D01*
X003623Y021656D01*
X003347Y021931D01*
X002958Y021931D01*
X002683Y021656D01*
X002683Y021267D01*
X002958Y020991D01*
X002851Y021098D02*
X002454Y021098D01*
X002553Y021197D02*
X002752Y021197D01*
X002683Y021295D02*
X002623Y021295D01*
X002623Y021394D02*
X002683Y021394D01*
X002683Y021492D02*
X002623Y021492D01*
X002623Y021591D02*
X002683Y021591D01*
X002716Y021689D02*
X002589Y021689D01*
X002491Y021788D02*
X002814Y021788D01*
X002913Y021886D02*
X002392Y021886D01*
X002439Y022083D02*
X002866Y022083D01*
X002958Y021991D02*
X002683Y022267D01*
X002683Y022656D01*
X002958Y022931D01*
X003347Y022931D01*
X003623Y022656D01*
X003623Y022267D01*
X003347Y021991D01*
X002958Y021991D01*
X002767Y022182D02*
X002538Y022182D01*
X002623Y022280D02*
X002683Y022280D01*
X002683Y022379D02*
X002623Y022379D01*
X002623Y022477D02*
X002683Y022477D01*
X002683Y022576D02*
X002623Y022576D01*
X002604Y022674D02*
X002701Y022674D01*
X002799Y022773D02*
X002506Y022773D01*
X002407Y022871D02*
X002898Y022871D01*
X002909Y023068D02*
X002396Y023068D01*
X002494Y023167D02*
X002811Y023167D01*
X002712Y023265D02*
X002593Y023265D01*
X002603Y023364D02*
X002703Y023364D01*
X002703Y023561D02*
X002603Y023561D01*
X002591Y023659D02*
X002714Y023659D01*
X003103Y023462D02*
X002203Y023462D01*
X002203Y023364D02*
X002103Y023364D01*
X002103Y023462D02*
X001203Y023462D01*
X001203Y023364D02*
X001103Y023364D01*
X001103Y023265D02*
X001203Y023265D01*
X001203Y023167D02*
X001103Y023167D01*
X001103Y023068D02*
X001203Y023068D01*
X001396Y023068D02*
X001909Y023068D01*
X001811Y023167D02*
X001494Y023167D01*
X001593Y023265D02*
X001712Y023265D01*
X001703Y023364D02*
X001603Y023364D01*
X001603Y023561D02*
X001703Y023561D01*
X001714Y023659D02*
X001591Y023659D01*
X002103Y023265D02*
X002203Y023265D01*
X002203Y023167D02*
X002103Y023167D01*
X002103Y023068D02*
X002203Y023068D01*
X001898Y022871D02*
X001407Y022871D01*
X001506Y022773D02*
X001799Y022773D01*
X001701Y022674D02*
X001604Y022674D01*
X001623Y022576D02*
X001683Y022576D01*
X001683Y022477D02*
X001623Y022477D01*
X001623Y022379D02*
X001683Y022379D01*
X002030Y021985D02*
X006219Y021985D01*
X005913Y021886D02*
X005392Y021886D01*
X005347Y021931D02*
X004958Y021931D01*
X004683Y021656D01*
X004683Y021267D01*
X004958Y020991D01*
X005347Y020991D01*
X005623Y021267D01*
X005623Y021656D01*
X005347Y021931D01*
X005347Y021991D02*
X005623Y022267D01*
X005623Y022656D01*
X005347Y022931D01*
X004958Y022931D01*
X004683Y022656D01*
X004683Y022267D01*
X004958Y021991D01*
X005347Y021991D01*
X005439Y022083D02*
X005866Y022083D01*
X005767Y022182D02*
X005538Y022182D01*
X005623Y022280D02*
X005683Y022280D01*
X005683Y022379D02*
X005623Y022379D01*
X005623Y022477D02*
X005683Y022477D01*
X005683Y022576D02*
X005623Y022576D01*
X005604Y022674D02*
X005701Y022674D01*
X005799Y022773D02*
X005506Y022773D01*
X005407Y022871D02*
X005898Y022871D01*
X005909Y023068D02*
X005396Y023068D01*
X005494Y023167D02*
X005811Y023167D01*
X005712Y023265D02*
X005593Y023265D01*
X005603Y023364D02*
X005703Y023364D01*
X005703Y023561D02*
X005603Y023561D01*
X005591Y023659D02*
X005714Y023659D01*
X006103Y023462D02*
X005203Y023462D01*
X005203Y023364D02*
X005103Y023364D01*
X005103Y023462D02*
X004203Y023462D01*
X004203Y023364D02*
X004103Y023364D01*
X004103Y023462D02*
X003203Y023462D01*
X003203Y023364D02*
X003103Y023364D01*
X003103Y023265D02*
X003203Y023265D01*
X003203Y023167D02*
X003103Y023167D01*
X003103Y023068D02*
X003203Y023068D01*
X003396Y023068D02*
X003909Y023068D01*
X003811Y023167D02*
X003494Y023167D01*
X003593Y023265D02*
X003712Y023265D01*
X003703Y023364D02*
X003603Y023364D01*
X003603Y023561D02*
X003703Y023561D01*
X003714Y023659D02*
X003591Y023659D01*
X004103Y023265D02*
X004203Y023265D01*
X004203Y023167D02*
X004103Y023167D01*
X004103Y023068D02*
X004203Y023068D01*
X004396Y023068D02*
X004909Y023068D01*
X004811Y023167D02*
X004494Y023167D01*
X004593Y023265D02*
X004712Y023265D01*
X004703Y023364D02*
X004603Y023364D01*
X004603Y023561D02*
X004703Y023561D01*
X004714Y023659D02*
X004591Y023659D01*
X005103Y023265D02*
X005203Y023265D01*
X005203Y023167D02*
X005103Y023167D01*
X005103Y023068D02*
X005203Y023068D01*
X004898Y022871D02*
X004407Y022871D01*
X004347Y022931D02*
X003958Y022931D01*
X003683Y022656D01*
X003683Y022267D01*
X003958Y021991D01*
X004347Y021991D01*
X004623Y022267D01*
X004623Y022656D01*
X004347Y022931D01*
X004506Y022773D02*
X004799Y022773D01*
X004701Y022674D02*
X004604Y022674D01*
X004623Y022576D02*
X004683Y022576D01*
X004683Y022477D02*
X004623Y022477D01*
X004623Y022379D02*
X004683Y022379D01*
X004683Y022280D02*
X004623Y022280D01*
X004538Y022182D02*
X004767Y022182D01*
X004866Y022083D02*
X004439Y022083D01*
X004347Y021931D02*
X003958Y021931D01*
X003683Y021656D01*
X003683Y021267D01*
X003958Y020991D01*
X004347Y020991D01*
X004623Y021267D01*
X004623Y021656D01*
X004347Y021931D01*
X004392Y021886D02*
X004913Y021886D01*
X004814Y021788D02*
X004491Y021788D01*
X004589Y021689D02*
X004716Y021689D01*
X004683Y021591D02*
X004623Y021591D01*
X004623Y021492D02*
X004683Y021492D01*
X004683Y021394D02*
X004623Y021394D01*
X004623Y021295D02*
X004683Y021295D01*
X004752Y021197D02*
X004553Y021197D01*
X004454Y021098D02*
X004851Y021098D01*
X004949Y021000D02*
X004356Y021000D01*
X003949Y021000D02*
X003356Y021000D01*
X003454Y021098D02*
X003851Y021098D01*
X003752Y021197D02*
X003553Y021197D01*
X003623Y021295D02*
X003683Y021295D01*
X003683Y021394D02*
X003623Y021394D01*
X003623Y021492D02*
X003683Y021492D01*
X003683Y021591D02*
X003623Y021591D01*
X003589Y021689D02*
X003716Y021689D01*
X003814Y021788D02*
X003491Y021788D01*
X003392Y021886D02*
X003913Y021886D01*
X003866Y022083D02*
X003439Y022083D01*
X003538Y022182D02*
X003767Y022182D01*
X003683Y022280D02*
X003623Y022280D01*
X003623Y022379D02*
X003683Y022379D01*
X003683Y022477D02*
X003623Y022477D01*
X003623Y022576D02*
X003683Y022576D01*
X003701Y022674D02*
X003604Y022674D01*
X003506Y022773D02*
X003799Y022773D01*
X003898Y022871D02*
X003407Y022871D01*
X005356Y021000D02*
X005949Y021000D01*
X005851Y021098D02*
X005454Y021098D01*
X005553Y021197D02*
X005752Y021197D01*
X005683Y021295D02*
X005623Y021295D01*
X005623Y021394D02*
X005683Y021394D01*
X005683Y021492D02*
X005623Y021492D01*
X005623Y021591D02*
X005683Y021591D01*
X005716Y021689D02*
X005589Y021689D01*
X005491Y021788D02*
X005814Y021788D01*
X006454Y021098D02*
X007105Y021098D01*
X007204Y021000D02*
X006356Y021000D01*
X006553Y021197D02*
X007007Y021197D01*
X006908Y021295D02*
X006623Y021295D01*
X006623Y021394D02*
X006810Y021394D01*
X006711Y021492D02*
X006623Y021492D01*
X006842Y022182D02*
X007852Y022182D01*
X007744Y022280D02*
X006744Y022280D01*
X006645Y022379D02*
X007646Y022379D01*
X007552Y022477D02*
X006623Y022477D01*
X006623Y022576D02*
X007511Y022576D01*
X007470Y022674D02*
X006604Y022674D01*
X006506Y022773D02*
X007429Y022773D01*
X007403Y022871D02*
X006407Y022871D01*
X006396Y023068D02*
X007403Y023068D01*
X007403Y022970D02*
X000903Y022970D01*
X000903Y023068D02*
X000909Y023068D01*
X003423Y017749D02*
X005972Y017749D01*
X005934Y017651D02*
X003324Y017651D01*
X003226Y017552D02*
X005934Y017552D01*
X005959Y017454D02*
X003127Y017454D01*
X003029Y017355D02*
X006013Y017355D01*
X006136Y017257D02*
X002930Y017257D01*
X005515Y014203D02*
X009445Y014203D01*
X007124Y012529D02*
X006001Y012529D01*
X006188Y012430D02*
X006937Y012430D01*
X006957Y011642D02*
X006168Y011642D01*
X008763Y008096D02*
X013833Y008096D01*
X013755Y007998D02*
X008811Y007998D01*
X008831Y007899D02*
X013714Y007899D01*
X013704Y007801D02*
X008830Y007801D01*
X008789Y007702D02*
X013718Y007702D01*
X013762Y007604D02*
X008753Y007604D01*
X008753Y007505D02*
X013833Y007505D01*
X013833Y007407D02*
X008753Y007407D01*
X008753Y007308D02*
X013833Y007308D01*
X013878Y007210D02*
X008753Y007210D01*
X008753Y007111D02*
X013976Y007111D01*
X014075Y007013D02*
X008753Y007013D01*
X008753Y006914D02*
X017103Y006914D01*
X017103Y006816D02*
X008753Y006816D01*
X008753Y006717D02*
X017103Y006717D01*
X017103Y006619D02*
X008753Y006619D01*
X008753Y006520D02*
X017103Y006520D01*
X017103Y006422D02*
X008753Y006422D01*
X008756Y006323D02*
X017103Y006323D01*
X017103Y006225D02*
X008808Y006225D01*
X008831Y006126D02*
X017103Y006126D01*
X017103Y006028D02*
X008831Y006028D01*
X008792Y005929D02*
X017103Y005929D01*
X017103Y005831D02*
X008718Y005831D01*
X008546Y005732D02*
X017103Y005732D01*
X017103Y005634D02*
X000903Y005634D01*
X000903Y005732D02*
X008379Y005732D01*
X008207Y005831D02*
X000903Y005831D01*
X000903Y005929D02*
X008133Y005929D01*
X008094Y006028D02*
X000903Y006028D01*
X000903Y006126D02*
X008094Y006126D01*
X008117Y006225D02*
X000903Y006225D01*
X000903Y006323D02*
X008169Y006323D01*
X008173Y006422D02*
X000903Y006422D01*
X000903Y006520D02*
X008173Y006520D01*
X008173Y006619D02*
X000903Y006619D01*
X000903Y006717D02*
X008173Y006717D01*
X008204Y004986D02*
X007836Y004834D01*
X007555Y004553D01*
X007403Y004185D01*
X007403Y003787D01*
X007555Y003420D01*
X007836Y003139D01*
X008204Y002986D01*
X008601Y002986D01*
X008969Y003139D01*
X009250Y003420D01*
X009402Y003787D01*
X009402Y004185D01*
X009250Y004553D01*
X008969Y004834D01*
X008601Y004986D01*
X008204Y004986D01*
X008102Y004944D02*
X000903Y004944D01*
X000903Y004846D02*
X007865Y004846D01*
X007749Y004747D02*
X000903Y004747D01*
X000903Y004649D02*
X007651Y004649D01*
X007554Y004550D02*
X000903Y004550D01*
X000903Y004452D02*
X007513Y004452D01*
X007472Y004353D02*
X000903Y004353D01*
X000903Y004255D02*
X007431Y004255D01*
X007403Y004156D02*
X000903Y004156D01*
X000903Y004058D02*
X007403Y004058D01*
X007403Y003959D02*
X000903Y003959D01*
X000903Y003861D02*
X007403Y003861D01*
X007413Y003762D02*
X000903Y003762D01*
X000903Y003664D02*
X007454Y003664D01*
X007495Y003565D02*
X000903Y003565D01*
X000903Y003467D02*
X007535Y003467D01*
X007606Y003368D02*
X000903Y003368D01*
X000903Y003270D02*
X007705Y003270D01*
X007803Y003171D02*
X000903Y003171D01*
X000903Y003073D02*
X007995Y003073D01*
X008810Y003073D02*
X017103Y003073D01*
X017103Y003171D02*
X009002Y003171D01*
X009100Y003270D02*
X017103Y003270D01*
X017103Y003368D02*
X009199Y003368D01*
X009270Y003467D02*
X017103Y003467D01*
X017103Y003565D02*
X009310Y003565D01*
X009351Y003664D02*
X017103Y003664D01*
X017103Y003762D02*
X009392Y003762D01*
X009402Y003861D02*
X017103Y003861D01*
X017103Y003959D02*
X009402Y003959D01*
X009402Y004058D02*
X017103Y004058D01*
X017103Y004156D02*
X009402Y004156D01*
X009374Y004255D02*
X017103Y004255D01*
X017103Y004353D02*
X014640Y004353D01*
X014611Y004324D02*
X014715Y004428D01*
X014771Y004563D01*
X014771Y004710D01*
X014715Y004845D01*
X014611Y004948D01*
X014476Y005004D01*
X014329Y005004D01*
X014194Y004948D01*
X014102Y004856D01*
X013691Y004856D01*
X013599Y004948D01*
X013464Y005004D01*
X013317Y005004D01*
X013182Y004948D01*
X013078Y004845D01*
X013022Y004710D01*
X013022Y004563D01*
X013078Y004428D01*
X013182Y004324D01*
X013317Y004268D01*
X013464Y004268D01*
X013599Y004324D01*
X013691Y004416D01*
X014102Y004416D01*
X014194Y004324D01*
X014329Y004268D01*
X014476Y004268D01*
X014611Y004324D01*
X014725Y004452D02*
X017103Y004452D01*
X017103Y004550D02*
X014765Y004550D01*
X014771Y004649D02*
X017103Y004649D01*
X017103Y004747D02*
X014755Y004747D01*
X014714Y004846D02*
X017103Y004846D01*
X017103Y004944D02*
X014615Y004944D01*
X014403Y004636D02*
X013391Y004636D01*
X013603Y004944D02*
X014190Y004944D01*
X014165Y004353D02*
X013628Y004353D01*
X013153Y004353D02*
X009333Y004353D01*
X009292Y004452D02*
X013069Y004452D01*
X013028Y004550D02*
X009251Y004550D01*
X009154Y004649D02*
X013022Y004649D01*
X013038Y004747D02*
X009056Y004747D01*
X008940Y004846D02*
X013079Y004846D01*
X013178Y004944D02*
X008703Y004944D01*
X013273Y010076D02*
X013273Y010106D01*
X013763Y010706D02*
X013763Y010746D01*
X014848Y009771D02*
X019033Y009771D01*
X019033Y009869D02*
X014947Y009869D01*
X015045Y009968D02*
X019033Y009968D01*
X019033Y010066D02*
X015144Y010066D01*
X015242Y010165D02*
X019033Y010165D01*
X019033Y010263D02*
X015341Y010263D01*
X015439Y010362D02*
X019092Y010362D01*
X019190Y010460D02*
X015538Y010460D01*
X015636Y010559D02*
X019289Y010559D01*
X019387Y010657D02*
X015735Y010657D01*
X015793Y010756D02*
X019486Y010756D01*
X019603Y010561D02*
X020128Y010561D01*
X020253Y010686D01*
X020431Y010362D02*
X020733Y010362D01*
X020733Y010460D02*
X020547Y010460D01*
X020598Y010559D02*
X020733Y010559D01*
X020733Y010657D02*
X020621Y010657D01*
X020621Y010756D02*
X020733Y010756D01*
X020759Y010854D02*
X020581Y010854D01*
X020507Y010953D02*
X020784Y010953D01*
X020753Y011051D02*
X020653Y011051D01*
X020653Y011011D02*
X020653Y011411D01*
X020253Y011411D01*
X020253Y011275D01*
X020516Y011011D01*
X020653Y011011D01*
X020653Y011150D02*
X020753Y011150D01*
X020753Y011248D02*
X020653Y011248D01*
X020653Y011347D02*
X020753Y011347D01*
X020753Y011445D02*
X021233Y011445D01*
X021233Y011347D02*
X021153Y011347D01*
X021153Y011544D02*
X021233Y011544D01*
X021233Y011642D02*
X021153Y011642D01*
X021059Y011741D02*
X021317Y011741D01*
X021416Y011839D02*
X020961Y011839D01*
X020897Y011991D02*
X021173Y012267D01*
X021173Y012656D01*
X020897Y012931D01*
X020508Y012931D01*
X020233Y012656D01*
X020233Y012267D01*
X020508Y011991D01*
X020897Y011991D01*
X020942Y012036D02*
X021463Y012036D01*
X021364Y012135D02*
X021041Y012135D01*
X021139Y012233D02*
X021266Y012233D01*
X021233Y012332D02*
X021173Y012332D01*
X021173Y012430D02*
X021233Y012430D01*
X021233Y012529D02*
X021173Y012529D01*
X021173Y012627D02*
X021233Y012627D01*
X021302Y012726D02*
X021103Y012726D01*
X021004Y012824D02*
X021401Y012824D01*
X021499Y012923D02*
X020906Y012923D01*
X020897Y012991D02*
X021173Y013267D01*
X021173Y013656D01*
X020897Y013931D01*
X020508Y013931D01*
X020233Y013656D01*
X020233Y013267D01*
X020508Y012991D01*
X020897Y012991D01*
X020927Y013021D02*
X021478Y013021D01*
X021379Y013120D02*
X021026Y013120D01*
X021124Y013218D02*
X021281Y013218D01*
X021233Y013317D02*
X021173Y013317D01*
X021173Y013415D02*
X021233Y013415D01*
X021233Y013514D02*
X021173Y013514D01*
X021173Y013612D02*
X021233Y013612D01*
X021287Y013711D02*
X021118Y013711D01*
X021019Y013809D02*
X021386Y013809D01*
X021484Y013908D02*
X020921Y013908D01*
X020897Y013991D02*
X021173Y014267D01*
X021173Y014656D01*
X020897Y014931D01*
X020508Y014931D01*
X020233Y014656D01*
X020233Y014267D01*
X020508Y013991D01*
X020897Y013991D01*
X020912Y014006D02*
X021903Y014006D01*
X021753Y014105D02*
X021653Y014105D01*
X021653Y014203D02*
X021753Y014203D01*
X021753Y014302D02*
X021653Y014302D01*
X021653Y014400D02*
X021753Y014400D01*
X021653Y014499D02*
X021173Y014499D01*
X021173Y014597D02*
X021253Y014597D01*
X021301Y014696D02*
X021133Y014696D01*
X021034Y014794D02*
X021399Y014794D01*
X021498Y014893D02*
X020936Y014893D01*
X020897Y014991D02*
X021173Y015267D01*
X021173Y015656D01*
X020897Y015931D01*
X020508Y015931D01*
X020233Y015656D01*
X020233Y015267D01*
X020508Y014991D01*
X020897Y014991D01*
X021508Y014991D01*
X021409Y015090D02*
X020996Y015090D01*
X021094Y015188D02*
X021311Y015188D01*
X021233Y015287D02*
X021173Y015287D01*
X021173Y015385D02*
X021233Y015385D01*
X021233Y015484D02*
X021173Y015484D01*
X021173Y015582D02*
X021233Y015582D01*
X021257Y015681D02*
X021148Y015681D01*
X021049Y015779D02*
X021356Y015779D01*
X021454Y015878D02*
X020951Y015878D01*
X020897Y015991D02*
X021173Y016267D01*
X021173Y016656D01*
X020897Y016931D01*
X020508Y016931D01*
X020233Y016656D01*
X020233Y016267D01*
X020508Y015991D01*
X020897Y015991D01*
X020981Y016075D02*
X021424Y016075D01*
X021326Y016173D02*
X021079Y016173D01*
X021173Y016272D02*
X021233Y016272D01*
X021233Y016370D02*
X021173Y016370D01*
X021173Y016469D02*
X021233Y016469D01*
X021233Y016567D02*
X021173Y016567D01*
X021163Y016666D02*
X021242Y016666D01*
X021341Y016764D02*
X021064Y016764D01*
X020966Y016863D02*
X021439Y016863D01*
X021468Y017060D02*
X020966Y017060D01*
X020897Y016991D02*
X021173Y017267D01*
X021173Y017656D01*
X020897Y017931D01*
X020508Y017931D01*
X020233Y017656D01*
X020233Y017267D01*
X020508Y016991D01*
X020897Y016991D01*
X021064Y017158D02*
X021369Y017158D01*
X021271Y017257D02*
X021163Y017257D01*
X021173Y017355D02*
X021253Y017355D01*
X021173Y017454D02*
X021653Y017454D01*
X021653Y017552D02*
X021753Y017552D01*
X021753Y017651D02*
X021653Y017651D01*
X021653Y017749D02*
X021753Y017749D01*
X021753Y017848D02*
X021653Y017848D01*
X021453Y017848D02*
X020981Y017848D01*
X021079Y017749D02*
X021354Y017749D01*
X021256Y017651D02*
X021173Y017651D01*
X021173Y017552D02*
X021253Y017552D01*
X021653Y017355D02*
X021753Y017355D01*
X021753Y017257D02*
X021653Y017257D01*
X021653Y017158D02*
X021753Y017158D01*
X021753Y017060D02*
X021653Y017060D01*
X021903Y016961D02*
X019368Y016961D01*
X019301Y016863D02*
X020439Y016863D01*
X020341Y016764D02*
X019301Y016764D01*
X019273Y016666D02*
X020242Y016666D01*
X020233Y016567D02*
X019214Y016567D01*
X019080Y016469D02*
X020233Y016469D01*
X020233Y016370D02*
X019051Y016370D01*
X019050Y016272D02*
X020233Y016272D01*
X020326Y016173D02*
X019009Y016173D01*
X018932Y016075D02*
X020424Y016075D01*
X020454Y015878D02*
X018693Y015878D01*
X018693Y015976D02*
X021903Y015976D01*
X021897Y014991D02*
X021903Y014991D01*
X021753Y014893D02*
X021653Y014893D01*
X021653Y014794D02*
X021753Y014794D01*
X021753Y014696D02*
X021653Y014696D01*
X021653Y014597D02*
X021753Y014597D01*
X021253Y014400D02*
X021173Y014400D01*
X021173Y014302D02*
X021253Y014302D01*
X021324Y014203D02*
X021109Y014203D01*
X021011Y014105D02*
X021423Y014105D01*
X020493Y014006D02*
X018821Y014006D01*
X018821Y013908D02*
X020484Y013908D01*
X020386Y013809D02*
X018781Y013809D01*
X018700Y013711D02*
X020287Y013711D01*
X020233Y013612D02*
X017110Y013612D01*
X017011Y013514D02*
X020233Y013514D01*
X020233Y013415D02*
X016913Y013415D01*
X016814Y013317D02*
X020233Y013317D01*
X020281Y013218D02*
X016716Y013218D01*
X016617Y013120D02*
X020379Y013120D01*
X020478Y013021D02*
X016519Y013021D01*
X016420Y012923D02*
X020499Y012923D01*
X020401Y012824D02*
X016322Y012824D01*
X016223Y012726D02*
X020302Y012726D01*
X020233Y012627D02*
X016125Y012627D01*
X016026Y012529D02*
X020233Y012529D01*
X020233Y012430D02*
X015928Y012430D01*
X015913Y012332D02*
X020233Y012332D01*
X020266Y012233D02*
X015913Y012233D01*
X015902Y012135D02*
X020364Y012135D01*
X020463Y012036D02*
X015804Y012036D01*
X015793Y011938D02*
X021903Y011938D01*
X021903Y010953D02*
X021521Y010953D01*
X021517Y010854D02*
X021903Y010854D01*
X021903Y010756D02*
X021476Y010756D01*
X021394Y010657D02*
X021903Y010657D01*
X021903Y010559D02*
X021173Y010559D01*
X021173Y010460D02*
X021903Y010460D01*
X021903Y010362D02*
X021173Y010362D01*
X021173Y010263D02*
X021903Y010263D01*
X021903Y010165D02*
X021167Y010165D01*
X021069Y010066D02*
X021903Y010066D01*
X021903Y009968D02*
X020970Y009968D01*
X020872Y009869D02*
X021903Y009869D01*
X021903Y009771D02*
X020773Y009771D01*
X020628Y009936D02*
X020953Y010261D01*
X020953Y010736D01*
X021153Y010936D01*
X020643Y010263D02*
X019900Y010263D01*
X020020Y010165D02*
X020545Y010165D01*
X020628Y009936D02*
X019728Y009936D01*
X019984Y009672D02*
X021903Y009672D01*
X021903Y009574D02*
X019814Y009574D01*
X019641Y009574D02*
X019573Y009574D01*
X019614Y009475D02*
X021903Y009475D01*
X021903Y009377D02*
X019621Y009377D01*
X019653Y009411D02*
X019628Y009436D01*
X019606Y009278D02*
X021903Y009278D01*
X021903Y009180D02*
X019565Y009180D01*
X019468Y009081D02*
X021903Y009081D01*
X021903Y008983D02*
X014503Y008983D01*
X014503Y009081D02*
X019037Y009081D01*
X018940Y009180D02*
X014503Y009180D01*
X014503Y009278D02*
X018899Y009278D01*
X018884Y009377D02*
X014503Y009377D01*
X014553Y009475D02*
X018891Y009475D01*
X018932Y009574D02*
X014651Y009574D01*
X014750Y009672D02*
X019018Y009672D01*
X019253Y009386D02*
X019253Y010211D01*
X019603Y010561D01*
X019924Y010854D02*
X015793Y010854D01*
X015793Y010953D02*
X019998Y010953D01*
X020172Y011051D02*
X015793Y011051D01*
X015793Y011150D02*
X020378Y011150D01*
X020333Y011051D02*
X020476Y011051D01*
X020279Y011248D02*
X015793Y011248D01*
X015793Y011347D02*
X020253Y011347D01*
X020253Y011511D02*
X020653Y011511D01*
X020653Y011911D01*
X020516Y011911D01*
X020253Y011648D01*
X020253Y011511D01*
X020253Y011544D02*
X015793Y011544D01*
X015793Y011642D02*
X020253Y011642D01*
X020346Y011741D02*
X015793Y011741D01*
X015793Y011839D02*
X020444Y011839D01*
X020653Y011839D02*
X020753Y011839D01*
X020753Y011741D02*
X020653Y011741D01*
X020653Y011642D02*
X020753Y011642D01*
X020753Y011544D02*
X020653Y011544D01*
X020653Y011445D02*
X015793Y011445D01*
X014983Y011886D02*
X014943Y011856D01*
X013393Y012886D02*
X013392Y012891D01*
X013388Y012895D01*
X013383Y012896D01*
X013333Y012896D01*
X015040Y014499D02*
X016629Y014499D01*
X016531Y014597D02*
X015174Y014597D01*
X015233Y014696D02*
X016490Y014696D01*
X016474Y014794D02*
X015261Y014794D01*
X015261Y014893D02*
X016480Y014893D01*
X016521Y014991D02*
X015227Y014991D01*
X015183Y015090D02*
X016553Y015090D01*
X016553Y015188D02*
X015183Y015188D01*
X015183Y015287D02*
X016553Y015287D01*
X016553Y015385D02*
X015183Y015385D01*
X015183Y015484D02*
X016553Y015484D01*
X016553Y015582D02*
X015183Y015582D01*
X015183Y015681D02*
X016553Y015681D01*
X016553Y015779D02*
X015183Y015779D01*
X015183Y015878D02*
X016553Y015878D01*
X016553Y015976D02*
X015183Y015976D01*
X015183Y016075D02*
X016528Y016075D01*
X016487Y016173D02*
X015183Y016173D01*
X015183Y016272D02*
X016474Y016272D01*
X016483Y016370D02*
X015183Y016370D01*
X015183Y016469D02*
X016524Y016469D01*
X016553Y016567D02*
X015183Y016567D01*
X015183Y016666D02*
X016553Y016666D01*
X016553Y016764D02*
X015183Y016764D01*
X015183Y016863D02*
X016553Y016863D01*
X016553Y016961D02*
X015183Y016961D01*
X015183Y017060D02*
X016553Y017060D01*
X016553Y017158D02*
X015183Y017158D01*
X015183Y017257D02*
X016553Y017257D01*
X016553Y017355D02*
X015183Y017355D01*
X015183Y017454D02*
X016516Y017454D01*
X016475Y017552D02*
X015183Y017552D01*
X015183Y017651D02*
X016474Y017651D01*
X016495Y017749D02*
X015183Y017749D01*
X015183Y017848D02*
X016544Y017848D01*
X016553Y017946D02*
X015183Y017946D01*
X015183Y018045D02*
X016553Y018045D01*
X016553Y018143D02*
X015183Y018143D01*
X015183Y018242D02*
X016553Y018242D01*
X016553Y018340D02*
X015183Y018340D01*
X015183Y018439D02*
X016553Y018439D01*
X016553Y018537D02*
X015183Y018537D01*
X015183Y018636D02*
X016553Y018636D01*
X016553Y018734D02*
X015183Y018734D01*
X015183Y018833D02*
X016508Y018833D01*
X016474Y018931D02*
X015183Y018931D01*
X015183Y019030D02*
X016474Y019030D01*
X016503Y019128D02*
X015183Y019128D01*
X015183Y019227D02*
X016563Y019227D01*
X016699Y019325D02*
X015183Y019325D01*
X014603Y017946D02*
X014509Y017946D01*
X014393Y017596D02*
X014893Y017596D01*
X014603Y017257D02*
X014535Y017257D01*
X017133Y015188D02*
X017632Y015188D01*
X017565Y015090D02*
X017133Y015090D01*
X017164Y014991D02*
X017534Y014991D01*
X017534Y014893D02*
X017205Y014893D01*
X017211Y014794D02*
X017568Y014794D01*
X017640Y014696D02*
X017195Y014696D01*
X017154Y014597D02*
X017663Y014597D01*
X017663Y014499D02*
X017056Y014499D01*
X017208Y013711D02*
X018245Y013711D01*
X018207Y014203D02*
X018001Y014203D01*
X018099Y014302D02*
X018253Y014302D01*
X018253Y014400D02*
X018103Y014400D01*
X018103Y014499D02*
X018253Y014499D01*
X018253Y014597D02*
X018103Y014597D01*
X018693Y014597D02*
X020233Y014597D01*
X020233Y014499D02*
X018693Y014499D01*
X018693Y014400D02*
X020233Y014400D01*
X020233Y014302D02*
X018693Y014302D01*
X018738Y014203D02*
X020296Y014203D01*
X020394Y014105D02*
X018796Y014105D01*
X018693Y014696D02*
X020272Y014696D01*
X020371Y014794D02*
X018693Y014794D01*
X018693Y014893D02*
X020469Y014893D01*
X020508Y014991D02*
X018693Y014991D01*
X018693Y015090D02*
X020409Y015090D01*
X020311Y015188D02*
X018693Y015188D01*
X018693Y015287D02*
X020233Y015287D01*
X020233Y015385D02*
X018693Y015385D01*
X018693Y015484D02*
X020233Y015484D01*
X020233Y015582D02*
X018693Y015582D01*
X018693Y015681D02*
X020257Y015681D01*
X020356Y015779D02*
X018693Y015779D01*
X018933Y016806D02*
X018783Y016956D01*
X018783Y017926D01*
X019443Y018586D01*
X019443Y019266D01*
X019784Y019128D02*
X020399Y019128D01*
X020498Y019030D02*
X019727Y019030D01*
X019663Y018931D02*
X021903Y018931D01*
X021469Y019030D02*
X020907Y019030D01*
X020889Y019011D02*
X021153Y019275D01*
X021153Y019411D01*
X020753Y019411D01*
X020753Y019011D01*
X020889Y019011D01*
X020897Y018931D02*
X020508Y018931D01*
X020233Y018656D01*
X020233Y018267D01*
X020508Y017991D01*
X020897Y017991D01*
X021173Y018267D01*
X021173Y018656D01*
X020897Y018931D01*
X020996Y018833D02*
X021409Y018833D01*
X021311Y018734D02*
X021094Y018734D01*
X021173Y018636D02*
X021233Y018636D01*
X021233Y018537D02*
X021173Y018537D01*
X021173Y018439D02*
X021233Y018439D01*
X021233Y018340D02*
X021173Y018340D01*
X021148Y018242D02*
X021257Y018242D01*
X021356Y018143D02*
X021049Y018143D01*
X020951Y018045D02*
X021454Y018045D01*
X021903Y017946D02*
X019761Y017946D01*
X019761Y018045D02*
X020454Y018045D01*
X020356Y018143D02*
X019730Y018143D01*
X019668Y018242D02*
X020257Y018242D01*
X020233Y018340D02*
X019524Y018340D01*
X019606Y018439D02*
X020233Y018439D01*
X020233Y018537D02*
X019663Y018537D01*
X019663Y018636D02*
X020233Y018636D01*
X020311Y018734D02*
X019663Y018734D01*
X019663Y018833D02*
X020409Y018833D01*
X020516Y019011D02*
X020253Y019275D01*
X020253Y019411D01*
X020653Y019411D01*
X020653Y019011D01*
X020516Y019011D01*
X020653Y019030D02*
X020753Y019030D01*
X020753Y019128D02*
X020653Y019128D01*
X020653Y019227D02*
X020753Y019227D01*
X020753Y019325D02*
X020653Y019325D01*
X020653Y019424D02*
X019776Y019424D01*
X019811Y019325D02*
X020253Y019325D01*
X020301Y019227D02*
X019811Y019227D01*
X019707Y019522D02*
X020253Y019522D01*
X020253Y019621D02*
X019549Y019621D01*
X019337Y019621D02*
X019283Y019621D01*
X019283Y019719D02*
X020324Y019719D01*
X020653Y019719D02*
X020753Y019719D01*
X020753Y019621D02*
X020653Y019621D01*
X020653Y019522D02*
X020753Y019522D01*
X020753Y019424D02*
X021233Y019424D01*
X021233Y019522D02*
X021153Y019522D01*
X021153Y019621D02*
X021233Y019621D01*
X021296Y019719D02*
X021081Y019719D01*
X020982Y019818D02*
X021394Y019818D01*
X021233Y019325D02*
X021153Y019325D01*
X021104Y019227D02*
X021272Y019227D01*
X021371Y019128D02*
X021006Y019128D01*
X020753Y019818D02*
X020653Y019818D01*
X020424Y017848D02*
X019729Y017848D01*
X019666Y017749D02*
X020326Y017749D01*
X020233Y017651D02*
X019520Y017651D01*
X019387Y017552D02*
X020233Y017552D01*
X020233Y017454D02*
X019473Y017454D01*
X019514Y017355D02*
X020233Y017355D01*
X020242Y017257D02*
X019521Y017257D01*
X019506Y017158D02*
X020341Y017158D01*
X020439Y017060D02*
X019465Y017060D01*
X019153Y017266D02*
X019153Y017746D01*
X019393Y017996D01*
X018970Y022970D02*
X018615Y022970D01*
X018713Y023068D02*
X018872Y023068D01*
X018809Y023167D02*
X018776Y023167D01*
X017970Y022970D02*
X017615Y022970D01*
X017713Y023068D02*
X017872Y023068D01*
X017809Y023167D02*
X017776Y023167D01*
X016970Y022970D02*
X016615Y022970D01*
X016713Y023068D02*
X016872Y023068D01*
X016809Y023167D02*
X016776Y023167D01*
X015970Y022970D02*
X015615Y022970D01*
X015713Y023068D02*
X015872Y023068D01*
X015809Y023167D02*
X015776Y023167D01*
X014970Y022970D02*
X014615Y022970D01*
X014713Y023068D02*
X014872Y023068D01*
X014809Y023167D02*
X014776Y023167D01*
X011181Y023659D02*
X009194Y023659D01*
X009268Y023561D02*
X011140Y023561D01*
X011113Y023462D02*
X009308Y023462D01*
X009349Y023364D02*
X011113Y023364D01*
X011118Y023265D02*
X009390Y023265D01*
X009402Y023167D02*
X011082Y023167D01*
X007612Y023659D02*
X006591Y023659D01*
X006603Y023561D02*
X007538Y023561D01*
X007497Y023462D02*
X006203Y023462D01*
X006203Y023364D02*
X006103Y023364D01*
X006103Y023265D02*
X006203Y023265D01*
X006203Y023167D02*
X006103Y023167D01*
X006103Y023068D02*
X006203Y023068D01*
X006494Y023167D02*
X007403Y023167D01*
X007415Y023265D02*
X006593Y023265D01*
X006603Y023364D02*
X007456Y023364D01*
X009453Y018936D02*
X009453Y017886D01*
X009153Y017586D01*
X007363Y017586D02*
X006303Y017586D01*
X011343Y011726D02*
X011343Y011626D01*
X011333Y011656D01*
X011803Y010606D02*
X011813Y010596D01*
X011813Y010586D01*
X014503Y008884D02*
X021903Y008884D01*
X021903Y008786D02*
X014503Y008786D01*
X014503Y008687D02*
X021903Y008687D01*
X017449Y008589D02*
X014503Y008589D01*
X014503Y008490D02*
X017274Y008490D01*
X017178Y008392D02*
X014503Y008392D01*
X014503Y008293D02*
X017137Y008293D01*
X017103Y008195D02*
X014503Y008195D01*
X014574Y008096D02*
X017103Y008096D01*
X017103Y007998D02*
X014672Y007998D01*
X014771Y007899D02*
X017103Y007899D01*
X017103Y007801D02*
X015051Y007801D01*
X017103Y005535D02*
X000903Y005535D01*
X000903Y005437D02*
X017103Y005437D01*
X017103Y005338D02*
X000903Y005338D01*
X000903Y005240D02*
X017103Y005240D01*
X017103Y005141D02*
X000903Y005141D01*
X000903Y005043D02*
X017103Y005043D01*
X016828Y004786D02*
X016828Y004761D01*
X017103Y002974D02*
X000903Y002974D01*
X000903Y002876D02*
X017103Y002876D01*
X017103Y002777D02*
X000903Y002777D01*
D15*
X001628Y006911D03*
X002793Y007646D03*
X003163Y007116D03*
X005473Y007986D03*
X005853Y008766D03*
X005453Y010616D03*
X008183Y011796D03*
X010283Y012546D03*
X009743Y014426D03*
X009333Y014806D03*
X010878Y014861D03*
X013003Y015786D03*
X014393Y017596D03*
X016843Y017626D03*
X016843Y016276D03*
X016843Y014806D03*
X014893Y014836D03*
X018683Y016346D03*
X018933Y016806D03*
X019153Y017266D03*
X019393Y017996D03*
X019443Y019266D03*
X018633Y020826D03*
X016843Y018986D03*
X014893Y021516D03*
X010303Y020726D03*
X009453Y018936D03*
X007378Y016336D03*
X006303Y017586D03*
X005783Y017586D03*
X004233Y019106D03*
X004513Y019986D03*
X003103Y016486D03*
X001743Y015666D03*
X002453Y013686D03*
X008463Y007876D03*
X008463Y006096D03*
X006923Y004096D03*
X013391Y004636D03*
X014403Y004636D03*
X013363Y006996D03*
X016828Y004786D03*
X019253Y009386D03*
X019728Y009936D03*
X020253Y010686D03*
X021153Y010936D03*
D16*
X016843Y014806D02*
X016843Y016276D01*
X016843Y017626D01*
X016843Y018986D01*
X014893Y017596D02*
X014893Y021516D01*
X015748Y022371D01*
X019028Y022371D01*
X014893Y017596D02*
X014893Y014836D01*
X013003Y015786D02*
X012953Y015786D01*
X010878Y014861D02*
X010853Y014861D01*
X010845Y014862D01*
X010838Y014866D01*
X010833Y014871D01*
X010829Y014878D01*
X010828Y014886D01*
X010283Y012546D02*
X007753Y012546D01*
X007253Y012046D01*
X005463Y010666D02*
X005458Y010665D01*
X005454Y010661D01*
X005453Y010656D01*
X005453Y010616D01*
X005503Y008016D02*
X005473Y007986D01*
X005503Y008016D02*
X005504Y008021D01*
X005508Y008025D01*
X005513Y008026D01*
X008463Y007876D02*
X008463Y006096D01*
X006923Y004096D02*
X006863Y004096D01*
X001628Y006911D02*
X001628Y006986D01*
X001603Y007011D01*
X007888Y020726D02*
X010303Y020726D01*
X007888Y020726D02*
X006153Y022461D01*
D17*
X004153Y005936D03*
D18*
X004153Y006011D01*
X005873Y012046D02*
X007253Y012046D01*
X010673Y007026D02*
X010663Y007016D01*
X010663Y006996D01*
D19*
X004963Y013976D02*
X005903Y014916D01*
X006063Y014916D01*
X006333Y015186D01*
X006333Y015636D01*
X005913Y015286D02*
X005303Y014676D01*
X003943Y014676D01*
X003933Y013976D02*
X004963Y013976D01*
X005783Y017586D02*
X005833Y017586D01*
D20*
X007363Y018006D02*
X003383Y018006D01*
X002713Y017336D01*
X002713Y016866D01*
X002463Y016616D01*
X001648Y016616D01*
X001153Y017111D01*
X001153Y011476D01*
X001453Y011176D01*
X002103Y011176D01*
X002663Y010646D01*
X002663Y007806D01*
X002793Y007646D01*
X003163Y007796D02*
X002863Y008126D01*
X002863Y010736D01*
X002193Y011376D01*
X001543Y011376D01*
X001353Y011566D01*
X001353Y013296D01*
X001743Y013686D01*
X002453Y013686D01*
X002683Y017616D02*
X001648Y017616D01*
X001153Y018111D01*
X001648Y018616D02*
X001153Y019111D01*
X001648Y018616D02*
X007643Y018616D01*
X008778Y017481D01*
X008602Y017046D02*
X008293Y017366D01*
X008293Y017656D01*
X007533Y018416D01*
X002458Y018416D01*
X002153Y018111D01*
X002683Y017616D02*
X003283Y018216D01*
X007443Y018216D01*
X008083Y017576D01*
X008083Y016926D01*
X008413Y016596D01*
X008423Y016596D01*
X008293Y016266D02*
X007873Y016676D01*
X007873Y017496D01*
X007363Y018006D01*
X007378Y016336D02*
X007378Y016311D01*
X007303Y016236D01*
X008293Y016266D02*
X008563Y016266D01*
X009003Y015826D01*
X009003Y015576D01*
X008913Y018216D02*
X008927Y018231D01*
X004513Y019966D02*
X004513Y019986D01*
X003163Y007796D02*
X003163Y007116D01*
X017473Y010891D02*
X017493Y010866D01*
X017493Y012276D02*
X017513Y012276D01*
X018423Y012306D02*
X018503Y012381D01*
D21*
X014933Y008356D02*
X014913Y008366D01*
X013363Y006996D02*
X013363Y006896D01*
X013413Y006846D01*
X005853Y008766D02*
X005753Y008766D01*
X001783Y015656D02*
X001773Y015666D01*
X001743Y015666D01*
X003043Y016476D02*
X003053Y016486D01*
X003103Y016486D01*
X002153Y019111D02*
X004228Y019111D01*
X004233Y019106D01*
X002153Y019111D02*
X002153Y020661D01*
X001653Y021161D01*
X001653Y021961D01*
X002153Y022461D01*
X010303Y022026D02*
X010303Y020726D01*
X010303Y022026D02*
X011653Y023386D01*
X019628Y022371D02*
X020033Y021966D01*
X021208Y021966D01*
X021703Y022461D01*
X021703Y023461D01*
D22*
X007253Y012046D03*
X005873Y012046D03*
X010673Y007026D03*
D23*
X013273Y010106D03*
X013763Y010746D03*
X014943Y011856D03*
X015313Y012386D03*
X016753Y012861D03*
X017303Y013236D03*
X017953Y012861D03*
X018478Y013211D03*
X018473Y013976D03*
X017883Y014946D03*
X018503Y012381D03*
X017493Y012276D03*
X017473Y010891D03*
X016978Y010186D03*
X016278Y010586D03*
X015428Y010161D03*
X014913Y008366D03*
X014853Y007506D03*
X015443Y007306D03*
X014053Y007806D03*
X011803Y010606D03*
X011343Y011726D03*
X013333Y012896D03*
X009003Y015576D03*
X008423Y016596D03*
X008602Y017046D03*
X008778Y017481D03*
X008927Y018231D03*
X006333Y015636D03*
X005913Y015286D03*
X003943Y014676D03*
X003933Y013976D03*
X017978Y010186D03*
X018528Y010586D03*
D24*
X008403Y003986D03*
X008403Y023036D03*
M02*
